<svg width="45" height="28" viewBox="0 0 45 28" fill="none" xmlns="http://www.w3.org/2000/svg">
<g clip-path="url(#clip0_6_13161)">
<path d="M41.799 -0.0107422H2.35487C1.05431 -0.0107422 0 1.05474 0 2.36907V25.6318C0 26.9461 1.05431 28.0116 2.35487 28.0116H41.799C43.0995 28.0116 44.1539 26.9461 44.1539 25.6318V2.36907C44.1539 1.05474 43.0995 -0.0107422 41.799 -0.0107422Z" fill="#2557D6"/>
<path d="M0.000158424 13.149H2.12097L2.59917 11.9882H3.66975L4.1467 13.149H8.31955V12.2615L8.69202 13.1527H10.8583L11.2307 12.2483V13.149H21.6011L21.5962 11.2436H21.7969C21.9374 11.2485 21.9784 11.2616 21.9784 11.495V13.149H27.342V12.7054C27.7746 12.9387 28.4475 13.149 29.3329 13.149H31.5894L32.0723 11.9882H33.1429L33.6151 13.149H37.9634V12.0464L38.6219 13.149H42.1063V5.86035H38.6579V6.72115L38.175 5.86035H34.6365V6.72115L34.1931 5.86035H29.4134C28.6134 5.86035 27.9101 5.97274 27.342 6.28594V5.86035H24.0436V6.28594C23.6821 5.96312 23.1895 5.86035 22.6417 5.86035H10.5915L9.78297 7.74287L8.95266 5.86035H5.15713V6.72115L4.74018 5.86035H1.5032L0 9.32575V13.149H0.000153067H0.000158424ZM13.3874 12.0976H12.1149L12.1102 8.00473L10.3104 12.0976H9.2205L7.41594 8.0011V12.0976H4.89133L4.41438 10.932H1.82994L1.34814 12.0976H2.94359e-06L2.22278 6.87171H4.06697L6.17807 11.8196V6.87171H8.20396L9.82839 10.4169L11.3206 6.87171H13.3872V12.0976H13.3874ZM3.99017 9.84743L3.14059 7.76409L2.29587 9.84743H3.99017ZM18.4516 12.0976H14.305V6.87171H18.4516V7.95996H15.5463V8.90193H18.3819V9.97316H15.5463V11.0168H18.4516V12.0976ZM24.2949 8.27915C24.2949 9.11236 23.7423 9.54284 23.4203 9.67209C23.6919 9.77612 23.9239 9.95992 24.0343 10.1122C24.2096 10.3721 24.2398 10.6043 24.2398 11.071V12.0976H22.9878L22.9831 11.4386C22.9831 11.1241 23.0131 10.6719 22.7872 10.4205C22.6058 10.2367 22.3294 10.1968 21.8825 10.1968H20.55V12.0976H19.3088V6.87171H22.1638C22.7982 6.87171 23.2655 6.88858 23.6668 7.12202C24.0595 7.35547 24.2949 7.69625 24.2949 8.27915ZM22.7259 9.05516C22.5553 9.15935 22.3535 9.16282 22.1119 9.16282H20.604V8.00206H22.1324C22.3487 8.00206 22.5744 8.01184 22.721 8.09632C22.882 8.17246 22.9816 8.33449 22.9816 8.55832C22.9816 8.78672 22.8869 8.97051 22.7259 9.05516ZM26.2856 12.0976H25.0191V6.87171H26.2856V12.0976ZM40.9882 12.0976H39.2292L36.8765 8.17528V12.0976H34.3486L33.8655 10.932H31.287L30.8184 12.0976H29.3659C28.7626 12.0976 27.9987 11.9633 27.5661 11.5196C27.1298 11.0759 26.9029 10.4749 26.9029 9.52455C26.9029 8.74951 27.0385 8.04098 27.572 7.4811C27.9733 7.06402 28.6017 6.87171 29.4571 6.87171H30.6588V7.99149H29.4823C29.0293 7.99149 28.7735 8.05927 28.5272 8.30106C28.3155 8.52111 28.1703 8.93708 28.1703 9.48483C28.1703 10.0447 28.2809 10.4484 28.5116 10.7121C28.7027 10.9189 29.05 10.9816 29.3767 10.9816H29.9342L31.6836 6.87187H33.5435L35.645 11.8149V6.87187H37.535L39.7168 10.5114V6.87187H40.9882V12.0976ZM33.4433 9.84743L32.5844 7.76409L31.7301 9.84743H33.4433Z" fill="white"/>
<path d="M44.1513 20.4421C43.8498 20.8859 43.2623 21.1108 42.4669 21.1108H40.0698V19.9899H42.4572C42.694 19.9899 42.8597 19.9585 42.9595 19.8605C43.046 19.7796 43.1063 19.6622 43.1063 19.5196C43.1063 19.3673 43.046 19.2464 42.9546 19.1739C42.8646 19.0941 42.7335 19.0579 42.5173 19.0579C41.3518 19.018 39.8978 19.0941 39.8978 17.44C39.8978 16.6818 40.3762 15.8838 41.6787 15.8838H44.1512L44.1513 14.8438H41.854C41.1607 14.8438 40.6572 15.0108 40.3005 15.2706V14.8438H36.9027C36.3593 14.8438 35.7215 14.9793 35.4198 15.2706V14.8438H29.3522V15.2706C28.8693 14.92 28.0545 14.8438 27.6784 14.8438H23.6761V15.2706C23.2941 14.8983 22.4445 14.8438 21.9267 14.8438H17.4475L16.4225 15.9601L15.4625 14.8438H8.77142V22.1374H15.3365L16.3927 21.0034L17.3876 22.1374L21.4344 22.141V20.4253H21.8322C22.3692 20.4336 23.0024 20.4119 23.5612 20.1688V22.1372H26.899V20.2363H27.06C27.2655 20.2363 27.2857 20.2448 27.2857 20.4514V22.1371H37.4255C38.0693 22.1371 38.7422 21.9713 39.1148 21.6704V22.1371H42.3311C43.0004 22.1371 43.654 22.0427 44.1513 21.8009V20.4421V20.4421ZM24.0464 17.6367C24.0464 19.0887 22.9699 19.3885 21.8849 19.3885H20.3361V21.1418H17.9235L16.395 19.4114L14.8066 21.1418H9.88992V15.9146H14.8823L16.4094 17.628L17.9883 15.9146H21.9546C22.9396 15.9146 24.0464 16.189 24.0464 17.6367ZM14.178 20.0423H11.1262V19.0023H13.8513V17.9358H11.1262V16.9855H14.2381L15.5958 18.5088L14.178 20.0423ZM19.0954 20.6408L17.1896 18.5116L19.0954 16.45V20.6408ZM21.9137 18.3166H20.3096V16.9855H21.9281C22.3762 16.9855 22.6873 17.1693 22.6873 17.6264C22.6873 18.0784 22.3907 18.3166 21.9137 18.3166ZM30.3173 15.9146H34.46V16.9956H31.5534V17.9459H34.3891V19.0124H31.5534V20.0524L34.46 20.0572V21.1418H30.3173V15.9146ZM28.7246 18.7126C29.0009 18.8152 29.2268 18.9992 29.3326 19.1514C29.5079 19.4066 29.5333 19.6448 29.5383 20.1056V21.1418H28.2921V20.4878C28.2921 20.1733 28.3222 19.7077 28.0915 19.4646C27.9101 19.2774 27.6336 19.2326 27.1808 19.2326H25.8543V21.1418H24.607V15.9146H27.4728C28.1012 15.9146 28.5589 15.9425 28.9663 16.1613C29.358 16.3995 29.6044 16.7257 29.6044 17.322C29.6042 18.1564 29.0513 18.5821 28.7246 18.7126ZM28.0229 18.0518C27.8569 18.1509 27.6516 18.1595 27.41 18.1595H25.9021V16.9855H27.4306C27.6516 16.9855 27.8727 16.9902 28.0229 17.0799C28.1838 17.1645 28.28 17.3264 28.28 17.5501C28.28 17.7737 28.1838 17.9539 28.0229 18.0518ZM39.2284 18.3848C39.4701 18.6365 39.5996 18.9543 39.5996 19.4922C39.5996 20.6167 38.9015 21.1416 37.6497 21.1416H35.2321V20.0208H37.64C37.8754 20.0208 38.0424 19.9894 38.147 19.8913C38.2324 19.8105 38.2936 19.693 38.2936 19.5504C38.2936 19.3981 38.2274 19.2772 38.1421 19.2047C38.0472 19.125 37.9163 19.0887 37.7001 19.0887C36.5393 19.0488 35.0856 19.125 35.0856 17.4708C35.0856 16.7127 35.559 15.9146 36.8603 15.9146H39.3487V17.0271H37.0717C36.846 17.0271 36.6992 17.0356 36.5744 17.1215C36.4384 17.2062 36.388 17.3318 36.388 17.4976C36.388 17.6948 36.5035 17.829 36.6596 17.887C36.7906 17.9328 36.9312 17.9462 37.1427 17.9462L37.8109 17.9644C38.4847 17.9809 38.9472 18.0982 39.2284 18.3848ZM44.1539 16.9855H41.8916C41.6658 16.9855 41.5157 16.994 41.3893 17.0799C41.2584 17.1645 41.2079 17.2902 41.2079 17.456C41.2079 17.6532 41.3185 17.7873 41.4794 17.8453C41.6103 17.8912 41.751 17.9046 41.9577 17.9046L42.6305 17.9227C43.3093 17.9396 43.7625 18.057 44.0387 18.3434C44.089 18.3833 44.1193 18.428 44.1539 18.4728V16.9855Z" fill="white"/>
</g>
<defs>
<clipPath id="clip0_6_13161">
<rect width="44.1538" height="28" fill="white"/>
</clipPath>
</defs>
</svg>
