<svg width="135" height="28" viewBox="0 0 135 28" fill="none" xmlns="http://www.w3.org/2000/svg">
<g clip-path="url(#clip0_8835_25577)">
<path d="M27.578 17.3865C25.7081 24.8879 18.1118 29.451 10.6105 27.5812C3.11302 25.7113 -1.45142 18.1145 0.419328 10.6149C2.28833 3.11354 9.8842 -1.4509 17.383 0.418974C24.8835 2.28885 29.4479 9.88647 27.578 17.3865Z" fill="#F7931A"/>
<path d="M20.1746 12.0052C20.4533 10.1424 19.0349 9.14093 17.0955 8.47287L17.7246 5.94937L16.1885 5.56655L15.576 8.02355C15.1669 7.92303 14.7568 7.82648 14.3458 7.73393L14.9627 5.26074L13.427 4.87793L12.7979 7.40055C12.4637 7.32443 12.1355 7.24918 11.817 7.16999L11.8188 7.16212L9.70041 6.63318L9.29178 8.2738C9.29178 8.2738 10.4315 8.53499 10.4074 8.55118C11.0295 8.70649 11.142 9.11818 11.1232 9.44455L10.4065 12.3194C10.4494 12.3303 10.505 12.3465 10.5662 12.3706L10.4039 12.3303L9.39941 16.3575C9.32328 16.5465 9.13034 16.83 8.69503 16.7224C8.71078 16.7447 7.57897 16.4437 7.57897 16.4437L6.81641 18.2024L8.81534 18.7012C9.18722 18.7939 9.55166 18.8915 9.91041 18.9834L9.27472 21.5357L10.809 21.9186L11.4382 19.3929C11.8573 19.5071 12.2642 19.6116 12.6623 19.7109L12.0349 22.2244L13.5705 22.6072L14.2067 20.0596C16.826 20.5553 18.7956 20.3554 19.6247 17.9867C20.2927 16.0792 19.5914 14.9789 18.2133 14.261C19.2169 14.0291 19.9729 13.3689 20.1746 12.0052ZM16.6645 16.9262C16.1898 18.8337 12.9782 17.803 11.9369 17.544L12.7804 14.1626C13.8217 14.4229 17.1607 14.9374 16.6645 16.9262ZM17.1397 11.9781C16.7065 13.7128 14.0334 12.8312 13.1663 12.6151L13.931 9.54824C14.7982 9.76437 17.5907 10.1682 17.1397 11.9781Z" fill="white"/>
<path d="M41.0287 8.47084C42.164 8.47084 43.1449 8.67428 43.9687 9.07372C44.7973 9.47709 45.4807 10.0205 46.0289 10.7038C46.5696 11.3907 46.9721 12.1935 47.232 13.1136C47.4901 14.0367 47.6196 15.0281 47.6196 16.0895C47.6196 17.7213 47.3208 19.2613 46.7175 20.7138C46.1138 22.1685 45.2956 23.4307 44.2544 24.507C43.214 25.5819 41.9855 26.4289 40.5689 27.055C39.1544 27.6815 37.6166 27.9947 35.9655 27.9947C35.752 27.9947 35.3766 27.9886 34.8464 27.9777C34.3161 27.9667 33.7067 27.912 33.0242 27.8202C32.2906 27.7154 31.5629 27.5726 30.8441 27.3923C30.0919 27.2107 29.3611 26.9496 28.6641 26.6135L34.7943 0.854406L40.2849 0.00390625L38.09 9.1446C38.5465 8.93829 39.0202 8.77257 39.5057 8.64935C40.0041 8.52821 40.5158 8.46826 41.0287 8.47084ZM36.4231 23.639C37.25 23.639 38.0287 23.4355 38.7611 23.0365C39.4973 22.6341 40.1433 22.0853 40.6594 21.4239C41.1988 20.7343 41.6233 19.9621 41.9164 19.1371C42.2237 18.2843 42.3798 17.3844 42.3775 16.478C42.3775 15.344 42.1881 14.4611 41.8105 13.821C41.4329 13.1845 40.7342 12.8642 39.7192 12.8642C39.3867 12.8642 38.9589 12.9277 38.4278 13.041C37.8949 13.1613 37.418 13.4111 36.9906 13.7869L34.653 23.4942C34.7939 23.5191 34.9186 23.5427 35.0249 23.565C35.129 23.5891 35.2436 23.6062 35.3587 23.618C35.4799 23.6315 35.6186 23.6385 35.7861 23.6385L36.4231 23.639ZM53.3137 27.5021H48.0694L52.4982 8.86591H57.7784L53.3137 27.5021ZM55.8656 6.59528C55.1502 6.60122 54.4527 6.37118 53.8811 5.94078C53.2874 5.50678 52.993 4.83872 52.993 3.93834C52.993 3.44309 53.0936 2.97847 53.2936 2.54009C53.4868 2.11544 53.7577 1.73067 54.0924 1.40566C54.4279 1.08546 54.8175 0.827276 55.2431 0.643094C55.686 0.453807 56.1631 0.357607 56.6448 0.360469C57.3763 0.360469 58.0361 0.578344 58.6276 1.01497C59.2164 1.45378 59.5126 2.12184 59.5126 3.01741C59.5155 3.50081 59.4125 3.97897 59.2108 4.41828C59.0194 4.84335 58.7492 5.22829 58.4145 5.55272C58.0798 5.87333 57.69 6.13092 57.2639 6.31309C56.8255 6.50472 56.3609 6.59528 55.8656 6.59528ZM62.3743 4.22272L67.8671 3.37178L66.5183 8.86503H72.4009L71.3387 13.1867H65.4915L63.934 19.7054C63.7905 20.2483 63.7091 20.7558 63.6864 21.2279C63.6601 21.7017 63.7205 22.1086 63.8623 22.4512C64.0031 22.7946 64.256 23.0593 64.6235 23.2461C64.9897 23.4364 65.5134 23.5322 66.2002 23.5322C66.7659 23.5322 67.3176 23.4784 67.8496 23.3717C68.3962 23.2633 68.9343 23.1156 69.4596 22.9298L69.8516 26.9701C69.099 27.2426 68.3298 27.4669 67.5486 27.6417C66.7204 27.8324 65.74 27.9238 64.6069 27.9238C62.9776 27.9238 61.7146 27.6819 60.8146 27.2007C59.916 26.7159 59.2808 26.0527 58.9006 25.2135C58.5256 24.3779 58.3581 23.4141 58.4049 22.3278C58.453 21.2393 58.6175 20.0948 58.9006 18.8903L62.3743 4.22272ZM72.1704 20.0607C72.1704 18.455 72.4302 16.9417 72.9491 15.5242C73.4676 14.1058 74.2144 12.8655 75.183 11.8015C76.1486 10.7428 77.325 9.90322 78.7101 9.28722C80.0874 8.67472 81.6309 8.36584 83.331 8.36584C84.3959 8.36584 85.3466 8.46647 86.1835 8.66816C87.0235 8.87159 87.783 9.13453 88.4703 9.46441L86.6621 13.5769C86.1801 13.3832 85.6895 13.2118 85.1917 13.0633C84.6842 12.9071 84.0651 12.8318 83.3323 12.8318C81.5814 12.8318 80.1981 13.4356 79.1682 14.6378C78.1418 15.8414 77.6251 17.4615 77.6251 19.4941C77.6251 20.6985 77.8854 21.672 78.4069 22.417C78.9258 23.1621 79.8844 23.5331 81.2761 23.5331C81.9625 23.5331 82.6257 23.4613 83.2606 23.3213C83.9002 23.1796 84.465 23.0011 84.9624 22.7902L85.3544 27.006C84.6369 27.2812 83.9033 27.5126 83.1577 27.699C82.3527 27.8958 81.3959 27.9973 80.286 27.9973C78.8212 27.9973 77.5805 27.7834 76.5664 27.3608C75.5514 26.9325 74.7127 26.3633 74.0516 25.6423C73.3875 24.9195 72.9111 24.0752 72.6162 23.107C72.3213 22.1388 72.1704 21.1207 72.1704 20.0607ZM95.4672 27.996C94.2156 27.996 93.1279 27.8053 92.2057 27.4277C91.2861 27.0506 90.5248 26.5203 89.9219 25.8335C89.3182 25.1501 88.8671 24.3403 88.5578 23.4071C88.2485 22.4743 88.0997 21.4414 88.0997 20.3096C88.0997 18.8903 88.3273 17.4711 88.7884 16.0549C89.2473 14.6374 89.9276 13.3625 90.8271 12.2298C91.7209 11.0954 92.8234 10.1679 94.1202 9.44472C95.4165 8.72634 96.9071 8.36497 98.5823 8.36497C99.8112 8.36497 100.892 8.55616 101.828 8.93372C102.758 9.31041 103.525 9.84459 104.131 10.528C104.73 11.2148 105.186 12.0212 105.491 12.9561C105.8 13.8867 105.952 14.9222 105.952 16.0549C105.952 17.4698 105.727 18.8899 105.282 20.3092C104.835 21.7223 104.172 22.9998 103.297 24.1347C102.424 25.2678 101.332 26.1944 100.02 26.9145C98.7109 27.6351 97.1914 27.996 95.4672 27.996ZM98.0879 12.8323C97.3104 12.8323 96.6231 13.0576 96.0347 13.5034C95.4441 13.9545 94.9484 14.5219 94.5485 15.2053C94.1442 15.8922 93.845 16.6412 93.6424 17.4553C93.4412 18.2713 93.3428 19.0435 93.3428 19.7754C93.3428 20.958 93.5339 21.8798 93.9084 22.5422C94.2882 23.201 94.9716 23.5331 95.9638 23.5331C96.7439 23.5331 97.4281 23.3087 98.0196 22.8585C98.6068 22.4109 99.1038 21.8435 99.5062 21.1579C99.9079 20.4754 100.21 19.7238 100.413 18.9078C100.611 18.0945 100.712 17.3188 100.712 16.5873C100.712 15.4078 100.522 14.4847 100.143 13.8228C99.7661 13.1635 99.0797 12.8323 98.0879 12.8323ZM111.667 27.5021H106.419L110.848 8.86591H116.13L111.667 27.5021ZM114.215 6.59528C113.501 6.60132 112.804 6.37125 112.233 5.94078C111.642 5.50678 111.345 4.83872 111.345 3.93834C111.345 3.44309 111.447 2.97847 111.647 2.54009C111.839 2.11493 112.11 1.72999 112.445 1.40566C112.781 1.08534 113.171 0.827157 113.597 0.643094C114.038 0.453771 114.514 0.357555 114.994 0.360469C115.727 0.360469 116.389 0.578344 116.98 1.01497C117.57 1.45378 117.867 2.12184 117.867 3.01741C117.867 3.51441 117.761 3.98078 117.563 4.41828C117.365 4.85578 117.099 5.23247 116.769 5.55272C116.433 5.87257 116.044 6.13006 115.618 6.31309C115.178 6.50472 114.714 6.59528 114.215 6.59528ZM119.91 9.71334C120.308 9.59697 120.753 9.45697 121.236 9.30472C121.773 9.13809 122.318 8.99734 122.869 8.88297C123.468 8.75172 124.144 8.64453 124.887 8.56184C125.63 8.47741 126.477 8.43628 127.418 8.43628C130.184 8.43628 132.09 9.24172 133.143 10.8478C134.195 12.4538 134.377 14.6514 133.694 17.4378L131.282 27.5003H126.003L128.341 17.6492C128.484 17.0345 128.595 16.4395 128.678 15.8585C128.762 15.2827 128.757 14.7748 128.66 14.336C128.574 13.9153 128.343 13.5383 128.006 13.2715C127.66 13.0007 127.137 12.8647 126.429 12.8647C125.727 12.8674 125.027 12.9395 124.339 13.0799L120.902 27.499H115.621L119.91 9.71334Z" fill="#4D4D4D"/>
</g>
<defs>
<clipPath id="clip0_8835_25577">
<rect width="134.1" height="28" fill="white"/>
</clipPath>
</defs>
</svg>
