<svg width="92" height="92" viewBox="0 0 92 92" fill="none" xmlns="http://www.w3.org/2000/svg">
<circle opacity="0.1" cx="46" cy="46" r="46" fill="#348C41"/>
<g clip-path="url(#clip0_9433_62552)">
<path d="M39.8508 64.2903H34.5381C31.9839 64.2903 30.066 61.9635 30.5464 59.4598L32.7631 47.9076C33.9998 41.4625 40.6013 37.5043 46.8778 39.4766C47.5917 39.7009 48.3522 39.3041 48.5765 38.5903C48.8 37.879 48.4066 37.1217 47.6976 36.8944C48.6574 35.0837 48.0484 32.8051 46.2417 31.7286L48.8294 27.0059C49.323 26.1048 48.6701 25 47.6411 25H38.8347C37.8071 25 37.1521 26.1035 37.6465 27.0058L40.2342 31.7285C38.3489 32.8519 37.7831 35.266 38.8882 37.0894C34.4577 38.7059 31.0314 42.5527 30.1019 47.3971L27.8853 58.9493C27.083 63.1301 30.2893 67 34.5381 67H39.8508C40.599 67 41.2057 66.3935 41.2057 65.6452C41.2057 64.8969 40.5991 64.2903 39.8508 64.2903ZM45.3539 27.7097L43.4516 31.1815H43.0244L41.122 27.7097H45.3539ZM42.2218 36.2621C41.5681 36.2621 41.0363 35.7303 41.0363 35.0766C41.0363 34.4248 41.566 33.8911 42.2225 33.8911H44.2447C44.9288 33.8911 45.4395 34.4406 45.4395 35.0766C45.4395 35.7303 44.9078 36.2621 44.254 36.2621H42.2218ZM55.5813 49.7454C56.1104 50.2744 56.1104 51.1323 55.5813 51.6614L48.8994 58.3433C48.6348 58.6078 48.2882 58.7401 47.9414 58.7401C46.7453 58.7401 46.1274 57.2833 46.9834 56.4273L53.6652 49.7455C54.1943 49.2163 55.0522 49.2163 55.5813 49.7454ZM54.0664 55.585C53.0737 55.585 52.2661 56.3925 52.2661 57.3853C52.2661 58.378 53.0737 59.1855 54.0664 59.1855C55.0591 59.1855 55.8667 58.378 55.8667 57.3853C55.8667 56.3925 55.0591 55.585 54.0664 55.585ZM48.4982 52.5037C49.4909 52.5037 50.2986 51.6962 50.2986 50.7034C50.2986 49.7107 49.4909 48.9032 48.4982 48.9032C47.5056 48.9032 46.6979 49.7107 46.6979 50.7034C46.6979 51.6962 47.5055 52.5037 48.4982 52.5037ZM51.2823 41.0887C44.1385 41.0887 38.3266 46.9006 38.3266 54.0444C38.3266 61.1881 44.1385 67 51.2823 67C58.426 67 64.2379 61.1881 64.2379 54.0444C64.2379 46.9006 58.4261 41.0887 51.2823 41.0887ZM51.2823 64.2903C45.6326 64.2903 41.0363 59.694 41.0363 54.0444C41.0363 48.3947 45.6326 43.7984 51.2823 43.7984C56.9319 43.7984 61.5282 48.3947 61.5282 54.0444C61.5282 59.694 56.9319 64.2903 51.2823 64.2903Z" fill="#348C41"/>
</g>
<defs>
<clipPath id="clip0_9433_62552">
<rect width="42" height="42" fill="white" transform="translate(25 25)"/>
</clipPath>
</defs>
</svg>
