<svg width="92" height="92" viewBox="0 0 92 92" fill="none" xmlns="http://www.w3.org/2000/svg">
<circle cx="46" cy="46" r="46" fill="#E6F0F8"/>
<g clip-path="url(#clip0_9433_62556)">
<path d="M61.75 32H56.5V28.5C56.5 27.5717 56.1313 26.6815 55.4749 26.0251C54.8185 25.3687 53.9283 25 53 25H39C38.0717 25 37.1815 25.3687 36.5251 26.0251C35.8687 26.6815 35.5 27.5717 35.5 28.5V32H30.25C28.8576 32 27.5223 32.5531 26.5377 33.5377C25.5531 34.5223 25 35.8576 25 37.25V67H67V37.25C67 35.8576 66.4469 34.5223 65.4623 33.5377C64.4777 32.5531 63.1424 32 61.75 32ZM39 28.5H53V32H39V28.5ZM30.25 35.5H61.75C62.2141 35.5 62.6592 35.6844 62.9874 36.0126C63.3156 36.3408 63.5 36.7859 63.5 37.25V46H28.5V37.25C28.5 36.7859 28.6844 36.3408 29.0126 36.0126C29.3408 35.6844 29.7859 35.5 30.25 35.5ZM28.5 63.5V49.5H44.25V53H47.75V49.5H63.5V63.5H28.5Z" fill="#0066B3"/>
</g>
<defs>
<clipPath id="clip0_9433_62556">
<rect width="42" height="42" fill="white" transform="translate(25 25)"/>
</clipPath>
</defs>
</svg>
