<svg width="32" height="32" viewBox="0 0 32 32" fill="none" xmlns="http://www.w3.org/2000/svg">
<rect width="32" height="32" rx="16" fill="#75C882" fill-opacity="0.15"/>
<g clip-path="url(#clip0_8735_19318)">
<path d="M22 9.33333H20V8H18.6667V9.33333H13.3333V8H12V9.33333H10C9.46957 9.33333 8.96086 9.54405 8.58579 9.91912C8.21071 10.2942 8 10.8029 8 11.3333V24H24V11.3333C24 10.8029 23.7893 10.2942 23.4142 9.91912C23.0391 9.54405 22.5304 9.33333 22 9.33333ZM9.33333 11.3333C9.33333 11.1565 9.40357 10.987 9.5286 10.8619C9.65362 10.7369 9.82319 10.6667 10 10.6667H22C22.1768 10.6667 22.3464 10.7369 22.4714 10.8619C22.5964 10.987 22.6667 11.1565 22.6667 11.3333V13.3333H9.33333V11.3333ZM9.33333 22.6667V14.6667H22.6667V22.6667H9.33333Z" fill="#348C41"/>
<path d="M19.3333 16.6665H18V17.9998H19.3333V16.6665Z" fill="#348C41"/>
<path d="M16.6654 16.6665H15.332V17.9998H16.6654V16.6665Z" fill="#348C41"/>
<path d="M14.0013 16.6665H12.668V17.9998H14.0013V16.6665Z" fill="#348C41"/>
<path d="M19.3333 19.3335H18V20.6668H19.3333V19.3335Z" fill="#348C41"/>
<path d="M16.6654 19.3335H15.332V20.6668H16.6654V19.3335Z" fill="#348C41"/>
<path d="M14.0013 19.3335H12.668V20.6668H14.0013V19.3335Z" fill="#348C41"/>
</g>
<defs>
<clipPath id="clip0_8735_19318">
<rect width="16" height="16" fill="white" transform="translate(8 8)"/>
</clipPath>
</defs>
</svg>
