<svg width="19" height="20" viewBox="0 0 19 20" fill="none" xmlns="http://www.w3.org/2000/svg">
<mask id="path-1-inside-1_1_32853" fill="white">
<path d="M14.25 5.25C14.25 3.99022 13.7496 2.78204 12.8588 1.89124C11.968 1.00044 10.7598 0.5 9.5 0.5C8.24022 0.5 7.03204 1.00044 6.14124 1.89124C5.25045 2.78204 4.75 3.99022 4.75 5.25H0V17.125C0 17.7549 0.250222 18.359 0.695621 18.8044C1.14102 19.2498 1.74511 19.5 2.375 19.5H16.625C17.2549 19.5 17.859 19.2498 18.3044 18.8044C18.7498 18.359 19 17.7549 19 17.125V5.25H14.25ZM9.5 2.08333C10.3399 2.08333 11.1453 2.41696 11.7392 3.01083C12.333 3.60469 12.6667 4.41015 12.6667 5.25H6.33333C6.33333 4.41015 6.66696 3.60469 7.26083 3.01083C7.85469 2.41696 8.66015 2.08333 9.5 2.08333ZM17.4167 17.125C17.4167 17.335 17.3333 17.5363 17.1848 17.6848C17.0363 17.8333 16.835 17.9167 16.625 17.9167H2.375C2.16504 17.9167 1.96367 17.8333 1.81521 17.6848C1.66674 17.5363 1.58333 17.335 1.58333 17.125V6.83333H4.75V8.41667H6.33333V6.83333H12.6667V8.41667H14.25V6.83333H17.4167V17.125Z"/>
</mask>
<path d="M14.25 5.25C14.25 3.99022 13.7496 2.78204 12.8588 1.89124C11.968 1.00044 10.7598 0.5 9.5 0.5C8.24022 0.5 7.03204 1.00044 6.14124 1.89124C5.25045 2.78204 4.75 3.99022 4.75 5.25H0V17.125C0 17.7549 0.250222 18.359 0.695621 18.8044C1.14102 19.2498 1.74511 19.5 2.375 19.5H16.625C17.2549 19.5 17.859 19.2498 18.3044 18.8044C18.7498 18.359 19 17.7549 19 17.125V5.25H14.25ZM9.5 2.08333C10.3399 2.08333 11.1453 2.41696 11.7392 3.01083C12.333 3.60469 12.6667 4.41015 12.6667 5.25H6.33333C6.33333 4.41015 6.66696 3.60469 7.26083 3.01083C7.85469 2.41696 8.66015 2.08333 9.5 2.08333ZM17.4167 17.125C17.4167 17.335 17.3333 17.5363 17.1848 17.6848C17.0363 17.8333 16.835 17.9167 16.625 17.9167H2.375C2.16504 17.9167 1.96367 17.8333 1.81521 17.6848C1.66674 17.5363 1.58333 17.335 1.58333 17.125V6.83333H4.75V8.41667H6.33333V6.83333H12.6667V8.41667H14.25V6.83333H17.4167V17.125Z" fill="#00192D"/>
<path d="M14.25 5.25H-7.08333V26.5833H14.25V5.25ZM9.5 0.5V-20.8333V0.5ZM4.75 5.25V26.5833H26.0833V5.25H4.75ZM0 5.25V-16.0833H-21.3333V5.25H0ZM0 17.125H-21.3333H0ZM2.375 19.5V40.8333V19.5ZM16.625 19.5V40.8333V19.5ZM19 17.125H40.3333H19ZM19 5.25H40.3333V-16.0833H19V5.25ZM12.6667 5.25V26.5833H34V5.25H12.6667ZM6.33333 5.25H-15V26.5833H6.33333V5.25ZM1.58333 17.125H-19.75H1.58333ZM1.58333 6.83333V-14.5H-19.75V6.83333H1.58333ZM4.75 6.83333H26.0833V-14.5H4.75V6.83333ZM4.75 8.41667H-16.5833V29.75H4.75V8.41667ZM6.33333 8.41667V29.75H27.6667V8.41667H6.33333ZM6.33333 6.83333V-14.5H-15V6.83333H6.33333ZM12.6667 6.83333H34V-14.5H12.6667V6.83333ZM12.6667 8.41667H-8.66667V29.75H12.6667V8.41667ZM14.25 8.41667V29.75H35.5833V8.41667H14.25ZM14.25 6.83333V-14.5H-7.08333V6.83333H14.25ZM17.4167 6.83333H38.75V-14.5H17.4167V6.83333ZM35.5833 5.25C35.5833 -1.66772 32.8353 -8.30212 27.9437 -13.1937L-2.22619 16.9762C-5.33617 13.8662 -7.08333 9.64817 -7.08333 5.25H35.5833ZM27.9437 -13.1937C23.0521 -18.0853 16.4177 -20.8333 9.5 -20.8333V21.8333C5.10183 21.8333 0.883794 20.0862 -2.22619 16.9762L27.9437 -13.1937ZM9.5 -20.8333C2.58227 -20.8333 -4.05213 -18.0853 -8.9437 -13.1937L21.2262 16.9762C18.1162 20.0862 13.8982 21.8333 9.5 21.8333V-20.8333ZM-8.9437 -13.1937C-13.8353 -8.30213 -16.5833 -1.66773 -16.5833 5.25H26.0833C26.0833 9.64818 24.3362 13.8662 21.2262 16.9762L-8.9437 -13.1937ZM4.75 -16.0833H0V26.5833H4.75V-16.0833ZM-21.3333 5.25V17.125H21.3333V5.25H-21.3333ZM-21.3333 17.125C-21.3333 23.4128 -18.8355 29.4431 -14.3893 33.8893L15.7806 3.71943C19.3359 7.27481 21.3333 12.0969 21.3333 17.125H-21.3333ZM-14.3893 33.8893C-9.94314 38.3355 -3.91283 40.8333 2.375 40.8333V-1.83333C7.40306 -1.83333 12.2252 0.164052 15.7806 3.71943L-14.3893 33.8893ZM2.375 40.8333H16.625V-1.83333H2.375V40.8333ZM16.625 40.8333C22.9128 40.8333 28.9431 38.3355 33.3893 33.8893L3.21943 3.71943C6.77482 0.16405 11.5969 -1.83333 16.625 -1.83333V40.8333ZM33.3893 33.8893C37.8355 29.4431 40.3333 23.4128 40.3333 17.125H-2.33333C-2.33333 12.0969 -0.33595 7.27482 3.21943 3.71943L33.3893 33.8893ZM40.3333 17.125V5.25H-2.33333V17.125H40.3333ZM19 -16.0833H14.25V26.5833H19V-16.0833ZM9.5 23.4167C4.6819 23.4167 0.061138 21.5027 -3.34577 18.0958L26.8241 -12.0741C22.2295 -16.6688 15.9978 -19.25 9.5 -19.25V23.4167ZM-3.34577 18.0958C-6.75269 14.6889 -8.66667 10.0681 -8.66667 5.25H34C34 -1.2478 31.4188 -7.47947 26.8241 -12.0741L-3.34577 18.0958ZM12.6667 -16.0833H6.33333V26.5833H12.6667V-16.0833ZM27.6667 5.25C27.6667 10.0681 25.7527 14.6889 22.3458 18.0958L-7.82412 -12.0741C-12.4188 -7.47947 -15 -1.2478 -15 5.25H27.6667ZM22.3458 18.0958C18.9389 21.5027 14.3181 23.4167 9.5 23.4167V-19.25C3.0022 -19.25 -3.22948 -16.6688 -7.82412 -12.0741L22.3458 18.0958ZM-3.91667 17.125C-3.91667 11.6771 -1.7525 6.4522 2.09985 2.59985L32.2697 32.7697C36.419 28.6205 38.75 22.9929 38.75 17.125H-3.91667ZM2.09985 2.59985C5.9522 -1.2525 11.1771 -3.41667 16.625 -3.41667V39.25C22.4929 39.25 28.1205 36.919 32.2697 32.7697L2.09985 2.59985ZM16.625 -3.41667H2.375V39.25H16.625V-3.41667ZM2.375 -3.41667C7.82295 -3.41667 13.0478 -1.25249 16.9002 2.59985L-13.2697 32.7697C-9.12047 36.919 -3.49287 39.25 2.375 39.25V-3.41667ZM16.9002 2.59985C20.7525 6.45217 22.9167 11.677 22.9167 17.125H-19.75C-19.75 22.9929 -17.419 28.6205 -13.2697 32.7697L16.9002 2.59985ZM22.9167 17.125V6.83333H-19.75V17.125H22.9167ZM1.58333 28.1667H4.75V-14.5H1.58333V28.1667ZM-16.5833 6.83333V8.41667H26.0833V6.83333H-16.5833ZM4.75 29.75H6.33333V-12.9167H4.75V29.75ZM27.6667 8.41667V6.83333H-15V8.41667H27.6667ZM6.33333 28.1667H12.6667V-14.5H6.33333V28.1667ZM-8.66667 6.83333V8.41667H34V6.83333H-8.66667ZM12.6667 29.75H14.25V-12.9167H12.6667V29.75ZM35.5833 8.41667V6.83333H-7.08333V8.41667H35.5833ZM14.25 28.1667H17.4167V-14.5H14.25V28.1667ZM-3.91667 6.83333V17.125H38.75V6.83333H-3.91667Z" fill="#00192D" mask="url(#path-1-inside-1_1_32853)"/>
</svg>
