<svg width="62" height="56" viewBox="0 0 62 56" fill="none" xmlns="http://www.w3.org/2000/svg">
<path d="M27.1367 23.6028L29.7051 26.1712C30.0514 25.8261 30.5116 25.6348 31.0008 25.6348C31.49 25.6348 31.9502 25.8261 32.2965 26.1712L34.8649 23.6028C33.8332 22.5711 32.46 22.002 31.0008 22.002C29.5416 22.002 28.1684 22.5711 27.1367 23.6028Z" fill="#0066B3"/>
<path d="M30.9993 18.3379C33.4369 18.3379 35.7292 19.2873 37.4536 21.0116L40.022 18.4432C37.6122 16.0323 34.408 14.7051 30.9993 14.7051C27.5905 14.7051 24.3863 16.0323 21.9766 18.4432L24.545 21.0116C26.2693 19.2873 28.5616 18.3379 30.9993 18.3379Z" fill="#0066B3"/>
<path d="M15.303 10.4414H7.94702L7.31055 29.6145H15.9394L15.303 10.4414Z" fill="#0066B3"/>
<path d="M0 33.248V45.519H62V33.248H0ZM14.5767 41.4421H7.2959V37.8093H14.5767V41.4421ZM25.5205 41.4421H18.2397V37.8093H25.5205V41.4421ZM40.1123 41.4421H36.4795V37.8093H40.1123V41.4421ZM47.4082 41.4421H43.7754V37.8093H47.4082V41.4421ZM54.7041 41.4421H51.0713V37.8093H54.7041V41.4421Z" fill="#348C41"/>
<path d="M54.053 10.4414H46.697L46.0605 29.6145H54.6894L54.053 10.4414Z" fill="#0066B3"/>
<path d="M14.9863 0.875H8.26538L8.06836 6.80859H15.1833L14.9863 0.875Z" fill="#0066B3"/>
<path d="M7.75069 55.1243H54.2507L57.2377 49.1504H4.76367L7.75069 55.1243Z" fill="#348C41"/>
<path d="M53.7363 0.875H47.0154L46.8184 6.80859H53.9333L53.7363 0.875Z" fill="#0066B3"/>
</svg>
