<svg width="62" height="62" viewBox="0 0 62 62" fill="none" xmlns="http://www.w3.org/2000/svg">
<g clip-path="url(#clip0_9042_33195)">
<path d="M9.21208 41.041L2.40625 47.8468L16.5599 62.0005L23.3658 55.1947L9.21208 41.041ZM17.83 58.077C16.9396 58.077 16.2177 57.3551 16.2177 56.4647C16.2176 55.5742 16.9394 54.8525 17.83 54.8525C18.7204 54.8525 19.4422 55.5743 19.4422 56.4647C19.4422 57.3551 18.7204 58.077 17.83 58.077Z" fill="#348C41"/>
<path d="M58.2347 25.6063C56.5403 24.0284 53.8729 24.1497 52.2357 25.7869L42.7639 35.2587L42.7449 35.2615C43.1378 34.6504 43.3778 33.934 43.4054 33.1596C43.4918 30.7303 41.5481 28.7338 39.1382 28.7338H28.9193C26.004 28.7338 23.2082 29.892 21.1468 31.9534L13.2266 39.8736L22.6843 49.3314L24.3662 47.6495H37.8975C40.8127 47.6495 43.6086 46.4914 45.67 44.43L58.3467 31.7533C60.0509 30.049 60.0136 27.263 58.2347 25.6063Z" fill="#348C41"/>
<path d="M47.53 14.1509C47.2222 12.8892 46.7238 11.7023 46.0672 10.6221L49.1875 6.7626L45.7016 3.2768L41.8421 6.39714C40.7619 5.74045 39.575 5.24215 38.3133 4.93433L37.7909 0H32.861L32.3385 4.93433C31.0768 5.24215 29.8899 5.74045 28.8097 6.39714L24.9502 3.2768L21.4643 6.76272L24.5846 10.6222C23.9279 11.7024 23.4296 12.8893 23.1218 14.151L18.1875 14.6735V19.6034L23.1218 20.1259C23.4296 21.3875 23.9279 22.5744 24.5846 23.6546L22.0168 26.8306C22.4391 26.605 22.8738 26.3995 23.3203 26.2146C25.1036 25.4759 26.9867 25.1014 28.917 25.1014H39.1359C41.3001 25.1014 43.3197 25.9591 44.8227 27.5166C44.912 27.6093 44.999 27.7037 45.0833 27.7997L47.4804 25.4026L46.0672 23.6546C46.7238 22.5744 47.2222 21.3875 47.53 20.1258L52.4643 19.6033V14.6734L47.53 14.1509ZM35.3259 22.9136C32.1363 22.9136 29.5507 20.328 29.5507 17.1384C29.5507 13.9488 32.1364 11.3632 35.3259 11.3632C38.5154 11.3632 41.1011 13.9488 41.1011 17.1384C41.1011 20.328 38.5155 22.9136 35.3259 22.9136Z" fill="#0066B3"/>
</g>
<defs>
<clipPath id="clip0_9042_33195">
<rect width="62" height="62" fill="white"/>
</clipPath>
</defs>
</svg>
