<svg width="62" height="62" viewBox="0 0 62 62" fill="none" xmlns="http://www.w3.org/2000/svg">
<path d="M2.06641 51.1001C2.30304 51.563 4.75307 52.6997 9.29974 52.6997C13.8629 52.6997 16.3161 51.5558 16.5331 51.0949V46.3281C14.2186 47.1789 11.765 47.5876 9.29974 47.533C6.83455 47.5877 4.38099 47.1794 2.06641 46.3292V51.1001Z" fill="#348C41"/>
<path d="M9.30022 45.4662C13.2802 45.4662 16.5067 44.7723 16.5067 43.9162C16.5067 43.0602 13.2802 42.3662 9.30022 42.3662C5.3202 42.3662 2.09375 43.0602 2.09375 43.9162C2.09375 44.7723 5.3202 45.4662 9.30022 45.4662Z" fill="#348C41"/>
<path d="M18.5996 50.6328V52.6995H24.8926C24.7686 52.0162 24.7686 51.3161 24.8926 50.6328H18.5996Z" fill="#348C41"/>
<path d="M2.06641 58.3831C2.26274 58.7809 4.72001 59.9331 9.29974 59.9331C13.8795 59.9331 16.3367 58.7809 16.5434 58.3221V53.5605C14.2258 54.413 11.7685 54.822 9.29974 54.7664C6.83455 54.8212 4.38099 54.4128 2.06641 53.5626V58.3831Z" fill="#348C41"/>
<path d="M45.4668 53.5626V58.3831C45.6631 58.7809 48.1204 59.9331 52.7001 59.9331C57.2799 59.9331 59.7371 58.7809 59.9438 58.3221V53.5605C57.6262 54.413 55.1689 54.822 52.7001 54.7664C50.2349 54.8212 47.7814 54.4128 45.4668 53.5626Z" fill="#348C41"/>
<path d="M52.6996 45.4672C56.6797 45.4672 59.9061 44.7732 59.9061 43.9172C59.9061 43.0611 56.6797 42.3672 52.6996 42.3672C48.7196 42.3672 45.4932 43.0611 45.4932 43.9172C45.4932 44.7732 48.7196 45.4672 52.6996 45.4672Z" fill="#348C41"/>
<path d="M52.7001 47.533C50.2349 47.5877 47.7814 47.1794 45.4668 46.3292V51.1001C45.7034 51.563 48.1535 52.6997 52.7001 52.6997C57.2468 52.6997 59.7165 51.5558 59.9386 51.0949V46.3281C57.6226 47.1795 55.1671 47.5882 52.7001 47.533Z" fill="#348C41"/>
<path d="M30.9995 55.7999C33.2823 55.7999 35.1329 53.9493 35.1329 51.6665C35.1329 49.3838 33.2823 47.5332 30.9995 47.5332C28.7168 47.5332 26.8662 49.3838 26.8662 51.6665C26.8662 53.9493 28.7168 55.7999 30.9995 55.7999Z" fill="#348C41"/>
<path d="M32.0335 45.5597V38.2334H29.9668V45.5597C30.6501 45.4357 31.3502 45.4357 32.0335 45.5597Z" fill="#348C41"/>
<path d="M49.1348 20.0653L49.1348 20.0653C48.5846 19.7545 48.1152 19.3188 47.7644 18.7933L47.7643 18.7933C47.4135 18.2677 47.191 17.6672 47.1148 17.0399C47.0387 16.4127 47.1109 15.7763 47.3258 15.182L47.3272 15.1783C47.5302 14.6192 47.6339 14.0289 47.6337 13.4341L47.6337 13.4263C47.6359 12.4088 47.3424 11.4126 46.7888 10.5588C46.2352 9.70509 45.4454 9.03067 44.5154 8.61761C43.5855 8.20456 42.5556 8.07068 41.551 8.23228C40.5464 8.39387 39.6104 8.84397 38.8569 9.5278L38.8492 9.53486L38.8413 9.54186C38.4349 9.9056 37.9591 10.1835 37.4427 10.3588C36.9262 10.5342 36.3797 10.6034 35.8358 10.5623L35.8223 10.5613L35.8089 10.5602C35.2596 10.5137 34.7257 10.3552 34.2401 10.0944C33.7545 9.83352 33.3275 9.47592 32.9855 9.04363L32.9816 9.03865C31.6403 7.33585 29.8016 6.0935 27.7213 5.48444C25.641 4.87538 23.4226 4.92992 21.3748 5.64046C19.3269 6.35101 17.5515 7.68221 16.2955 9.44886C15.0395 11.2155 14.3654 13.3297 14.367 15.4973L14.367 15.4996C14.367 15.6301 14.3758 15.7727 14.3931 16.0458L14.3936 16.0548L14.4112 16.3462L14.412 16.3592L14.4119 16.3592C14.47 17.3974 14.1249 18.418 13.4485 19.2079C12.773 19.9967 11.8192 20.4946 10.7859 20.5978L49.1348 20.0653ZM49.1348 20.0653C49.6747 20.3704 50.2776 20.5467 50.8965 20.5809M49.1348 20.0653L50.6105 17.4534C50.7514 17.533 50.9091 17.5784 51.0708 17.5859M51.0708 17.5859L50.8819 20.5799C50.8868 20.5802 50.8916 20.5806 50.8965 20.5809M51.0708 17.5859L50.9316 20.5827C50.9199 20.5821 50.9082 20.5815 50.8965 20.5809M51.0708 17.5859C53.469 17.7372 55.7155 18.8109 57.3396 20.5819C58.9637 22.3529 59.8392 24.6839 59.7827 27.0862C59.7262 29.4885 58.742 31.7756 57.0365 33.4684L50.8965 20.5809M50.8965 20.5809C52.5156 20.6868 54.0317 21.4133 55.1286 22.6095C56.2287 23.8092 56.8218 25.3882 56.7836 27.0156C56.7453 28.643 56.0786 30.1924 54.9232 31.339C53.7729 32.4806 52.2272 33.1349 50.6074 33.1663H11.3755C9.76431 33.1563 8.21806 32.5295 7.05479 31.4145C5.88988 30.2978 5.19783 28.7768 5.12135 27.165C5.04486 25.5532 5.58977 23.9734 6.64371 22.7516C7.69759 21.5297 9.18008 20.7589 10.7856 20.5978L50.8965 20.5809Z" stroke="#0066B3" stroke-width="6"/>
<path d="M43.4004 52.6995V50.6328H37.1074C37.2314 51.3161 37.2314 52.0162 37.1074 52.6995H43.4004Z" fill="#348C41"/>
</svg>
