<svg width="40" height="40" viewBox="0 0 40 40" fill="none" xmlns="http://www.w3.org/2000/svg">
<g clip-path="url(#clip0_8628_14582)">
<path d="M0.078125 17.5264V38.255L13.4037 27.8907L0.078125 17.5264Z" fill="#348C41"/>
<path d="M34.8438 12.1338V18.5069L38.7791 15.4461L34.8438 12.1338Z" fill="#348C41"/>
<path d="M20.7553 0.275215C20.3192 -0.0917383 19.6822 -0.0917383 19.2461 0.275215L16.1387 2.89061H23.8627L20.7553 0.275215Z" fill="#348C41"/>
<path d="M5.15609 12.1338L1.2207 15.4461L5.15609 18.5069V12.1338Z" fill="#348C41"/>
<path d="M15.7148 29.0625L1.65234 40H38.3483L24.2858 29.0625H15.7148Z" fill="#348C41"/>
<path d="M26.5957 27.8908L39.9213 38.2552V17.5264L26.5957 27.8908Z" fill="#348C41"/>
<path d="M19.7052 14.0127C18.7547 14.0127 17.7715 14.9369 17.7715 16.4835C17.7715 18.0558 18.7305 19.1121 19.6263 19.1121C20.5696 19.1121 21.3431 18.0084 21.3988 16.6207L21.4002 16.3261C21.3581 14.9571 20.673 14.0127 19.7052 14.0127Z" fill="#0066B3"/>
<path d="M24.2855 26.7188L32.5 20.3296V6.40625C32.5 5.75906 31.9753 5.23438 31.3281 5.23438H8.67188C8.02469 5.23438 7.5 5.75906 7.5 6.40625V20.3297L15.7145 26.7188H24.2855ZM11.7389 18.7428C11.1793 16.6151 11.4607 14.372 12.5314 12.4267C13.6016 10.4822 15.3457 9.04375 17.4423 8.37633C19.6543 7.67203 22.003 7.87953 24.0554 8.96055C26.1081 10.0416 27.6078 11.8601 28.278 14.0809C28.2817 14.093 28.2852 14.1052 28.2884 14.1173C28.7338 15.7861 28.602 17.3614 27.8607 19.2251C27.3597 20.4848 26.1313 21.8309 24.1864 21.8309C23.4808 21.8309 22.8041 21.5415 22.2812 21.0159C22.1574 20.8916 22.0459 20.7561 21.9461 20.6126C21.2893 21.1468 20.4928 21.4559 19.6258 21.4559C18.4931 21.4559 17.3919 20.906 16.6045 19.9473C15.8452 19.0229 15.4272 17.7928 15.4272 16.4835C15.4272 15.1684 15.872 13.9514 16.6798 13.057C17.4764 12.1749 18.579 11.669 19.7047 11.669C20.3238 11.669 20.9122 11.8166 21.4409 12.0946C21.5434 11.5514 22.0195 11.141 22.5913 11.141H22.5973C23.2445 11.1442 23.7666 11.6715 23.7634 12.3187L23.7311 18.8292C23.7301 19.0291 23.8091 19.2285 23.9426 19.3626C23.9888 19.4091 24.0819 19.487 24.1864 19.487C25.132 19.487 25.548 18.698 25.6828 18.3588C26.2302 16.9825 26.334 15.8988 26.0287 14.7398C25.5386 13.133 24.4505 11.8175 22.9633 11.0342C21.4708 10.2481 19.7623 10.0974 18.1533 10.6095C14.9815 11.6192 13.1596 14.9298 14.0056 18.1466C14.7081 20.8178 17.1227 22.7366 19.8775 22.8129C20.5244 22.8308 21.0345 23.3698 21.0165 24.0167C20.9989 24.6527 20.4778 25.1562 19.8457 25.1562C19.8347 25.1562 19.8238 25.156 19.8127 25.1557C17.9966 25.1055 16.204 24.4604 14.7648 23.3391C13.2697 22.1745 12.2234 20.5851 11.7389 18.7428Z" fill="#0066B3"/>
</g>
<defs>
<clipPath id="clip0_8628_14582">
<rect width="40" height="40" fill="white"/>
</clipPath>
</defs>
</svg>
