<svg width="62" height="62" viewBox="0 0 62 62" fill="none" xmlns="http://www.w3.org/2000/svg">
<path fill-rule="evenodd" clip-rule="evenodd" d="M31.7787 6.01321C26.9164 5.85129 22.004 7.17784 17.7628 10.0088C12.9994 13.1918 9.67046 17.8921 8.13713 23.1466C7.7137 23.0949 7.20664 23.1178 6.60456 23.288C4.35665 23.9258 2.66596 25.7678 1.90575 27.3901C0.919773 29.5042 0.503942 32.3002 0.942579 35.1867C1.37817 38.0641 2.59374 40.4359 4.11414 41.9084C5.63911 43.3817 7.36096 43.8606 9.07142 43.501C11.6181 42.9575 12.8808 42.5508 12.5243 40.1782L10.7978 28.6771C11.146 22.4526 14.3685 16.5929 19.7583 12.9896C26.9727 8.17066 36.4311 8.4793 43.3124 13.7619C48.0994 17.4322 50.8787 22.9315 51.1995 28.7045L49.9923 36.7497C47.2997 44.1183 40.6244 49.2223 32.8999 49.9468H27.7564C26.4291 49.9468 25.3603 51.0156 25.3603 52.3414V53.6049C25.3603 54.9314 26.4291 56.0003 27.7564 56.0003H34.2417C35.5683 56.0003 36.6325 54.9314 36.6325 53.6049V52.9443C42.4572 51.5227 47.5414 47.9429 50.8521 42.9507L52.9297 43.5018C54.6204 43.9404 56.3628 43.3817 57.887 41.9092C59.4074 40.4359 60.6222 38.0648 61.0586 35.1875C61.4987 32.301 61.0708 29.5095 60.0962 27.3908C59.1178 25.2722 57.6605 23.9266 55.9782 23.4439C55.2735 23.2409 54.5087 23.1664 53.8526 23.1466C52.466 18.3954 49.6115 14.0744 45.4973 10.9196C41.4522 7.81565 36.6409 6.17285 31.7787 6.01321Z" fill="#0066B3"/>
<path fill-rule="evenodd" clip-rule="evenodd" d="M39.3698 26.7042C41.084 26.7042 42.4737 28.0938 42.4775 29.8126C42.4737 31.5269 41.084 32.9204 39.3698 32.9204C37.6509 32.9204 36.2575 31.5269 36.2575 29.8126C36.2575 28.0946 37.6517 26.7042 39.3698 26.7042ZM30.9999 26.7042C32.718 26.7042 34.1076 28.0938 34.1076 29.8126C34.1076 31.5269 32.718 32.9204 30.9999 32.9204C29.2804 32.9204 27.8907 31.5269 27.8907 29.8126C27.8907 28.0946 29.2804 26.7042 30.9999 26.7042ZM22.6331 26.7042C24.3474 26.7042 25.7409 28.0938 25.7409 29.8126C25.7409 31.5269 24.3474 32.9204 22.6331 32.9204C20.9151 32.9204 19.5247 31.5269 19.5247 29.8126C19.5247 28.0946 20.9151 26.7042 22.6331 26.7042ZM30.9999 13.3535C21.8851 13.3535 14.54 20.4568 14.54 29.8126C14.54 34.3062 16.2391 38.2775 19.007 41.1913L18.0248 45.5944C17.701 47.0434 18.7059 48.018 20.0082 47.2927L24.3079 44.8943C26.3513 45.7815 28.6114 46.2718 30.9999 46.2718C40.1178 46.2718 47.4583 39.173 47.4583 29.8126C47.4583 20.4568 40.1178 13.3535 30.9999 13.3535Z" fill="#348C41"/>
</svg>
