<svg width="19" height="19" viewBox="0 0 19 19" fill="none" xmlns="http://www.w3.org/2000/svg">
<g clip-path="url(#clip0_9658_8279)">
<mask id="path-1-inside-1_9658_8279" fill="white">
<path d="M15.0418 6.33333V5.54167C15.0418 4.07193 14.4579 2.66238 13.4187 1.62312C12.3794 0.583853 10.9699 0 9.50012 0C8.03038 0 6.62083 0.583853 5.58157 1.62312C4.5423 2.66238 3.95845 4.07193 3.95845 5.54167V6.33333H1.58345V16.625C1.58345 17.2549 1.83367 17.859 2.27907 18.3044C2.72447 18.7498 3.32856 19 3.95845 19H15.0418C15.6717 19 16.2758 18.7498 16.7212 18.3044C17.1666 17.859 17.4168 17.2549 17.4168 16.625V6.33333H15.0418ZM5.54178 5.54167C5.54178 4.49185 5.95882 3.48503 6.70115 2.7427C7.44348 2.00037 8.4503 1.58333 9.50012 1.58333C10.5499 1.58333 11.5567 2.00037 12.2991 2.7427C13.0414 3.48503 13.4584 4.49185 13.4584 5.54167V6.33333H5.54178V5.54167ZM15.8334 16.625C15.8334 16.835 15.75 17.0363 15.6016 17.1848C15.4531 17.3333 15.2517 17.4167 15.0418 17.4167H3.95845C3.74849 17.4167 3.54712 17.3333 3.39866 17.1848C3.25019 17.0363 3.16678 16.835 3.16678 16.625V7.91667H15.8334V16.625Z"/>
</mask>
<path d="M15.0418 6.33333V5.54167C15.0418 4.07193 14.4579 2.66238 13.4187 1.62312C12.3794 0.583853 10.9699 0 9.50012 0C8.03038 0 6.62083 0.583853 5.58157 1.62312C4.5423 2.66238 3.95845 4.07193 3.95845 5.54167V6.33333H1.58345V16.625C1.58345 17.2549 1.83367 17.859 2.27907 18.3044C2.72447 18.7498 3.32856 19 3.95845 19H15.0418C15.6717 19 16.2758 18.7498 16.7212 18.3044C17.1666 17.859 17.4168 17.2549 17.4168 16.625V6.33333H15.0418ZM5.54178 5.54167C5.54178 4.49185 5.95882 3.48503 6.70115 2.7427C7.44348 2.00037 8.4503 1.58333 9.50012 1.58333C10.5499 1.58333 11.5567 2.00037 12.2991 2.7427C13.0414 3.48503 13.4584 4.49185 13.4584 5.54167V6.33333H5.54178V5.54167ZM15.8334 16.625C15.8334 16.835 15.75 17.0363 15.6016 17.1848C15.4531 17.3333 15.2517 17.4167 15.0418 17.4167H3.95845C3.74849 17.4167 3.54712 17.3333 3.39866 17.1848C3.25019 17.0363 3.16678 16.835 3.16678 16.625V7.91667H15.8334V16.625Z" fill="#404C56"/>
<path d="M15.0418 6.33333H-6.29155V27.6667H15.0418V6.33333ZM15.0418 5.54167L36.3751 5.54167L36.3751 5.54167L15.0418 5.54167ZM3.95845 5.54167L-17.3749 5.54167V5.54167H3.95845ZM3.95845 6.33333V27.6667H25.2918V6.33333H3.95845ZM1.58345 6.33333V-15H-19.7499V6.33333H1.58345ZM1.58345 16.625L-19.7499 16.625L1.58345 16.625ZM3.95845 19V40.3333V19ZM15.0418 19L15.0418 40.3333L15.0418 19ZM17.4168 16.625H38.7501H17.4168ZM17.4168 6.33333H38.7501V-15H17.4168V6.33333ZM5.54178 5.54167H-15.7916H5.54178ZM13.4584 6.33333V27.6667H34.7918V6.33333H13.4584ZM5.54178 6.33333H-15.7916V27.6667H5.54178V6.33333ZM3.16678 7.91667V-13.4167H-18.1666V7.91667H3.16678ZM15.8334 7.91667H37.1668V-13.4167H15.8334V7.91667ZM36.3751 6.33333V5.54167H-6.29155V6.33333H36.3751ZM36.3751 5.54167C36.3751 -1.58603 33.5436 -8.42179 28.5036 -13.4618L-1.66628 16.7081C-4.62779 13.7466 -6.29155 9.72988 -6.29155 5.54167L36.3751 5.54167ZM28.5036 -13.4618C23.4636 -18.5019 16.6278 -21.3333 9.50012 -21.3333L9.50012 21.3333C5.3119 21.3333 1.29523 19.6696 -1.66628 16.7081L28.5036 -13.4618ZM9.50012 -21.3333C2.37242 -21.3333 -4.46334 -18.5019 -9.50338 -13.4618L20.6665 16.7081C17.705 19.6696 13.6883 21.3333 9.50012 21.3333V-21.3333ZM-9.50338 -13.4618C-14.5434 -8.42179 -17.3749 -1.58603 -17.3749 5.54167L25.2918 5.54167C25.2918 9.72988 23.628 13.7465 20.6665 16.7081L-9.50338 -13.4618ZM-17.3749 5.54167V6.33333H25.2918V5.54167H-17.3749ZM3.95845 -15H1.58345V27.6667H3.95845V-15ZM-19.7499 6.33333V16.625H22.9168V6.33333H-19.7499ZM-19.7499 16.625C-19.7499 22.9128 -17.252 28.9431 -12.8059 33.3893L17.364 3.21943C20.9194 6.77481 22.9168 11.5969 22.9168 16.625L-19.7499 16.625ZM-12.8059 33.3893C-8.35969 37.8355 -2.32939 40.3333 3.95845 40.3333L3.95845 -2.33333C8.98651 -2.33333 13.8086 -0.335947 17.364 3.21943L-12.8059 33.3893ZM3.95845 40.3333H15.0418V-2.33333H3.95845V40.3333ZM15.0418 40.3333C21.3296 40.3333 27.3599 37.8355 31.8061 33.3893L1.63622 3.21943C5.1916 -0.33595 10.0137 -2.33333 15.0418 -2.33333L15.0418 40.3333ZM31.8061 33.3893C36.2523 28.9431 38.7501 22.9128 38.7501 16.625L-3.91655 16.625C-3.91655 11.5969 -1.91917 6.77482 1.63622 3.21943L31.8061 33.3893ZM38.7501 16.625V6.33333H-3.91655V16.625H38.7501ZM17.4168 -15H15.0418V27.6667H17.4168V-15ZM26.8751 5.54167C26.8751 10.1498 25.0445 14.5692 21.7861 17.8276L-8.38379 -12.3422C-13.1269 -7.59913 -15.7916 -1.1661 -15.7916 5.54167L26.8751 5.54167ZM21.7861 17.8276C18.5277 21.0861 14.1083 22.9167 9.50012 22.9167L9.50012 -19.75C2.79235 -19.75 -3.64069 -17.0853 -8.38379 -12.3422L21.7861 17.8276ZM9.50012 22.9167C4.89198 22.9167 0.472579 21.0861 -2.78586 17.8276L27.384 -12.3422C22.6409 -17.0853 16.2079 -19.75 9.50012 -19.75V22.9167ZM-2.78586 17.8276C-6.04431 14.5692 -7.87488 10.1498 -7.87488 5.54167H34.7918C34.7918 -1.1661 32.1271 -7.59913 27.384 -12.3422L-2.78586 17.8276ZM-7.87488 5.54167V6.33333H34.7918V5.54167H-7.87488ZM13.4584 -15H5.54178V27.6667H13.4584V-15ZM26.8751 6.33333V5.54167H-15.7916V6.33333H26.8751ZM-5.49988 16.625C-5.49988 11.1771 -3.33572 5.9522 0.516631 2.09985L30.6865 32.2697C34.8358 28.1205 37.1668 22.4929 37.1668 16.625H-5.49988ZM0.516631 2.09985C4.36898 -1.7525 9.59385 -3.91667 15.0418 -3.91667V38.75C20.9096 38.75 26.5372 36.419 30.6865 32.2697L0.516631 2.09985ZM15.0418 -3.91667H3.95845V38.75H15.0418V-3.91667ZM3.95845 -3.91667C9.4064 -3.91667 14.6313 -1.75249 18.4836 2.09985L-11.6863 32.2697C-7.53702 36.419 -1.90943 38.75 3.95845 38.75V-3.91667ZM18.4836 2.09985C22.3359 5.95216 24.5001 11.177 24.5001 16.625H-18.1666C-18.1666 22.4929 -15.8355 28.1205 -11.6863 32.2697L18.4836 2.09985ZM24.5001 16.625V7.91667H-18.1666V16.625H24.5001ZM3.16678 29.25H15.8334V-13.4167H3.16678V29.25ZM-5.49988 7.91667V16.625H37.1668V7.91667H-5.49988Z" fill="#404C56" mask="url(#path-1-inside-1_9658_8279)"/>
<path d="M10.2918 11.084H8.70847V14.2506H10.2918V11.084Z" fill="#404C56"/>
</g>
<defs>
<clipPath id="clip0_9658_8279">
<rect width="19" height="19" fill="white"/>
</clipPath>
</defs>
</svg>
