<svg width="19" height="19" viewBox="0 0 19 19" fill="none" xmlns="http://www.w3.org/2000/svg">
<g clip-path="url(#clip0_9658_8257)">
<mask id="path-1-inside-1_9658_8257" fill="white">
<path d="M16.625 0.791016H2.375C1.74511 0.791016 1.14102 1.04124 0.695621 1.48664C0.250222 1.93204 0 2.53613 0 3.16602L0 18.2077H19V3.16602C19 2.53613 18.7498 1.93204 18.3044 1.48664C17.859 1.04124 17.2549 0.791016 16.625 0.791016V0.791016ZM2.375 2.37435H16.625C16.835 2.37435 17.0363 2.45776 17.1848 2.60622C17.3333 2.75469 17.4167 2.95605 17.4167 3.16602V3.69406L11.1799 9.9316C10.7338 10.376 10.1297 10.6255 9.5 10.6255C8.8703 10.6255 8.26624 10.376 7.82008 9.9316L1.58333 3.69406V3.16602C1.58333 2.95605 1.66674 2.75469 1.81521 2.60622C1.96367 2.45776 2.16504 2.37435 2.375 2.37435V2.37435ZM1.58333 16.6244V5.93685L6.70067 11.051C7.44375 11.7922 8.45045 12.2085 9.5 12.2085C10.5495 12.2085 11.5563 11.7922 12.2993 11.051L17.4167 5.93685V16.6244H1.58333Z"/>
</mask>
<path d="M16.625 0.791016H2.375C1.74511 0.791016 1.14102 1.04124 0.695621 1.48664C0.250222 1.93204 0 2.53613 0 3.16602L0 18.2077H19V3.16602C19 2.53613 18.7498 1.93204 18.3044 1.48664C17.859 1.04124 17.2549 0.791016 16.625 0.791016V0.791016ZM2.375 2.37435H16.625C16.835 2.37435 17.0363 2.45776 17.1848 2.60622C17.3333 2.75469 17.4167 2.95605 17.4167 3.16602V3.69406L11.1799 9.9316C10.7338 10.376 10.1297 10.6255 9.5 10.6255C8.8703 10.6255 8.26624 10.376 7.82008 9.9316L1.58333 3.69406V3.16602C1.58333 2.95605 1.66674 2.75469 1.81521 2.60622C1.96367 2.45776 2.16504 2.37435 2.375 2.37435V2.37435ZM1.58333 16.6244V5.93685L6.70067 11.051C7.44375 11.7922 8.45045 12.2085 9.5 12.2085C10.5495 12.2085 11.5563 11.7922 12.2993 11.051L17.4167 5.93685V16.6244H1.58333Z" fill="#404C56"/>
<path d="M2.375 0.791016L2.375 -20.5423L2.375 0.791016ZM0 3.16602L-21.3333 3.16602L0 3.16602ZM0 18.2077H-21.3333V39.541H0V18.2077ZM19 18.2077V39.541H40.3333V18.2077H19ZM19 3.16602L40.3333 3.16602L19 3.16602ZM16.625 2.37435V-18.959V2.37435ZM17.4167 3.69406L32.5026 18.778L38.75 12.5298V3.69406H17.4167ZM11.1799 9.9316L26.2346 25.0468L26.2502 25.0312L26.2658 25.0156L11.1799 9.9316ZM7.82008 9.9316L-7.26582 25.0156L-7.25021 25.0312L-7.23457 25.0468L7.82008 9.9316ZM1.58333 3.69406H-19.75V12.5298L-13.5026 18.778L1.58333 3.69406ZM2.375 2.37435L2.375 -18.959L2.375 2.37435ZM1.58333 16.6244H-19.75V37.9577H1.58333V16.6244ZM1.58333 5.93685L16.6636 -9.15276L-19.75 -45.5438L-19.75 5.93685H1.58333ZM6.70067 11.051L-8.37961 26.1406L-8.3724 26.1478L-8.36518 26.155L6.70067 11.051ZM9.5 12.2085V-9.12487V12.2085ZM12.2993 11.051L27.3652 26.155L27.3724 26.1478L27.3796 26.1406L12.2993 11.051ZM17.4167 5.93685H38.75V-45.5438L2.33639 -9.15276L17.4167 5.93685ZM17.4167 16.6244V37.9577H38.75V16.6244H17.4167ZM16.625 -20.5423H2.375V22.1243H16.625V-20.5423ZM2.375 -20.5423C-3.91284 -20.5423 -9.94315 -18.0445 -14.3893 -13.5983L15.7806 16.5716C12.2252 20.127 7.40306 22.1243 2.375 22.1243L2.375 -20.5423ZM-14.3893 -13.5983C-18.8355 -9.15213 -21.3333 -3.12182 -21.3333 3.16602L21.3333 3.16602C21.3333 8.19408 19.3359 13.0162 15.7806 16.5716L-14.3893 -13.5983ZM-21.3333 3.16602V18.2077H21.3333V3.16602L-21.3333 3.16602ZM0 39.541H19V-3.12565H0V39.541ZM40.3333 18.2077V3.16602H-2.33333V18.2077H40.3333ZM40.3333 3.16602C40.3333 -3.12182 37.8355 -9.15213 33.3893 -13.5983L3.21943 16.5716C-0.335948 13.0162 -2.33333 8.19407 -2.33333 3.16602L40.3333 3.16602ZM33.3893 -13.5983C28.9431 -18.0445 22.9128 -20.5423 16.625 -20.5423L16.625 22.1243C11.5969 22.1243 6.77481 20.127 3.21943 16.5716L33.3893 -13.5983ZM2.375 23.7077H16.625V-18.959H2.375V23.7077ZM16.625 23.7077C11.177 23.7077 5.95217 21.5435 2.09985 17.6912L32.2697 -12.4787C28.1205 -16.628 22.4929 -18.959 16.625 -18.959L16.625 23.7077ZM2.09985 17.6912C-1.75249 13.8388 -3.91667 8.61396 -3.91667 3.16602H38.75C38.75 -2.70186 36.419 -8.32945 32.2697 -12.4787L2.09985 17.6912ZM-3.91667 3.16602V3.69406H38.75V3.16602H-3.91667ZM2.33076 -11.3899L-3.90599 -5.15239L26.2658 25.0156L32.5026 18.778L2.33076 -11.3899ZM-3.87473 -5.18358C-0.322613 -8.72148 4.48657 -10.7079 9.5 -10.7079V31.9588C15.7728 31.9588 21.7901 29.4734 26.2346 25.0468L-3.87473 -5.18358ZM9.5 -10.7079C14.5134 -10.7079 19.3226 -8.72148 22.8747 -5.18358L-7.23457 25.0468C-2.79012 29.4734 3.22717 31.9588 9.5 31.9588V-10.7079ZM22.906 -5.15239L16.6692 -11.3899L-13.5026 18.778L-7.26582 25.0156L22.906 -5.15239ZM22.9167 3.69406V3.16602H-19.75V3.69406H22.9167ZM22.9167 3.16602C22.9167 8.614 20.7525 13.8389 16.9002 17.6912L-13.2697 -12.4787C-17.419 -8.32948 -19.75 -2.7019 -19.75 3.16602H22.9167ZM16.9002 17.6912C13.0478 21.5435 7.82299 23.7077 2.375 23.7077L2.375 -18.959C-3.49291 -18.959 -9.12049 -16.628 -13.2697 -12.4787L16.9002 17.6912ZM22.9167 16.6244V5.93685H-19.75V16.6244H22.9167ZM-13.4969 21.0265L-8.37961 26.1406L21.7809 -4.0386L16.6636 -9.15276L-13.4969 21.0265ZM-8.36518 26.155C-3.62288 30.8853 2.80186 33.5418 9.5 33.5418V-9.12487C14.099 -9.12487 18.5104 -7.30091 21.7665 -4.05301L-8.36518 26.155ZM9.5 33.5418C16.1981 33.5418 22.6229 30.8853 27.3652 26.155L-2.76651 -4.05301C0.489627 -7.30091 4.90095 -9.12487 9.5 -9.12487L9.5 33.5418ZM27.3796 26.1406L32.4969 21.0265L2.33639 -9.15276L-2.78094 -4.0386L27.3796 26.1406ZM-3.91667 5.93685V16.6244H38.75V5.93685H-3.91667ZM17.4167 -4.70898H1.58333V37.9577H17.4167V-4.70898Z" fill="#404C56" mask="url(#path-1-inside-1_9658_8257)"/>
</g>
<defs>
<clipPath id="clip0_9658_8257">
<rect width="19" height="19" fill="white"/>
</clipPath>
</defs>
</svg>
