<svg width="54" height="54" viewBox="0 0 54 54" fill="none" xmlns="http://www.w3.org/2000/svg">
<rect width="54" height="54" rx="27" fill="#E9F6FF"/>
<g clip-path="url(#clip0_8932_25296)">
<path d="M35.682 18.561L33.44 16.319C32.5946 15.4771 31.4511 15.0031 30.258 15H20.5C19.5717 15 18.6815 15.3687 18.0251 16.0251C17.3687 16.6815 17 17.5717 17 18.5V39H37V21.743C37.0014 21.1518 36.8857 20.5663 36.6595 20.0201C36.4332 19.4739 36.101 18.978 35.682 18.561ZM20 36V18.5C20 18.3674 20.0527 18.2402 20.1464 18.1464C20.2402 18.0527 20.3674 18 20.5 18H30V22H34V36H20ZM31 28H23V25H31V28ZM28.868 30.023L31.716 30.969C31.347 32.1 30.177 34 28.135 34C27.3084 33.9962 26.5071 33.7144 25.86 33.2C25.7665 33.1202 25.663 33.0529 25.552 33C25.2382 33.225 24.9673 33.5044 24.752 33.825L22.252 32.161C22.591 31.659 23.826 30 25.487 30C26.2558 30.0066 26.9998 30.273 27.598 30.756C27.898 30.973 27.952 31 28.135 31C28.339 31 28.721 30.45 28.868 30.023Z" fill="#219FFF"/>
</g>
<defs>
<clipPath id="clip0_8932_25296">
<rect width="24" height="24" fill="white" transform="translate(15 15)"/>
</clipPath>
</defs>
</svg>
