<svg width="30" height="30" viewBox="0 0 30 30" fill="none" xmlns="http://www.w3.org/2000/svg">
<g clip-path="url(#clip0_8734_19301)">
<path d="M29.7083 15.3453C29.7083 14.3257 29.6256 13.3005 29.4493 12.2974H15.3008V18.0736H23.4029C23.0667 19.9365 21.9864 21.5845 20.4046 22.6317V26.3797H25.2383C28.0768 23.7671 29.7083 19.909 29.7083 15.3453Z" fill="#4285F4"/>
<path d="M15.2989 29.9997C19.3445 29.9997 22.7562 28.6714 25.242 26.3785L20.4082 22.6306C19.0634 23.5455 17.3272 24.0636 15.3044 24.0636C11.3911 24.0636 8.07311 21.4235 6.88259 17.874H1.89453V21.7377C4.44092 26.8029 9.6274 29.9997 15.2989 29.9997Z" fill="#34A853"/>
<path d="M6.87896 17.8734C6.25063 16.0105 6.25063 13.9932 6.87896 12.1303V8.2666H1.89641C-0.231095 12.5051 -0.231095 17.4986 1.89641 21.7371L6.87896 17.8734Z" fill="#FBBC04"/>
<path d="M15.2989 5.93708C17.4374 5.90401 19.5043 6.70871 21.0531 8.18584L25.3356 3.90327C22.6239 1.35688 19.0248 -0.0430825 15.2989 0.00101083C9.6274 0.00101083 4.44092 3.19778 1.89453 8.26851L6.87708 12.1322C8.06209 8.57716 11.3856 5.93708 15.2989 5.93708Z" fill="#EA4335"/>
</g>
<defs>
<clipPath id="clip0_8734_19301">
<rect width="30" height="30" fill="white"/>
</clipPath>
</defs>
</svg>
