<svg width="24" height="24" viewBox="0 0 24 24" fill="none" xmlns="http://www.w3.org/2000/svg">
<path d="M0 12C0 5.37258 5.37258 0 12 0C18.6274 0 24 5.37258 24 12C24 18.6274 18.6274 24 12 24C5.37258 24 0 18.6274 0 12Z" fill="white"/>
<path d="M12.0016 5.25483C14.0669 5.25483 15.4601 6.14696 16.2544 6.89244L19.3585 3.86165C17.4521 2.08961 14.9712 1.00195 12.0016 1.00195C7.69979 1.00195 3.98463 3.47058 2.17593 7.06353L5.73222 9.82546C6.62435 7.17352 9.09298 5.25483 12.0016 5.25483Z" fill="#EA4335"/>
<path d="M22.5584 12.2447C22.5584 11.3404 22.4851 10.6805 22.3263 9.99609H11.9996V14.0779H18.0611C17.9389 15.0922 17.279 16.6198 15.8125 17.6464L19.2832 20.335C21.3608 18.4163 22.5584 15.5933 22.5584 12.2447Z" fill="#4285F4"/>
<path d="M5.74407 14.177C5.51187 13.4927 5.37744 12.7594 5.37744 12.0017C5.37744 11.244 5.51187 10.5108 5.73185 9.82638L2.17556 7.06445C1.43008 8.55541 1.00235 10.2297 1.00235 12.0017C1.00235 13.7737 1.43008 15.448 2.17556 16.939L5.74407 14.177Z" fill="#FBBC05"/>
<path d="M12.0001 22.9993C14.9698 22.9993 17.4628 22.0216 19.2837 20.3351L15.813 17.6465C14.8842 18.2942 13.6377 18.7464 12.0001 18.7464C9.0915 18.7464 6.62287 16.8277 5.74296 14.1758L2.18668 16.9377C3.99537 20.5307 7.69831 22.9993 12.0001 22.9993Z" fill="#34A853"/>
</svg>
