<svg width="29" height="28" viewBox="0 0 29 28" fill="none" xmlns="http://www.w3.org/2000/svg">
<g clip-path="url(#clip0_6_13167)">
<path d="M2.48279 3.76367V24.2508H14.427C22.3062 24.2508 25.723 19.8384 25.723 13.9872C25.723 8.15876 22.3062 3.76367 14.427 3.76367H2.48279Z" fill="white"/>
<path d="M3.77368 5.05566H14.4286C21.6604 5.05566 24.4323 9.00487 24.4323 13.9867C24.4323 19.9604 20.5614 22.9578 14.4286 22.9578H3.77368V5.05566ZM4.80661 6.0886V21.9255H14.4286C20.2377 21.9255 23.3984 19.2186 23.3984 13.9867C23.3984 8.60982 19.9722 6.08828 14.4286 6.08828H4.80661V6.0886Z" fill="black"/>
<path d="M6.0976 15.1523H9.17776V20.6344H6.0976V15.1523Z" fill="black"/>
<path d="M7.63731 14.3042C8.69454 14.3042 9.5516 13.4471 9.5516 12.3899C9.5516 11.3326 8.69454 10.4756 7.63731 10.4756C6.58008 10.4756 5.72302 11.3326 5.72302 12.3899C5.72302 13.4471 6.58008 14.3042 7.63731 14.3042Z" fill="black"/>
<path d="M15.6371 13.2854V14.1731H13.4424V10.6111H15.567V11.4984H14.3297V11.9108H15.4997V12.7985H14.3297V13.2857L15.6371 13.2854ZM16.0211 14.1737L17.0951 10.6098H18.3576L19.4312 14.1737H18.5076L18.3061 13.4844H17.1453L16.9435 14.1737H16.0211ZM17.4055 12.5977H18.0478L17.7532 11.5909H17.6995L17.4055 12.5977ZM19.8774 10.6101H20.7654V13.2857H22.0797C21.7191 8.43087 17.9006 7.38184 14.4289 7.38184H10.7288V10.612H11.2764C12.2749 10.612 12.8948 11.289 12.8948 12.3785C12.8948 13.5027 12.2898 14.1737 11.2764 14.1737H10.7288V20.6366H14.4292C20.071 20.6366 22.0358 18.0162 22.1053 14.1731H19.8774V10.6101ZM10.7282 11.4994V13.2857H11.2764C11.6563 13.2857 12.0075 13.1759 12.0075 12.3782C12.0075 11.5991 11.6168 11.4994 11.2764 11.4994H10.7282Z" fill="#D50072"/>
</g>
<defs>
<clipPath id="clip0_6_13167">
<rect width="28" height="28" fill="white" transform="translate(0.15387)"/>
</clipPath>
</defs>
</svg>
