<svg width="24" height="24" viewBox="0 0 24 24" fill="none" xmlns="http://www.w3.org/2000/svg">
<path d="M0 12C0 18.6274 5.37258 24 12 24C18.6274 24 24 18.6274 24 12C24 5.37258 18.6274 0 12 0C5.37258 0 0 5.37258 0 12Z" fill="#F00073"/>
<path d="M12 6.90039C13.65 6.90039 13.875 6.90039 14.55 6.90039C15.15 6.90039 15.45 7.05039 15.675 7.12539C15.975 7.27539 16.2 7.35039 16.425 7.57539C16.65 7.80039 16.8 8.02539 16.875 8.32539C16.95 8.55039 17.025 8.85039 17.1 9.45039C17.1 10.1254 17.1 10.2754 17.1 12.0004C17.1 13.7254 17.1 13.8754 17.1 14.5504C17.1 15.1504 16.95 15.4504 16.875 15.6754C16.725 15.9754 16.65 16.2004 16.425 16.4254C16.2 16.6504 15.975 16.8004 15.675 16.8754C15.45 16.9504 15.15 17.0254 14.55 17.1004C13.875 17.1004 13.725 17.1004 12 17.1004C10.275 17.1004 10.125 17.1004 9.44999 17.1004C8.84999 17.1004 8.54999 16.9504 8.32499 16.8754C8.02499 16.7254 7.79999 16.6504 7.57499 16.4254C7.34999 16.2004 7.19999 15.9754 7.12499 15.6754C7.04999 15.4504 6.97499 15.1504 6.89999 14.5504C6.89999 13.8754 6.89999 13.7254 6.89999 12.0004C6.89999 10.2754 6.89999 10.1254 6.89999 9.45039C6.89999 8.85039 7.04999 8.55039 7.12499 8.32539C7.27499 8.02539 7.34999 7.80039 7.57499 7.57539C7.79999 7.35039 8.02499 7.20039 8.32499 7.12539C8.54999 7.05039 8.84999 6.97539 9.44999 6.90039C10.125 6.90039 10.35 6.90039 12 6.90039ZM12 5.77539C10.275 5.77539 10.125 5.77539 9.44999 5.77539C8.77499 5.77539 8.32499 5.92539 7.94999 6.07539C7.57499 6.22539 7.19999 6.45039 6.82499 6.82539C6.44999 7.20039 6.29999 7.50039 6.07499 7.95039C5.92499 8.32539 5.84999 8.77539 5.77499 9.45039C5.77499 10.1254 5.77499 10.3504 5.77499 12.0004C5.77499 13.7254 5.77499 13.8754 5.77499 14.5504C5.77499 15.2254 5.92499 15.6754 6.07499 16.0504C6.22499 16.4254 6.44999 16.8004 6.82499 17.1754C7.19999 17.5504 7.49999 17.7004 7.94999 17.9254C8.32499 18.0754 8.77499 18.1504 9.44999 18.2254C10.125 18.2254 10.35 18.2254 12 18.2254C13.65 18.2254 13.875 18.2254 14.55 18.2254C15.225 18.2254 15.675 18.0754 16.05 17.9254C16.425 17.7754 16.8 17.5504 17.175 17.1754C17.55 16.8004 17.7 16.5004 17.925 16.0504C18.075 15.6754 18.15 15.2254 18.225 14.5504C18.225 13.8754 18.225 13.6504 18.225 12.0004C18.225 10.3504 18.225 10.1254 18.225 9.45039C18.225 8.77539 18.075 8.32539 17.925 7.95039C17.775 7.57539 17.55 7.20039 17.175 6.82539C16.8 6.45039 16.5 6.30039 16.05 6.07539C15.675 5.92539 15.225 5.85039 14.55 5.77539C13.875 5.77539 13.725 5.77539 12 5.77539Z" fill="white"/>
<path d="M12 8.77539C10.2 8.77539 8.77499 10.2004 8.77499 12.0004C8.77499 13.8004 10.2 15.2254 12 15.2254C13.8 15.2254 15.225 13.8004 15.225 12.0004C15.225 10.2004 13.8 8.77539 12 8.77539ZM12 14.1004C10.875 14.1004 9.89999 13.2004 9.89999 12.0004C9.89999 10.8754 10.8 9.90039 12 9.90039C13.125 9.90039 14.1 10.8004 14.1 12.0004C14.1 13.1254 13.125 14.1004 12 14.1004Z" fill="white"/>
<path d="M15.3 9.45039C15.7142 9.45039 16.05 9.1146 16.05 8.70039C16.05 8.28618 15.7142 7.95039 15.3 7.95039C14.8858 7.95039 14.55 8.28618 14.55 8.70039C14.55 9.1146 14.8858 9.45039 15.3 9.45039Z" fill="white"/>
</svg>
