<svg width="56" height="62" viewBox="0 0 56 62" fill="none" xmlns="http://www.w3.org/2000/svg">
<path fill-rule="evenodd" clip-rule="evenodd" d="M28.7046 8.35767C24.2985 8.21094 19.8469 9.41305 16.0036 11.9785C11.687 14.8628 8.67035 19.1222 7.28086 23.8838C6.89715 23.837 6.43766 23.8577 5.89206 24.012C3.85501 24.59 2.32293 26.2591 1.63404 27.7292C0.740548 29.645 0.363726 32.1788 0.761215 34.7945C1.15595 37.4019 2.25748 39.5513 3.63526 40.8856C5.01717 42.2207 6.5775 42.6547 8.1275 42.3289C10.4353 41.8363 11.5795 41.4677 11.2564 39.3177L9.69197 28.8955C10.0075 23.2549 12.9277 17.9449 17.8119 14.6796C24.3495 10.3127 32.9206 10.5924 39.1564 15.3795C43.4944 18.7055 46.0129 23.6889 46.3037 28.9203L45.2097 36.2108C42.7697 42.8882 36.7205 47.5134 29.7207 48.1699H25.0597C23.8569 48.1699 22.8883 49.1385 22.8883 50.3399V51.4849C22.8883 52.687 23.8569 53.6556 25.0597 53.6556H30.9366C32.1387 53.6556 33.1032 52.687 33.1032 51.4849V50.8862C38.3814 49.598 42.9887 46.354 45.9888 41.8301L47.8716 42.3295C49.4037 42.727 50.9826 42.2207 52.3638 40.8863C53.7416 39.5513 54.8424 37.4026 55.2379 34.7952C55.6367 32.1795 55.2489 29.6498 54.3657 27.7299C53.4791 25.81 52.1585 24.5907 50.634 24.1532C49.9954 23.9693 49.3024 23.9018 48.7079 23.8838C47.4514 19.5783 44.8646 15.6627 41.1363 12.8038C37.4707 9.99103 33.1107 8.50234 28.7046 8.35767Z" fill="#0066B3"/>
<path fill-rule="evenodd" clip-rule="evenodd" d="M35.5825 27.108C37.136 27.108 38.3953 28.3673 38.3987 29.9249C38.3953 31.4783 37.136 32.7411 35.5825 32.7411C34.0249 32.7411 32.7622 31.4783 32.7622 29.9249C32.7622 28.368 34.0256 27.108 35.5825 27.108ZM27.9979 27.108C29.5547 27.108 30.814 28.3673 30.814 29.9249C30.814 31.4783 29.5547 32.7411 27.9979 32.7411C26.4396 32.7411 25.1803 31.4783 25.1803 29.9249C25.1803 28.368 26.4396 27.108 27.9979 27.108ZM20.4159 27.108C21.9694 27.108 23.2321 28.3673 23.2321 29.9249C23.2321 31.4783 21.9694 32.7411 20.4159 32.7411C18.8591 32.7411 17.5991 31.4783 17.5991 29.9249C17.5991 28.368 18.8591 27.108 20.4159 27.108ZM27.9979 15.0098C19.7381 15.0098 13.082 21.4467 13.082 29.9249C13.082 33.9969 14.6217 37.5957 17.1299 40.2362L16.2399 44.2262C15.9464 45.5393 16.8571 46.4224 18.0372 45.7652L21.9336 43.5918C23.7853 44.3957 25.8334 44.84 27.9979 44.84C36.2604 44.84 42.9123 38.4072 42.9123 29.9249C42.9123 21.4467 36.2604 15.0098 27.9979 15.0098Z" fill="#348C41"/>
</svg>
