<svg width="62" height="62" viewBox="0 0 62 62" fill="none" xmlns="http://www.w3.org/2000/svg">
<path d="M17.5488 56.7265L23.3658 54.6668L29.1828 56.7265V47.9569C24.9408 47.6621 20.981 46.3439 17.5488 44.2461V56.7265Z" fill="#348C41"/>
<path d="M32.8164 61.9998L38.6334 59.9401L44.4504 61.9998V44.2461C41.0183 46.3439 37.0584 47.6621 32.8164 47.9569V61.9998Z" fill="#348C41"/>
<path d="M32.1743 21.1052L30.9985 18.7227L29.8227 21.1052L27.1934 21.4872L29.0959 23.3419L28.6467 25.9606L30.9985 24.7242L33.3502 25.9606L32.9011 23.3419L34.8036 21.4872L32.1743 21.1052Z" fill="#348C41"/>
<path d="M30.9991 0C18.7415 0 8.80469 9.93683 8.80469 22.1944C8.80469 34.452 18.7415 44.3889 30.9991 44.3889C43.2567 44.3889 53.1935 34.452 53.1935 22.1944C53.1935 9.93683 43.2567 0 30.9991 0ZM30.9991 38.4493C22.0361 38.4493 14.7442 31.1574 14.7442 22.1945C14.7442 13.2317 22.0361 5.93953 30.9991 5.93953C39.9621 5.93953 47.254 13.2316 47.254 22.1944C47.254 31.1573 39.9621 38.4493 30.9991 38.4493Z" fill="#0066B3"/>
<path d="M30.999 9.57227C24.0392 9.57227 18.377 15.2346 18.377 22.1944C18.377 29.1541 24.0392 34.8164 30.999 34.8164C37.9589 34.8164 43.6211 29.1542 43.6211 22.1945C43.6211 15.2347 37.9589 9.57227 30.999 9.57227ZM37.553 28.9714L34.9153 30.8878L30.999 28.8288L27.0827 30.8878L24.4451 28.9714L25.193 24.6105L22.0247 21.5222L23.0322 18.4216L27.4107 17.7853L29.3688 13.8177H32.6291L34.5872 17.7853L38.9657 18.4216L39.9732 21.5222L36.8049 24.6105L37.553 28.9714Z" fill="#0066B3"/>
</svg>
