<svg width="62" height="62" viewBox="0 0 62 62" fill="none" xmlns="http://www.w3.org/2000/svg">
<g clip-path="url(#clip0_9044_40047)">
<path d="M18.5612 35.8469L22.1868 32.2214C21.8202 29.5568 22.6611 26.7581 24.7096 24.7098C25.5783 23.8409 25.5783 22.4325 24.7096 21.5636C23.8407 20.6949 22.4324 20.6949 21.5637 21.5636C17.7021 25.4252 16.7013 31.0642 18.5612 35.8469Z" fill="#348C41"/>
<path d="M11.9354 42.4714L15.203 39.2038C11.7195 32.4995 12.7909 24.0431 18.4172 18.4166C19.2862 17.5479 19.2862 16.1394 18.4172 15.2707C17.5486 14.402 16.1401 14.402 15.2714 15.2707C7.89337 22.6488 6.78136 33.9198 11.9354 42.4714Z" fill="#348C41"/>
<path fill-rule="evenodd" clip-rule="evenodd" d="M-0.142578 31.0009C-0.142578 13.8008 13.8008 -0.142578 31.0009 -0.142578C48.2011 -0.142578 62.1445 13.8008 62.1445 31.0009C62.1445 48.2011 48.2011 62.1445 31.0009 62.1445C13.8008 62.1445 -0.142578 48.2011 -0.142578 31.0009ZM31.0009 4.3065C16.258 4.3065 4.3065 16.258 4.3065 31.0009C4.3065 37.5716 6.68043 43.5878 10.6174 48.2387L48.2387 10.6174C43.5878 6.68043 37.5716 4.3065 31.0009 4.3065ZM31.0009 57.6954C24.4303 57.6954 18.4143 55.3214 13.7634 51.3846L29.8489 35.299C31.3331 35.6954 32.9826 35.3114 34.1469 34.1469C35.3114 32.9826 35.6954 31.3331 35.299 29.8489L38.6676 26.4802C40.683 29.8925 40.2248 34.3611 37.2928 37.2928C36.4241 38.1615 36.4241 39.5701 37.2928 40.4388C38.1617 41.3074 39.5701 41.3074 40.4388 40.4388C45.1154 35.7623 45.5961 28.479 41.8814 23.2664L45.0605 20.0874C50.4939 27.0691 50.002 37.1676 43.5849 43.5847C42.716 44.4536 42.716 45.862 43.5849 46.7306C44.4536 47.5995 45.862 47.5995 46.7309 46.7306C54.8874 38.5744 55.3857 25.6598 48.2262 16.9218L51.3846 13.7634C55.3214 18.4143 57.6954 24.4303 57.6954 31.0009C57.6954 45.7438 45.7438 57.6954 31.0009 57.6954Z" fill="#0066B3"/>
</g>
<defs>
<clipPath id="clip0_9044_40047">
<rect width="62" height="62" fill="white"/>
</clipPath>
</defs>
</svg>
