<svg width="60" height="60" viewBox="0 0 60 60" fill="none" xmlns="http://www.w3.org/2000/svg">
<g clip-path="url(#clip0_9044_40052)">
<path d="M45 12.975V7.5C45 3.375 41.625 0 37.5 0H12.5C8.375 0 5 3.375 5 7.5V52.5C5 56.625 8.375 60 12.5 60H37.5C41.625 60 45 56.625 45 52.5V45.775C43.575 46.9 41.825 47.5 40 47.5V52.5C40 53.875 38.875 55 37.5 55H12.5C11.125 55 10 53.875 10 52.5V7.5C10 6.125 11.125 5 12.5 5H13.75C15.125 5 16.25 6.125 16.25 7.5C16.25 8.875 17.375 10 18.75 10H31.25C32.625 10 33.75 8.875 33.75 7.5C33.75 6.125 34.875 5 36.25 5H37.5C38.875 5 40 6.125 40 7.5V12.5C41.7 12.5 43.375 12.65 45 12.975Z" fill="#0066B3"/>
<path d="M39.9997 33.125C37.5847 33.125 35.5372 34.6625 34.7422 36.805L37.5722 40.0625C37.6047 40.1075 37.6372 40.15 37.6747 40.1925C38.2597 40.865 39.1072 41.25 39.9997 41.25C40.8922 41.25 41.7397 40.865 42.3247 40.1925C42.3622 40.15 42.3972 40.1075 42.4297 40.0625L45.2572 36.805C44.4622 34.6625 42.4147 33.125 39.9997 33.125Z" fill="#348C41"/>
<path d="M39.9991 25C35.5766 25 31.6141 27.0125 28.9766 30.165L32.0941 33.755C33.7566 31.1325 36.6691 29.375 39.9991 29.375C43.3291 29.375 46.2391 31.1325 47.9041 33.755L51.0216 30.165C48.3816 27.0125 44.4216 25 39.9991 25Z" fill="#348C41"/>
<path d="M26.5041 27.3175C29.8266 23.605 34.6366 21.25 39.9991 21.25C45.3616 21.25 50.1716 23.605 53.4941 27.3175L55.5291 24.975C56.1866 24.22 56.1316 23.08 55.4066 22.3875C51.2541 18.43 45.7816 16.25 39.9991 16.25C34.2166 16.25 28.7441 18.43 24.5916 22.3875C23.8666 23.0775 23.8116 24.22 24.4691 24.975L26.5041 27.3175Z" fill="#348C41"/>
</g>
<defs>
<clipPath id="clip0_9044_40052">
<rect width="60" height="60" fill="white"/>
</clipPath>
</defs>
</svg>
