<svg width="24" height="24" viewBox="0 0 24 24" fill="none" xmlns="http://www.w3.org/2000/svg">
<path d="M0 12C0 5.37258 5.37258 0 12 0C18.6274 0 24 5.37258 24 12C24 18.6274 18.6274 24 12 24C5.37258 24 0 18.6274 0 12Z" fill="#0077B5"/>
<path fill-rule="evenodd" clip-rule="evenodd" d="M8.65979 7.41135C8.65979 8.1959 8.06923 8.82367 7.121 8.82367H7.10362C6.19063 8.82367 5.6004 8.1959 5.6004 7.41135C5.6004 6.6102 6.20861 6 7.13892 6C8.06923 6 8.64213 6.6102 8.65979 7.41135ZM8.48035 9.93892V18.1098H5.76089V9.93892H8.48035ZM18.2878 18.1098L18.2879 13.4249C18.2879 10.9151 16.9463 9.74706 15.1568 9.74706C13.7129 9.74706 13.0665 10.5401 12.7055 11.0965V9.93914H9.98576C10.0216 10.7059 9.98576 18.11 9.98576 18.11H12.7055V13.5467C12.7055 13.3025 12.7232 13.0589 12.7951 12.8841C12.9916 12.3962 13.4392 11.8911 14.1905 11.8911C15.1749 11.8911 15.5684 12.6404 15.5684 13.7384V18.1098H18.2878Z" fill="white"/>
</svg>
