<svg width="40" height="40" viewBox="0 0 40 40" fill="none" xmlns="http://www.w3.org/2000/svg">
<g clip-path="url(#clip0_8623_13320)">
<path d="M20 0C12.9715 0 7.10938 5.66172 7.10938 12.8906C7.10938 15.6408 7.93578 18.0931 9.5218 20.3911L19.0135 35.202C19.474 35.922 20.527 35.9206 20.9865 35.202L30.5194 20.3407C32.0713 18.1469 32.8906 15.5709 32.8906 12.8906C32.8906 5.78273 27.1079 0 20 0ZM20 18.75C16.7693 18.75 14.1406 16.1213 14.1406 12.8906C14.1406 9.65992 16.7693 7.03125 20 7.03125C23.2307 7.03125 25.8594 9.65992 25.8594 12.8906C25.8594 16.1213 23.2307 18.75 20 18.75Z" fill="#348C41"/>
<path d="M29.1613 26.9292L23.2604 36.1547C21.733 38.5362 18.2585 38.5283 16.7384 36.157L10.828 26.9316C5.62766 28.134 2.42188 30.3365 2.42188 32.9687C2.42188 37.536 11.4788 39.9999 20 39.9999C28.5212 39.9999 37.5781 37.536 37.5781 32.9687C37.5781 30.3347 34.3679 28.1309 29.1613 26.9292Z" fill="#0066B3"/>
</g>
<defs>
<clipPath id="clip0_8623_13320">
<rect width="40" height="40" fill="white"/>
</clipPath>
</defs>
</svg>
