<svg width="45" height="28" viewBox="0 0 45 28" fill="none" xmlns="http://www.w3.org/2000/svg">
<g clip-path="url(#clip0_6_13227)">
<path d="M42.1304 0.0996094H2.58366C1.27971 0.0996094 0.222656 1.15667 0.222656 2.46061V25.5394C0.222656 26.8433 1.27971 27.9004 2.58366 27.9004H42.1304C43.4344 27.9004 44.4914 26.8433 44.4914 25.5394V2.46061C44.4914 1.15667 43.4344 0.0996094 42.1304 0.0996094Z" fill="#003D71"/>
<path d="M40.0646 14.0008C40.0646 19.8521 35.3219 24.5955 29.4706 24.5955C23.62 24.5955 18.8768 19.8521 18.8768 14.0008C18.8768 8.14892 23.62 3.40527 29.4706 3.40527C35.3219 3.40527 40.0646 8.14892 40.0646 14.0008Z" fill="#D9222A"/>
<path d="M21.287 20.7286C20.9943 20.3737 20.7248 19.9992 20.4798 19.6067H24.2345C24.4598 19.2469 24.6632 18.8723 24.8449 18.4844H19.8696C19.7002 18.1214 19.5494 17.7471 19.4213 17.363H25.2928C25.6462 16.3062 25.8376 15.1761 25.8376 14.0008C25.8376 13.2307 25.7554 12.4801 25.5997 11.7571H19.1151C19.1972 11.3746 19.3005 11.0006 19.4225 10.6351H25.2921C25.1632 10.2509 25.0134 9.87663 24.844 9.51338H19.8709C20.0524 9.12603 20.2562 8.75171 20.481 8.39141H24.2333C23.9886 8.00013 23.7183 7.62556 23.4264 7.27043H21.2882C21.617 6.87103 21.9746 6.49622 22.3573 6.14895C20.4771 4.44411 17.9813 3.40527 15.2438 3.40527C9.39269 3.40527 4.64954 8.14892 4.64954 14.0008C4.64954 19.8521 9.39269 24.5955 15.2438 24.5955C17.9818 24.5955 20.4773 23.5569 22.3573 21.8523C22.7407 21.5046 23.0985 21.1288 23.4276 20.7286H21.287Z" fill="#0097D0"/>
<path d="M38.6523 19.9056C38.6523 19.7167 38.8056 19.5635 38.9947 19.5635C39.1836 19.5635 39.3365 19.7167 39.3365 19.9056C39.3365 20.0947 39.1836 20.2479 38.9947 20.2479C38.8056 20.2479 38.6523 20.0947 38.6523 19.9056ZM38.9947 20.1658C39.1383 20.1658 39.2546 20.0497 39.2546 19.9056C39.2546 19.7619 39.1383 19.6461 38.9947 19.6461C38.8511 19.6461 38.7345 19.7619 38.7345 19.9056C38.7345 20.0497 38.8511 20.1658 38.9947 20.1658ZM38.9482 20.0558H38.8784V19.7553H39.0053C39.0316 19.7553 39.0586 19.7556 39.082 19.7706C39.1066 19.7873 39.1201 19.8163 39.1201 19.8456C39.1201 19.88 39.1002 19.9112 39.0682 19.9233L39.1233 20.0558H39.0456L38.9999 19.9373H38.9482V20.0558ZM38.9482 19.8859H38.9871C39.0016 19.8859 39.0168 19.8869 39.0299 19.88C39.0414 19.8724 39.0476 19.8584 39.0476 19.8451C39.0476 19.834 39.0402 19.8205 39.0306 19.8148C39.0181 19.8074 38.9986 19.8089 38.9856 19.8089H38.9482V19.8859Z" fill="black"/>
<path d="M22.2062 16.8636C21.7535 16.9836 21.3157 17.0422 20.8528 17.0412C19.3762 17.0397 18.6072 16.3673 18.6072 15.0816C18.6072 13.5789 19.5863 12.4736 20.9151 12.4736C22.0021 12.4736 22.6961 13.0934 22.6961 14.0641C22.6961 14.3863 22.6492 14.6999 22.5341 15.144H19.9082C19.8147 15.7717 20.2734 16.0474 21.054 16.0474C21.5218 16.0474 21.9448 15.9632 22.4131 15.7751L22.2062 16.8636ZM21.5001 14.2577C21.5001 14.1627 21.6462 13.4884 20.8863 13.4736C20.4667 13.4736 20.1657 13.7525 20.0439 14.2577H21.5001Z" fill="black"/>
<path d="M23.0959 13.9628C23.0959 14.5179 23.4085 14.9013 24.1187 15.1868C24.6618 15.4094 24.7473 15.4736 24.7473 15.6721C24.7473 15.9473 24.5073 16.0737 23.9746 16.0702C23.5745 16.0673 23.2095 16.0188 22.7786 15.8993L22.588 16.9118C22.9709 17.0006 23.5081 17.0299 23.984 17.0409C25.402 17.0409 26.0567 16.5766 26.0567 15.5732C26.0567 14.9701 25.7837 14.615 25.1103 14.3506C24.5474 14.1258 24.4812 14.0769 24.4812 13.8735C24.4812 13.6345 24.7043 13.5135 25.1394 13.5135C25.4028 13.5135 25.7638 13.5378 26.1061 13.5789L26.2985 12.5612C25.9495 12.5125 25.42 12.4736 25.1135 12.4736C23.6114 12.4736 23.0914 13.15 23.0959 13.9628Z" fill="black"/>
<path d="M17.8873 16.9686H16.7858L16.8121 16.507C16.4761 16.8712 16.0288 17.0407 15.4216 17.0407C14.7029 17.0407 14.2106 16.5493 14.2106 15.8427C14.2106 14.7687 15.0664 14.1492 16.5379 14.1492C16.6891 14.1492 16.8815 14.1605 17.0789 14.1824C17.1198 14.0388 17.1308 13.977 17.1308 13.8986C17.1308 13.6047 16.8994 13.4965 16.2801 13.4965C15.6697 13.4989 15.2578 13.5892 14.8756 13.692L15.0637 12.7063C15.7246 12.5383 16.1574 12.4736 16.6471 12.4736C17.7865 12.4736 18.3883 12.9203 18.3883 13.7601C18.3982 13.9842 18.3199 14.4338 18.2808 14.6305C18.2361 14.917 17.9203 16.5769 17.8873 16.9686ZM16.9206 15.0095C16.7809 14.9952 16.7201 14.9911 16.6247 14.9911C15.8734 14.9911 15.4924 15.2146 15.4924 15.6561C15.4924 15.933 15.6783 16.1066 15.968 16.1066C16.5079 16.1066 16.8977 15.6551 16.9206 15.0095Z" fill="black"/>
<path d="M28.3779 16.8989C28.0163 16.998 27.7347 17.041 27.43 17.041C26.7552 17.041 26.3868 16.6962 26.3868 16.0819C26.3656 15.9132 26.5304 15.134 26.5678 14.9169C26.6051 14.699 27.1897 11.5234 27.1897 11.5234H28.5008L28.3024 12.5741H28.9748L28.792 13.6466H28.1167C28.1167 13.6466 27.7461 15.5076 27.7461 15.6495C27.7461 15.8753 27.8828 15.9734 28.1966 15.9734C28.3469 15.9734 28.4627 15.9594 28.5525 15.9326L28.3779 16.8989Z" fill="black"/>
<path d="M34.2358 12.4731C33.2749 12.4731 32.5241 12.8686 32.088 13.5292L32.4665 12.5496C31.769 12.2936 31.3194 12.6588 30.9127 13.1782C30.9127 13.1782 30.8445 13.2645 30.7769 13.3435V12.5732H29.5457C29.379 13.9325 29.0841 15.3107 28.8534 16.6723L28.7979 16.9686H30.1222C30.2477 16.2775 30.3509 15.7165 30.4537 15.2694C30.7351 14.0424 31.2085 13.6674 31.9193 13.8332C31.7552 14.1861 31.6652 14.5941 31.6652 15.0464C31.6652 16.143 32.2609 17.0407 33.74 17.0407C35.2326 17.0407 36.3132 16.2433 36.3132 14.4254C36.3132 13.3287 35.5931 12.4731 34.2358 12.4731ZM33.8504 15.9743C33.3826 15.9817 33.0991 15.5891 33.0991 15.0021C33.0991 14.3061 33.513 13.5198 34.1777 13.5198C34.7141 13.5198 34.8978 13.9451 34.8978 14.3981C34.8978 15.3885 34.492 15.9743 33.8504 15.9743Z" fill="black"/>
<path d="M13.5936 16.9687H12.2749L13.0587 12.8396L11.2542 16.9687H10.0521L9.83224 12.8635L9.04597 16.9687H7.84949L8.86865 11.5977H10.9294L11.1013 14.5917L12.4067 11.5977H14.6332L13.5936 16.9687Z" fill="black"/>
<path d="M36.4138 16.2952C36.4138 16.1066 36.567 15.9531 36.7559 15.9531C36.945 15.9531 37.098 16.1066 37.098 16.2952C37.098 16.4846 36.945 16.6378 36.7559 16.6378C36.567 16.6378 36.4138 16.4846 36.4138 16.2952ZM36.7559 16.5557C36.8995 16.5557 37.0161 16.4389 37.0161 16.2952C37.0161 16.1516 36.8995 16.0353 36.7559 16.0353C36.6123 16.0353 36.4957 16.1516 36.4957 16.2952C36.4957 16.4389 36.6123 16.5557 36.7559 16.5557ZM36.7097 16.4455H36.6396V16.1454H36.7665C36.7931 16.1454 36.8201 16.1454 36.8435 16.1602C36.8676 16.1767 36.8816 16.2055 36.8816 16.2352C36.8816 16.2694 36.8617 16.3011 36.8295 16.3129L36.8845 16.4455H36.8068L36.7613 16.327H36.7097V16.4455ZM36.7097 16.2751H36.7485C36.7628 16.2751 36.7783 16.276 36.7913 16.2694C36.8029 16.2615 36.8088 16.2483 36.8088 16.2347C36.8088 16.2232 36.8017 16.2101 36.7921 16.2045C36.7795 16.1969 36.7601 16.1988 36.7471 16.1988H36.7097V16.2751Z" fill="white"/>
<path d="M22.5373 16.5316C22.0848 16.6516 21.6467 16.7104 21.1841 16.7094C19.7075 16.7079 18.9385 16.0353 18.9385 14.7493C18.9385 13.2471 19.9171 12.1416 21.2461 12.1416C22.3334 12.1416 23.0272 12.7611 23.0272 13.7318C23.0272 14.0545 22.98 14.3676 22.8654 14.812H20.2395C20.146 15.4394 20.6042 15.7156 21.3851 15.7156C21.8528 15.7156 22.2756 15.6315 22.7444 15.4431L22.5373 16.5316ZM21.8312 13.9256C21.8312 13.8309 21.977 13.1563 21.2173 13.1418C20.7978 13.1418 20.497 13.421 20.375 13.9256H21.8312Z" fill="white"/>
<path d="M23.4271 13.6305C23.4271 14.1858 23.7391 14.569 24.4497 14.855C24.9929 15.0774 25.0783 15.1418 25.0783 15.3398C25.0783 15.6152 24.8382 15.7416 24.3058 15.7382C23.9054 15.7355 23.5404 15.6868 23.1098 15.5673L22.9187 16.5793C23.3019 16.6688 23.8392 16.6981 24.3149 16.7092C25.733 16.7092 26.3879 16.2446 26.3879 15.2412C26.3879 14.6381 26.1147 14.2827 25.441 14.0186C24.8781 13.7938 24.8122 13.7449 24.8122 13.5415C24.8122 13.3024 25.0355 13.1814 25.4701 13.1814C25.7339 13.1814 26.0947 13.206 26.4373 13.2471L26.6292 12.2292C26.2802 12.1805 25.7509 12.1416 25.4447 12.1416C23.942 12.1416 23.4224 12.8177 23.4271 13.6305Z" fill="white"/>
<path d="M18.2186 16.6368H17.1168L17.1434 16.1752C16.8072 16.5387 16.3598 16.7084 15.7529 16.7084C15.0342 16.7084 14.5416 16.217 14.5416 15.5109C14.5416 14.4364 15.3972 13.8172 16.8689 13.8172C17.0202 13.8172 17.2123 13.8285 17.4102 13.8504C17.4511 13.7067 17.4619 13.6453 17.4619 13.5666C17.4619 13.2724 17.2307 13.1645 16.6114 13.1645C16.001 13.1669 15.5891 13.2574 15.2069 13.36L15.3948 12.3745C16.0559 12.2063 16.4885 12.1416 16.9784 12.1416C18.1178 12.1416 18.7194 12.5882 18.7194 13.4279C18.7292 13.6522 18.651 14.1015 18.6121 14.2987C18.5671 14.585 18.2514 16.2448 18.2186 16.6368ZM17.2514 14.6775C17.1122 14.663 17.0512 14.659 16.9555 14.659C16.2047 14.659 15.8235 14.8826 15.8235 15.324C15.8235 15.6012 16.0096 15.7746 16.2989 15.7746C16.8392 15.7746 17.229 15.3228 17.2514 14.6775Z" fill="white"/>
<path d="M28.7086 16.5671C28.3473 16.666 28.0655 16.7093 27.761 16.7093C27.0861 16.7093 26.718 16.3642 26.718 15.7499C26.6966 15.5814 26.8616 14.802 26.8987 14.5849C26.9361 14.367 27.5207 11.1914 27.5207 11.1914H28.8316L28.6336 12.2421H29.306L29.1232 13.3146H28.4479C28.4479 13.3146 28.077 15.1756 28.077 15.3175C28.077 15.5433 28.214 15.6409 28.5276 15.6409C28.6776 15.6409 28.7937 15.6274 28.8835 15.6001L28.7086 16.5671Z" fill="white"/>
<path d="M35.2292 14.0666C35.2292 15.0567 34.8231 15.643 34.1812 15.643C33.7137 15.6497 33.4302 15.2579 33.4302 14.6706C33.4302 13.9746 33.8438 13.1883 34.5086 13.1883C35.0452 13.1883 35.2292 13.614 35.2292 14.0666ZM36.6446 14.0941C36.6446 12.9975 35.924 12.1416 34.5671 12.1416C33.0059 12.1416 31.9966 13.1819 31.9966 14.7148C31.9966 15.8115 32.5918 16.7094 34.0713 16.7094C35.5639 16.7094 36.6446 15.9118 36.6446 14.0941Z" fill="white"/>
<path d="M29.8766 12.2427C29.7101 13.602 29.4152 14.98 29.1847 16.342L29.1289 16.6383H30.453C30.9304 14.0083 31.0905 13.2589 32.0905 13.5228L32.5715 12.2781C31.8741 12.0221 31.425 12.3875 31.0187 12.9072C31.0553 12.6733 31.1244 12.4478 31.1077 12.2427H29.8766Z" fill="white"/>
<path d="M13.9245 16.6369H12.6061L13.3896 12.5076L11.5849 16.6369H10.383L10.1632 12.5315L9.37691 16.6369H8.18042L9.19934 11.2656H11.2605L11.3695 14.5907L12.82 11.2656H14.9641L13.9245 16.6369Z" fill="white"/>
</g>
<defs>
<clipPath id="clip0_6_13227">
<rect x="0.222656" width="44.2688" height="28" rx="4" fill="white"/>
</clipPath>
</defs>
</svg>
