<svg width="62" height="62" viewBox="0 0 62 62" fill="none" xmlns="http://www.w3.org/2000/svg">
<g clip-path="url(#clip0_8828_19898)">
<path d="M55.18 25.73C54.56 22.94 53.32 20.15 51.77 17.67L54.87 11.16L50.53 6.82L44.02 9.92C41.54 8.37 39.06 7.44 36.27 6.82L34.1 0H27.9L25.42 6.82C22.63 7.44 20.15 8.68 17.67 10.23L11.16 7.13L6.82 11.16L9.92 17.67C8.37 20.15 7.44 22.63 6.82 25.42L0 27.9V34.1L6.82 36.58C7.44 39.37 8.68 42.16 9.92 44.33L6.82 50.84L11.16 55.18L17.67 52.08C20.15 53.63 22.63 54.87 25.42 55.49L27.9 62H34.1L36.58 55.18C37.51 54.87 38.75 54.56 39.68 54.25L34.72 49.29C22.94 51.46 12.4 42.78 12.4 31C12.4 20.77 20.77 12.4 31 12.4C42.47 12.4 51.15 22.63 49.29 33.48L54.56 38.75C54.87 37.82 55.18 37.2 55.18 36.27L62 34.1V27.9L55.18 25.73Z" fill="#0066B3"/>
<path d="M60.7597 53.9396L42.4697 35.6496C46.8097 26.0396 37.8197 15.8096 27.8997 18.5996L33.4797 24.1796C35.9597 26.6596 35.9597 30.6896 33.4797 32.8596C31.3097 35.3396 26.9697 35.3396 24.7997 32.8596L19.2197 27.5896C16.4297 36.2696 25.4197 46.1896 35.6497 42.1596L53.9397 60.4496C55.7997 62.3096 58.5897 62.3096 60.4497 60.4496C62.3097 58.8996 62.3097 55.7996 60.7597 53.9396Z" fill="#348C41"/>
</g>
<defs>
<clipPath id="clip0_8828_19898">
<rect width="62" height="62" fill="white"/>
</clipPath>
</defs>
</svg>
