<svg width="45" height="28" viewBox="0 0 45 28" fill="none" xmlns="http://www.w3.org/2000/svg">
<g clip-path="url(#clip0_6_13190)">
<path d="M42.2653 0.0996094H2.77994C1.47802 0.0996094 0.422607 1.15667 0.422607 2.46061V25.5394C0.422607 26.8433 1.47802 27.9004 2.77994 27.9004H42.2653C43.5672 27.9004 44.6226 26.8433 44.6226 25.5394V2.46061C44.6226 1.15667 43.5672 0.0996094 42.2653 0.0996094Z" fill="#15456D"/>
<path d="M26.0001 13.9995C26.0001 19.8514 21.2636 24.5948 15.4211 24.5948C9.57862 24.5948 4.84259 19.8514 4.84259 13.9995C4.84259 8.14819 9.57862 3.4043 15.4211 3.4043C21.2636 3.4043 26.0001 8.14819 26.0001 13.9995Z" fill="#D9222A"/>
<path d="M29.6236 3.4043C26.8903 3.4043 24.3996 4.44289 22.5221 6.14699C22.1398 6.49426 21.7827 6.86931 21.4539 7.26822H23.5912C23.8834 7.6241 24.1526 7.99841 24.3976 8.39044H20.6475C20.4228 8.75074 20.2188 9.12505 20.038 9.5124H25.0069C25.1765 9.8759 25.3263 10.25 25.4548 10.6341H19.5902C19.4679 10.9996 19.365 11.3737 19.2827 11.7561H25.7619C25.9174 12.4791 26.0001 13.2298 26.0001 13.9995C26.0001 15.1761 25.8084 16.3082 25.4548 17.3652H19.5902C19.7183 17.7496 19.8681 18.1239 20.0378 18.4872H25.0069C24.8256 18.8745 24.6221 19.2488 24.3971 19.6094H20.6475C20.8923 20.0007 21.162 20.3755 21.4539 20.7306H23.5907C23.2624 21.1303 22.9052 21.5058 22.5223 21.8528C24.3998 23.5567 26.8903 24.5948 29.6236 24.5948C35.4661 24.5948 40.2026 19.8514 40.2026 13.9995C40.2026 8.14843 35.4661 3.4043 29.6236 3.4043Z" fill="#EE9F2D"/>
<path d="M38.7926 19.9058C38.7926 19.7169 38.9453 19.5635 39.1342 19.5635C39.323 19.5635 39.4757 19.7169 39.4757 19.9058C39.4757 20.0947 39.323 20.2482 39.1342 20.2482C38.9453 20.2482 38.7926 20.0947 38.7926 19.9058ZM39.1342 20.166C39.2776 20.166 39.394 20.0495 39.394 19.9058C39.394 19.7619 39.2776 19.6459 39.1342 19.6459C38.9905 19.6459 38.8746 19.7619 38.8746 19.9058C38.8746 20.0495 38.9905 20.166 39.1342 20.166ZM39.088 20.0563H39.018V19.7556H39.1447C39.1712 19.7556 39.1983 19.7556 39.2216 19.7706C39.2459 19.787 39.2596 19.8161 39.2596 19.8461C39.2596 19.8798 39.2398 19.9112 39.2076 19.9235L39.2628 20.0563H39.1852L39.1393 19.9373H39.088V20.0563ZM39.088 19.8857H39.1268C39.1413 19.8857 39.1565 19.8869 39.1695 19.8798C39.1811 19.8724 39.187 19.8586 39.187 19.8453C39.187 19.8338 39.1798 19.8205 39.17 19.8148C39.1577 19.8072 39.1383 19.8089 39.1253 19.8089H39.088V19.8857Z" fill="#15456D"/>
<path d="M12.9511 15.1605C12.8305 15.1465 12.7775 15.1428 12.6947 15.1428C12.0438 15.1428 11.7142 15.3664 11.7142 15.8078C11.7142 16.0801 11.8751 16.2532 12.126 16.2532C12.5938 16.2532 12.931 15.8071 12.9511 15.1605ZM13.7862 17.1081H12.8347L12.8565 16.6551C12.5663 17.0132 12.1791 17.1833 11.6528 17.1833C11.0304 17.1833 10.6036 16.6964 10.6036 15.9893C10.6036 14.9254 11.3459 14.3046 12.6201 14.3046C12.7502 14.3046 12.9172 14.3165 13.0881 14.3383C13.1237 14.1942 13.133 14.1325 13.133 14.055C13.133 13.7653 12.9329 13.6573 12.3964 13.6573C11.8345 13.6509 11.3712 13.7914 11.1809 13.8541C11.1929 13.7815 11.34 12.8708 11.34 12.8708C11.9124 12.7029 12.2898 12.6396 12.7146 12.6396C13.7008 12.6396 14.2231 13.0831 14.2221 13.9212C14.224 14.1458 14.187 14.4229 14.129 14.7872C14.0293 15.4205 13.8154 16.7773 13.7862 17.1081Z" fill="#15456D"/>
<path d="M10.123 17.1079H8.97457L9.63241 12.9764L8.1635 17.1079H7.38091L7.28417 13L6.59268 17.1079H5.51764L6.41564 11.7334H8.067L8.16718 14.7417L9.17445 11.7334H11.0112L10.123 17.1079Z" fill="#15456D"/>
<path d="M31.0429 15.1605C30.9228 15.1465 30.8695 15.1428 30.787 15.1428C30.1363 15.1428 29.8068 15.3664 29.8068 15.8078C29.8068 16.0801 29.9673 16.2532 30.2183 16.2532C30.6861 16.2532 31.0235 15.8071 31.0429 15.1605ZM31.8788 17.1081H30.9272L30.9488 16.6551C30.6586 17.0132 30.2711 17.1833 29.7454 17.1833C29.1226 17.1833 28.6964 16.6964 28.6964 15.9893C28.6964 14.9254 29.4382 14.3046 30.7126 14.3046C30.8428 14.3046 31.0095 14.3165 31.1801 14.3383C31.2158 14.1942 31.2251 14.1325 31.2251 14.055C31.2251 13.7653 31.0252 13.6573 30.4887 13.6573C29.9268 13.6509 29.464 13.7914 29.2729 13.8541C29.2849 13.7815 29.4325 12.8708 29.4325 12.8708C30.0049 12.7029 30.3821 12.6396 30.8064 12.6396C31.7931 12.6396 32.3153 13.0831 32.3144 13.9212C32.3163 14.1458 32.2793 14.4229 32.2213 14.7872C32.1221 15.4205 31.9077 16.7773 31.8788 17.1081Z" fill="#15456D"/>
<path d="M18.8903 17.0412C18.576 17.1403 18.331 17.1828 18.0653 17.1828C17.4781 17.1828 17.1577 16.8449 17.1577 16.2227C17.1493 16.0296 17.2422 15.5215 17.3151 15.0577C17.3814 14.6494 17.8131 12.0752 17.8131 12.0752H18.9547L18.8213 12.7368H19.5109L19.3552 13.7872H18.6632C18.5306 14.6184 18.3418 15.6538 18.3396 15.7911C18.3396 16.0163 18.4596 16.1147 18.7327 16.1147C18.8636 16.1147 18.965 16.1014 19.0423 16.0734L18.8903 17.0412Z" fill="#15456D"/>
<path d="M22.3905 17.0063C21.9984 17.1263 21.62 17.1843 21.219 17.1833C19.9411 17.1821 19.2749 16.5137 19.2749 15.2336C19.2749 13.7395 20.1223 12.6396 21.2727 12.6396C22.214 12.6396 22.8151 13.2555 22.8151 14.2213C22.8151 14.5417 22.7738 14.8546 22.6744 15.2963H20.401C20.3242 15.9303 20.7293 16.1944 21.3933 16.1944C21.8019 16.1944 22.1705 16.1101 22.5803 15.9192L22.3905 17.0063ZM21.7489 14.4151C21.7553 14.3241 21.8699 13.635 21.2177 13.635C20.8541 13.635 20.594 13.9126 20.4882 14.4151H21.7489Z" fill="#15456D"/>
<path d="M14.475 14.119C14.475 14.6718 14.7427 15.053 15.3497 15.3393C15.8148 15.5582 15.8867 15.6231 15.8867 15.8216C15.8867 16.0941 15.6817 16.2171 15.2272 16.2171C14.8846 16.2171 14.5659 16.1634 14.1983 16.0447C14.1983 16.0447 14.0473 17.008 14.0404 17.054C14.3014 17.111 14.5342 17.1639 15.2355 17.1833C16.4473 17.1833 17.007 16.7212 17.007 15.7225C17.007 15.1219 16.7727 14.7695 16.1974 14.5046C15.7158 14.2833 15.6606 14.2338 15.6606 14.0297C15.6606 13.7933 15.8514 13.6728 16.2227 13.6728C16.4481 13.6728 16.756 13.6969 17.0477 13.7385L17.2113 12.7247C16.9139 12.6775 16.4631 12.6396 16.2006 12.6396C14.9158 12.6396 14.4711 13.3118 14.475 14.119Z" fill="#15456D"/>
<path d="M27.9759 12.7544C28.2949 12.7544 28.5922 12.8382 29.0021 13.0448L29.1899 11.8783C29.0217 11.8122 28.4294 11.4238 27.9278 11.4238C27.1592 11.4238 26.5094 11.8058 26.0525 12.4361C25.386 12.215 25.112 12.6619 24.7761 13.107L24.4777 13.1766C24.5003 13.03 24.5207 12.8845 24.5138 12.7371H23.4591C23.315 14.0898 23.0596 15.4599 22.8597 16.8143L22.8077 17.1079H23.9566C24.1484 15.8601 24.2535 15.061 24.3174 14.5202L24.75 14.2792C24.8146 14.0384 25.0169 13.957 25.4228 13.9668C25.3698 14.2521 25.3413 14.5522 25.3413 14.863C25.3413 16.2929 26.1116 17.1832 27.348 17.1832C27.6665 17.1832 27.9398 17.1411 28.3629 17.0263L28.565 15.801C28.1844 15.9887 27.872 16.077 27.5891 16.077C26.9215 16.077 26.5175 15.5834 26.5175 14.7676C26.5175 13.5841 27.1184 12.7544 27.9759 12.7544Z" fill="#15456D"/>
<path d="M10.4535 16.7888H9.30483L9.96316 12.6578L8.49425 16.7888H7.71142L7.61467 12.6814L6.92319 16.7888H5.84814L6.74614 11.415H8.3975L8.44391 14.7418L9.558 11.415H11.3417L10.4535 16.7888Z" fill="white"/>
<path d="M37.6992 11.7334L37.4445 13.2862C37.1305 12.8723 36.7931 12.5728 36.3476 12.5728C35.7681 12.5728 35.2407 13.0128 34.8954 13.6603C34.4146 13.5605 33.9174 13.391 33.9174 13.391L33.9171 13.395C33.9559 13.0329 33.9714 12.8121 33.968 12.7371H32.9131C32.7694 14.0897 32.514 15.4598 32.3144 16.8142L32.2618 17.1079H33.4105C33.5657 16.0988 33.6846 15.2609 33.772 14.5964C34.1644 14.2412 34.3608 13.9313 34.7574 13.952C34.5818 14.3772 34.479 14.8671 34.479 15.3696C34.479 16.4623 35.031 17.1831 35.8659 17.1831C36.2867 17.1831 36.6096 17.0378 36.9247 16.7008L36.8709 17.1071H37.9573L38.8319 11.7334H37.6992ZM36.2629 16.0978C35.872 16.0978 35.6746 15.8081 35.6746 15.2363C35.6746 14.3772 36.0441 13.768 36.5652 13.768C36.9598 13.768 37.1734 14.0693 37.1734 14.6244C37.1734 15.4908 36.798 16.0978 36.2629 16.0978Z" fill="#15456D"/>
<path d="M13.2813 14.8414C13.161 14.8274 13.1077 14.8237 13.0252 14.8237C12.3743 14.8237 12.045 15.0473 12.045 15.4887C12.045 15.7605 12.2058 15.9341 12.4563 15.9341C12.9246 15.9341 13.2617 15.488 13.2813 14.8414ZM14.117 16.7883H13.1654L13.1871 16.336C12.8971 16.6933 12.5093 16.8643 11.9836 16.8643C11.3609 16.8643 10.9343 16.3773 10.9343 15.6702C10.9343 14.6058 11.6764 13.9856 12.9508 13.9856C13.081 13.9856 13.248 13.9974 13.4186 14.0192C13.4542 13.8751 13.4635 13.8134 13.4635 13.7354C13.4635 13.4457 13.2637 13.3382 12.7271 13.3382C12.1651 13.3319 11.7019 13.4723 11.5114 13.5343C11.5234 13.462 11.6705 12.5522 11.6705 12.5522C12.2426 12.3835 12.6206 12.3203 13.0449 12.3203C14.0313 12.3203 14.5538 12.764 14.5528 13.6014C14.5546 13.8269 14.5172 14.1039 14.4595 14.4676C14.3601 15.1006 14.1459 16.4582 14.117 16.7883Z" fill="white"/>
<path d="M29.5207 11.5584L29.3326 12.7252C28.923 12.5188 28.6254 12.4347 28.3067 12.4347C27.4492 12.4347 26.8481 13.2645 26.8481 14.448C26.8481 15.2637 27.2523 15.7571 27.9197 15.7571C28.2026 15.7571 28.5147 15.669 28.8953 15.4811L28.6937 16.7059C28.2703 16.8215 27.9973 16.8636 27.6786 16.8636C26.4424 16.8636 25.6719 15.9733 25.6719 14.5434C25.6719 12.6221 26.7361 11.2793 28.2583 11.2793C28.7597 11.2793 29.3523 11.4923 29.5207 11.5584Z" fill="white"/>
<path d="M31.3736 14.8414C31.2533 14.8274 31.2003 14.8237 31.1175 14.8237C30.4668 14.8237 30.1373 15.0473 30.1373 15.4887C30.1373 15.7605 30.2981 15.9341 30.5488 15.9341C31.0166 15.9341 31.354 15.488 31.3736 14.8414ZM32.2093 16.7883H31.2575L31.2793 16.336C30.9891 16.6933 30.6016 16.8643 30.0759 16.8643C29.4534 16.8643 29.0266 16.3773 29.0266 15.6702C29.0266 14.6058 29.7689 13.9856 31.0429 13.9856C31.1733 13.9856 31.34 13.9974 31.5109 14.0192C31.5463 13.8751 31.5558 13.8134 31.5558 13.7354C31.5558 13.4457 31.356 13.3382 30.8194 13.3382C30.2576 13.3319 29.7942 13.4723 29.6037 13.5343C29.6157 13.462 29.763 12.5522 29.763 12.5522C30.3352 12.3835 30.7128 12.3203 31.1372 12.3203C32.1238 12.3203 32.6461 12.764 32.6449 13.6014C32.6468 13.8269 32.6098 14.1039 32.5518 14.4676C32.4526 15.1006 32.238 16.4582 32.2093 16.7883Z" fill="white"/>
<path d="M19.2209 16.7226C18.9063 16.8217 18.6612 16.8647 18.3958 16.8647C17.8087 16.8647 17.4882 16.5268 17.4882 15.9046C17.4801 15.711 17.5729 15.2034 17.6459 14.7396C17.7119 14.3308 18.1436 11.7568 18.1436 11.7568H19.285L19.1519 12.4187H19.7378L19.5818 13.4686H18.994C18.8614 14.3003 18.6721 15.335 18.6701 15.4725C18.6701 15.6985 18.7904 15.7961 19.0632 15.7961C19.1941 15.7961 19.2953 15.7833 19.3729 15.7553L19.2209 16.7226Z" fill="white"/>
<path d="M22.721 16.6872C22.3291 16.8072 21.9502 16.865 21.5495 16.8643C20.2716 16.863 19.6054 16.1946 19.6054 14.9145C19.6054 13.4199 20.4528 12.3203 21.6032 12.3203C22.5445 12.3203 23.1456 12.9359 23.1456 13.9022C23.1456 14.2229 23.1043 14.5357 23.0051 14.9772H20.7318C20.6549 15.6112 21.0601 15.8756 21.7241 15.8756C22.1324 15.8756 22.5012 15.791 22.9108 15.5996L22.721 16.6872ZM22.0791 14.0952C22.086 14.0045 22.2004 13.3151 21.548 13.3151C21.1846 13.3151 20.9245 13.5935 20.8187 14.0952H22.0791Z" fill="white"/>
<path d="M14.8055 13.7999C14.8055 14.3527 15.0732 14.7335 15.6802 15.0202C16.1453 15.2391 16.2172 15.3043 16.2172 15.5025C16.2172 15.775 16.012 15.898 15.5579 15.898C15.2151 15.898 14.8964 15.8444 14.5286 15.7256C14.5286 15.7256 14.378 16.6889 14.3712 16.7349C14.6317 16.792 14.8647 16.8441 15.566 16.8643C16.7781 16.8643 17.3375 16.4021 17.3375 15.4036C17.3375 14.8028 17.1035 14.4504 16.5279 14.1855C16.0466 13.9637 15.9908 13.915 15.9908 13.7106C15.9908 13.4745 16.1821 13.353 16.5532 13.353C16.7783 13.353 17.0863 13.3778 17.3785 13.4194L17.5418 12.4054C17.2446 12.3582 16.7938 12.3203 16.5313 12.3203C15.2463 12.3203 14.8019 12.992 14.8055 13.7999Z" fill="white"/>
<path d="M38.2877 16.7888H37.2012L37.2552 16.382C36.9401 16.7194 36.6172 16.8648 36.1963 16.8648C35.3615 16.8648 34.8097 16.1439 34.8097 15.0512C34.8097 13.5975 35.6655 12.372 36.6784 12.372C37.1238 12.372 37.461 12.5542 37.7748 12.9679L38.0297 11.415H39.1624L38.2877 16.7888ZM36.5937 15.779C37.1285 15.779 37.5042 15.172 37.5042 14.306C37.5042 13.751 37.2903 13.4497 36.8957 13.4497C36.3749 13.4497 36.0048 14.0586 36.0048 14.9179C36.0048 15.4897 36.2027 15.779 36.5937 15.779Z" fill="white"/>
<path d="M33.2438 12.4182C33.0999 13.7709 32.8445 15.141 32.6449 16.4947L32.5923 16.7883H33.7411C34.1519 14.116 34.2513 13.5941 34.8954 13.6595C34.9981 13.1125 35.1891 12.6334 35.3315 12.3917C34.8505 12.2913 34.5818 12.5636 34.2302 13.0808C34.258 12.8572 34.3088 12.6401 34.2987 12.4182H33.2438Z" fill="white"/>
<path d="M23.7896 12.4182C23.6455 13.7709 23.3901 15.141 23.1905 16.4947L23.1382 16.7883H24.2874C24.6977 14.116 24.7969 13.5941 25.4408 13.6595C25.5439 13.1125 25.7349 12.6334 25.8769 12.3917C25.3963 12.2913 25.1274 12.5636 24.776 13.0808C24.8038 12.8572 24.8541 12.6401 24.8445 12.4182H23.7896Z" fill="white"/>
<path d="M38.7921 16.4468C38.7921 16.2572 38.9451 16.1045 39.1337 16.1045C39.3225 16.1045 39.4753 16.2572 39.4753 16.4468C39.4753 16.6355 39.3225 16.7889 39.1337 16.7889C38.9451 16.7889 38.7921 16.6355 38.7921 16.4468ZM39.1337 16.7068C39.2773 16.7068 39.3932 16.5902 39.3932 16.4468C39.3932 16.3032 39.2773 16.1866 39.1337 16.1866C38.9903 16.1866 38.8739 16.3032 38.8739 16.4468C38.8739 16.5902 38.9903 16.7068 39.1337 16.7068ZM39.0875 16.5964H39.0175V16.2963H39.1445C39.1708 16.2963 39.198 16.2968 39.2209 16.3113C39.2454 16.328 39.2594 16.3566 39.2594 16.3866C39.2594 16.4205 39.2395 16.4522 39.2071 16.4643L39.2626 16.5964H39.1848L39.1388 16.4778H39.0875V16.5964ZM39.0875 16.4264H39.1261C39.1406 16.4264 39.1563 16.4274 39.169 16.4205C39.1806 16.4131 39.1865 16.3991 39.1865 16.3858C39.1865 16.3748 39.1796 16.3615 39.1695 16.3549C39.1575 16.348 39.1376 16.3499 39.1246 16.3499H39.0875V16.4264Z" fill="white"/>
</g>
<defs>
<clipPath id="clip0_6_13190">
<rect x="0.422607" width="44.2" height="28" rx="4" fill="white"/>
</clipPath>
</defs>
</svg>
