<svg width="62" height="62" viewBox="0 0 62 62" fill="none" xmlns="http://www.w3.org/2000/svg">
<path d="M39.752 50.1512C39.6694 50.0718 39.5594 50.0273 39.4448 50.0273H22.5548C22.4402 50.0273 22.33 50.0718 22.2474 50.1513L16.575 55.6171C16.4883 55.7005 16.4395 55.8157 16.4395 55.9359V57.1292C16.4395 57.3738 16.6377 57.572 16.8823 57.572H45.1176C45.3623 57.572 45.5605 57.3738 45.5605 57.1292V55.9359C45.5605 55.8157 45.5116 55.7005 45.4248 55.6169L39.752 50.1512Z" fill="#348C41"/>
<path d="M60.7705 4.42773H1.2299C0.551091 4.42773 0 4.97829 0 5.65746V47.8444C0 48.5243 0.551091 49.0748 1.2299 49.0748H60.7703C61.4493 49.0748 61.9998 48.5243 61.9998 47.8444V5.65746C62 4.97829 61.4494 4.42773 60.7705 4.42773ZM31 46.7992C30.2532 46.7992 29.6475 46.1934 29.6475 45.4462C29.6475 44.6989 30.2532 44.0932 31 44.0932C31.7474 44.0932 32.3528 44.6989 32.3528 45.4462C32.3528 46.1936 31.7474 46.7992 31 46.7992ZM57.0513 41.3852H4.94919V10.2717H57.0512V41.3852H57.0513Z" fill="#0066B3"/>
<path d="M21.2568 25.5488H27.2639C27.4639 25.5488 27.6261 25.3867 27.6261 25.1865V17.8457C27.6261 17.7362 27.5767 17.6326 27.4915 17.5639C27.4065 17.495 27.2951 17.4686 27.1877 17.4914L21.1806 18.783C21.0137 18.8189 20.8945 18.9665 20.8945 19.1373V25.1865C20.8945 25.3865 21.0568 25.5488 21.2568 25.5488Z" fill="#348C41"/>
<path d="M29.5154 35.5527L37.1242 37.1876C37.1496 37.1929 37.1751 37.1955 37.2004 37.1955C37.2824 37.1955 37.363 37.1677 37.4282 37.1151C37.5132 37.0464 37.5628 36.9428 37.5628 36.8333V27.5136C37.5628 27.3135 37.4006 27.1514 37.2006 27.1514H29.5917C29.3918 27.1514 29.2295 27.3135 29.2295 27.5136V35.1986C29.2291 35.3692 29.3484 35.5168 29.5154 35.5527Z" fill="#348C41"/>
<path d="M29.5909 25.5483H37.1998C37.3998 25.5483 37.562 25.3862 37.562 25.1861V15.8662C37.562 15.7568 37.5126 15.6531 37.4274 15.5844C37.3424 15.5155 37.2304 15.4891 37.1236 15.5119L29.5148 17.1468C29.3479 17.1828 29.2285 17.3303 29.2285 17.5011V25.1861C29.2287 25.3861 29.391 25.5483 29.5909 25.5483Z" fill="#348C41"/>
<path d="M21.1806 33.9164L27.1877 35.2079C27.213 35.2132 27.2385 35.2159 27.2639 35.2159C27.3459 35.2159 27.4265 35.1881 27.4915 35.1355C27.5767 35.0667 27.6261 34.9631 27.6261 34.8536V27.5126C27.6261 27.3125 27.4639 27.1504 27.2639 27.1504H21.2568C21.0568 27.1504 20.8945 27.3125 20.8945 27.5126V33.5619C20.8945 33.7328 21.0136 33.8804 21.1806 33.9164Z" fill="#348C41"/>
</svg>
