<svg width="45" height="28" viewBox="0 0 45 28" fill="none" xmlns="http://www.w3.org/2000/svg">
<g clip-path="url(#clip0_6_13174)">
<path d="M44.4226 -0.188477H0.15387V28.1889H44.4226V-0.188477Z" fill="white" stroke="black" stroke-width="15.3846"/>
<path d="M9.71022 9.42359C9.23354 9.09589 8.6115 8.93164 7.84412 8.93164H4.87323C4.63799 8.93164 4.50802 9.04929 4.48333 9.28437L3.27649 16.86C3.26395 16.9344 3.28257 17.0025 3.33217 17.0643C3.38149 17.1263 3.44352 17.1571 3.51781 17.1571H4.92897C5.17648 17.1571 5.31252 17.0398 5.33749 16.8044L5.67166 14.762C5.68386 14.663 5.72739 14.5826 5.80169 14.5206C5.87592 14.4587 5.96877 14.4182 6.08018 14.3997C6.19159 14.3814 6.29665 14.372 6.39585 14.372C6.49478 14.372 6.61232 14.3783 6.7487 14.3907C6.88474 14.403 6.97146 14.409 7.00863 14.409C8.07313 14.409 8.90867 14.1091 9.51533 13.5085C10.1217 12.9083 10.4252 12.0759 10.4252 11.0111C10.4252 10.2808 10.1867 9.75163 9.71022 9.42342V9.42359ZM8.17847 11.6983C8.11638 12.1316 7.95565 12.4162 7.69571 12.5524C7.43571 12.6888 7.06437 12.7567 6.58167 12.7567L5.96889 12.7752L6.28461 10.7884C6.30924 10.6523 6.38967 10.5842 6.52593 10.5842H6.87884C7.37374 10.5842 7.73294 10.6556 7.95576 10.7977C8.17846 10.9401 8.25276 11.2404 8.17847 11.6983Z" fill="#003087"/>
<path d="M41.0622 8.93066H39.6883C39.5518 8.93066 39.4714 8.99877 39.4469 9.13504L38.2399 16.8594L38.2213 16.8965C38.2213 16.9587 38.2461 17.0172 38.2957 17.0729C38.3449 17.1286 38.4071 17.1564 38.4813 17.1564H39.707C39.9418 17.1564 40.0718 17.0391 40.0969 16.8037L41.3038 9.20933V9.19089C41.3037 9.0175 41.223 8.93089 41.0622 8.93089V8.93066Z" fill="#009CDE"/>
<path d="M24.4625 11.9201C24.4625 11.8583 24.4377 11.7994 24.3885 11.7439C24.3388 11.6882 24.2831 11.6602 24.2213 11.6602H22.7916C22.6552 11.6602 22.5438 11.7224 22.4573 11.8458L20.4891 14.7425L19.6721 11.9573C19.6099 11.7594 19.4739 11.6602 19.2637 11.6602H17.8708C17.8088 11.6602 17.7531 11.6881 17.7039 11.7439C17.6543 11.7994 17.6296 11.8585 17.6296 11.9201C17.6296 11.945 17.7504 12.3101 17.9917 13.0156C18.233 13.7214 18.4929 14.4827 18.7715 15.2998C19.05 16.1167 19.1954 16.5502 19.2078 16.5992C18.1927 17.9859 17.6854 18.7286 17.6854 18.8274C17.6854 18.9885 17.7657 19.0689 17.9268 19.0689H19.3565C19.4926 19.0689 19.6039 19.0071 19.6907 18.8833L24.4256 12.05C24.4502 12.0255 24.4625 11.9824 24.4625 11.92V11.9201Z" fill="#003087"/>
<path d="M37.7761 11.6602H36.3649C36.1914 11.6602 36.0866 11.8646 36.0494 12.2731C35.7271 11.7781 35.1395 11.5303 34.2852 11.5303C33.394 11.5303 32.6357 11.8646 32.0107 12.533C31.3855 13.2015 31.0731 13.9878 31.0731 14.8913C31.0731 15.6218 31.2866 16.2035 31.7135 16.6366C32.1406 17.0702 32.713 17.2865 33.4313 17.2865C33.7902 17.2865 34.1554 17.2121 34.5267 17.0637C34.8981 16.9152 35.1887 16.7172 35.3995 16.4695C35.3995 16.482 35.3869 16.5375 35.3624 16.6365C35.3374 16.7357 35.3252 16.8102 35.3252 16.8593C35.3252 17.0576 35.4054 17.1563 35.5666 17.1563H36.8479C37.0828 17.1563 37.2192 17.039 37.2562 16.8036L38.0176 11.9573C38.0298 11.8829 38.0113 11.815 37.9619 11.753C37.9121 11.6913 37.8503 11.6602 37.7761 11.6602ZM35.353 15.3183C35.0373 15.6278 34.6566 15.7825 34.211 15.7825C33.8519 15.7825 33.5612 15.6836 33.3383 15.4854C33.1154 15.2878 33.004 15.0154 33.004 14.6684C33.004 14.2107 33.1587 13.8236 33.4683 13.508C33.7774 13.1923 34.1615 13.0345 34.6195 13.0345C34.9658 13.0345 35.2537 13.1366 35.4829 13.3408C35.7117 13.5451 35.8266 13.8267 35.8266 14.1858C35.8264 14.6314 35.6686 15.009 35.353 15.3183Z" fill="#009CDE"/>
<path d="M16.6826 11.6602H15.2714C15.0978 11.6602 14.9928 11.8646 14.9556 12.2731C14.6214 11.7781 14.0334 11.5303 13.1916 11.5303C12.3004 11.5303 11.5421 11.8646 10.917 12.533C10.2918 13.2015 9.97937 13.9878 9.97937 14.8913C9.97937 15.6218 10.1929 16.2035 10.62 16.6366C11.0471 17.0702 11.6195 17.2865 12.3375 17.2865C12.684 17.2865 13.0432 17.2121 13.4145 17.0637C13.7858 16.9152 14.0829 16.7172 14.3057 16.4695C14.2561 16.6179 14.2314 16.748 14.2314 16.8593C14.2314 17.0576 14.3119 17.1563 14.4728 17.1563H15.754C15.989 17.1563 16.1254 17.039 16.1625 16.8036L16.9238 11.9573C16.936 11.8829 16.9175 11.815 16.8681 11.753C16.8186 11.6913 16.7568 11.6602 16.6826 11.6602ZM14.2594 15.3275C13.9437 15.6312 13.5567 15.7825 13.099 15.7825C12.7398 15.7825 12.452 15.6836 12.2355 15.4854C12.0187 15.2878 11.9105 15.0154 11.9105 14.6684C11.9105 14.2107 12.0652 13.8236 12.3748 13.508C12.684 13.1923 13.0678 13.0344 13.526 13.0344C13.8724 13.0344 14.1602 13.1366 14.3894 13.3408C14.6183 13.5451 14.7329 13.8267 14.7329 14.1858C14.7329 14.6438 14.5751 15.0246 14.2594 15.3275Z" fill="#003087"/>
<path d="M30.8038 9.42359C30.3272 9.09589 29.7053 8.93164 28.9377 8.93164H25.9853C25.7377 8.93164 25.6015 9.04929 25.5769 9.28437L24.3699 16.86C24.3574 16.9344 24.376 17.0025 24.4257 17.0643C24.4748 17.1263 24.537 17.1571 24.6113 17.1571H26.1338C26.2823 17.1571 26.3813 17.0768 26.4309 16.9158L26.7652 14.762C26.7775 14.663 26.8208 14.5826 26.8952 14.5206C26.9695 14.4587 27.0622 14.4182 27.1737 14.3997C27.285 14.3814 27.3901 14.372 27.4894 14.372C27.5883 14.372 27.7058 14.3783 27.8421 14.3907C27.9782 14.403 28.0651 14.409 28.102 14.409C29.1667 14.409 30.0021 14.1091 30.6088 13.5085C31.2154 12.9083 31.5186 12.0759 31.5186 11.0111C31.5187 10.2808 31.2802 9.75158 30.8038 9.42342V9.42359ZM28.9006 12.4781C28.6283 12.6637 28.2197 12.7565 27.6752 12.7565L27.0809 12.7751L27.3966 10.7883C27.4211 10.6523 27.5016 10.5841 27.6379 10.5841H27.972C28.2444 10.5841 28.4609 10.5965 28.6221 10.6212C28.7827 10.646 28.9377 10.7233 29.0863 10.8532C29.2349 10.9832 29.3091 11.1721 29.3091 11.4195C29.3091 11.9396 29.1728 12.2923 28.9006 12.4781Z" fill="#009CDE"/>
<g clip-path="url(#clip1_6_13174)">
<path d="M44.4226 -0.188477H0.15387V28.1889H44.4226V-0.188477Z" fill="#EBF6FF"/>
<path d="M9.71022 9.42359C9.23354 9.09589 8.6115 8.93164 7.84412 8.93164H4.87323C4.63799 8.93164 4.50802 9.04929 4.48333 9.28437L3.27649 16.86C3.26395 16.9344 3.28257 17.0025 3.33217 17.0643C3.38149 17.1263 3.44352 17.1571 3.51781 17.1571H4.92897C5.17648 17.1571 5.31252 17.0398 5.33749 16.8044L5.67166 14.762C5.68386 14.663 5.72739 14.5826 5.80169 14.5206C5.87592 14.4587 5.96877 14.4182 6.08018 14.3997C6.19159 14.3814 6.29665 14.372 6.39585 14.372C6.49478 14.372 6.61232 14.3783 6.7487 14.3907C6.88474 14.403 6.97146 14.409 7.00863 14.409C8.07313 14.409 8.90867 14.1091 9.51533 13.5085C10.1217 12.9083 10.4252 12.0759 10.4252 11.0111C10.4252 10.2808 10.1867 9.75163 9.71022 9.42342V9.42359ZM8.17847 11.6983C8.11638 12.1316 7.95565 12.4162 7.69571 12.5524C7.43571 12.6888 7.06437 12.7567 6.58167 12.7567L5.96889 12.7752L6.28461 10.7884C6.30924 10.6523 6.38967 10.5842 6.52593 10.5842H6.87884C7.37374 10.5842 7.73294 10.6556 7.95576 10.7977C8.17846 10.9401 8.25276 11.2404 8.17847 11.6983Z" fill="#003087"/>
<path d="M41.0622 8.93066H39.6883C39.5518 8.93066 39.4714 8.99877 39.4469 9.13504L38.2399 16.8594L38.2213 16.8965C38.2213 16.9587 38.2461 17.0172 38.2957 17.0729C38.3449 17.1286 38.4071 17.1564 38.4813 17.1564H39.707C39.9418 17.1564 40.0718 17.0391 40.0969 16.8037L41.3038 9.20933V9.19089C41.3037 9.0175 41.223 8.93089 41.0622 8.93089V8.93066Z" fill="#009CDE"/>
<path d="M24.4625 11.9201C24.4625 11.8583 24.4377 11.7994 24.3885 11.7439C24.3388 11.6882 24.2831 11.6602 24.2213 11.6602H22.7916C22.6552 11.6602 22.5438 11.7224 22.4573 11.8458L20.4891 14.7425L19.6721 11.9573C19.6099 11.7594 19.4739 11.6602 19.2637 11.6602H17.8708C17.8088 11.6602 17.7531 11.6881 17.7039 11.7439C17.6543 11.7994 17.6296 11.8585 17.6296 11.9201C17.6296 11.945 17.7504 12.3101 17.9917 13.0156C18.233 13.7214 18.4929 14.4827 18.7715 15.2998C19.05 16.1167 19.1954 16.5502 19.2078 16.5992C18.1927 17.9859 17.6854 18.7286 17.6854 18.8274C17.6854 18.9885 17.7657 19.0689 17.9268 19.0689H19.3565C19.4926 19.0689 19.6039 19.0071 19.6907 18.8833L24.4256 12.05C24.4502 12.0255 24.4625 11.9824 24.4625 11.92V11.9201Z" fill="#003087"/>
<path d="M37.7761 11.6602H36.3649C36.1914 11.6602 36.0866 11.8646 36.0494 12.2731C35.7271 11.7781 35.1395 11.5303 34.2852 11.5303C33.394 11.5303 32.6357 11.8646 32.0107 12.533C31.3855 13.2015 31.0731 13.9878 31.0731 14.8913C31.0731 15.6218 31.2866 16.2035 31.7135 16.6366C32.1406 17.0702 32.713 17.2865 33.4313 17.2865C33.7902 17.2865 34.1554 17.2121 34.5267 17.0637C34.8981 16.9152 35.1887 16.7172 35.3995 16.4695C35.3995 16.482 35.3869 16.5375 35.3624 16.6365C35.3374 16.7357 35.3252 16.8102 35.3252 16.8593C35.3252 17.0576 35.4054 17.1563 35.5666 17.1563H36.8479C37.0828 17.1563 37.2192 17.039 37.2562 16.8036L38.0176 11.9573C38.0298 11.8829 38.0113 11.815 37.9619 11.753C37.9121 11.6913 37.8503 11.6602 37.7761 11.6602ZM35.353 15.3183C35.0373 15.6278 34.6566 15.7825 34.211 15.7825C33.8519 15.7825 33.5612 15.6836 33.3383 15.4854C33.1154 15.2878 33.004 15.0154 33.004 14.6684C33.004 14.2107 33.1587 13.8236 33.4683 13.508C33.7774 13.1923 34.1615 13.0345 34.6195 13.0345C34.9658 13.0345 35.2537 13.1366 35.4829 13.3408C35.7117 13.5451 35.8266 13.8267 35.8266 14.1858C35.8264 14.6314 35.6686 15.009 35.353 15.3183Z" fill="#009CDE"/>
<path d="M16.6826 11.6602H15.2714C15.0978 11.6602 14.9928 11.8646 14.9556 12.2731C14.6214 11.7781 14.0334 11.5303 13.1916 11.5303C12.3004 11.5303 11.5421 11.8646 10.917 12.533C10.2918 13.2015 9.97937 13.9878 9.97937 14.8913C9.97937 15.6218 10.1929 16.2035 10.62 16.6366C11.0471 17.0702 11.6195 17.2865 12.3375 17.2865C12.684 17.2865 13.0432 17.2121 13.4145 17.0637C13.7858 16.9152 14.0829 16.7172 14.3057 16.4695C14.2561 16.6179 14.2314 16.748 14.2314 16.8593C14.2314 17.0576 14.3119 17.1563 14.4728 17.1563H15.754C15.989 17.1563 16.1254 17.039 16.1625 16.8036L16.9238 11.9573C16.936 11.8829 16.9175 11.815 16.8681 11.753C16.8186 11.6913 16.7568 11.6602 16.6826 11.6602ZM14.2594 15.3275C13.9437 15.6312 13.5567 15.7825 13.099 15.7825C12.7398 15.7825 12.452 15.6836 12.2355 15.4854C12.0187 15.2878 11.9105 15.0154 11.9105 14.6684C11.9105 14.2107 12.0652 13.8236 12.3748 13.508C12.684 13.1923 13.0678 13.0344 13.526 13.0344C13.8724 13.0344 14.1602 13.1366 14.3894 13.3408C14.6183 13.5451 14.7329 13.8267 14.7329 14.1858C14.7329 14.6438 14.5751 15.0246 14.2594 15.3275Z" fill="#003087"/>
<path d="M30.8038 9.42359C30.3272 9.09589 29.7053 8.93164 28.9377 8.93164H25.9853C25.7377 8.93164 25.6015 9.04929 25.5769 9.28437L24.3699 16.86C24.3574 16.9344 24.376 17.0025 24.4257 17.0643C24.4748 17.1263 24.537 17.1571 24.6113 17.1571H26.1338C26.2823 17.1571 26.3813 17.0768 26.4309 16.9158L26.7652 14.762C26.7775 14.663 26.8208 14.5826 26.8952 14.5206C26.9695 14.4587 27.0622 14.4182 27.1737 14.3997C27.285 14.3814 27.3901 14.372 27.4894 14.372C27.5883 14.372 27.7058 14.3783 27.8421 14.3907C27.9782 14.403 28.0651 14.409 28.102 14.409C29.1667 14.409 30.0021 14.1091 30.6088 13.5085C31.2154 12.9083 31.5186 12.0759 31.5186 11.0111C31.5187 10.2808 31.2802 9.75158 30.8038 9.42342V9.42359ZM28.9006 12.4781C28.6283 12.6637 28.2197 12.7565 27.6752 12.7565L27.0809 12.7751L27.3966 10.7883C27.4211 10.6523 27.5016 10.5841 27.6379 10.5841H27.972C28.2444 10.5841 28.4609 10.5965 28.6221 10.6212C28.7827 10.646 28.9377 10.7233 29.0863 10.8532C29.2349 10.9832 29.3091 11.1721 29.3091 11.4195C29.3091 11.9396 29.1728 12.2923 28.9006 12.4781Z" fill="#009CDE"/>
</g>
</g>
<defs>
<clipPath id="clip0_6_13174">
<rect x="0.15387" width="44.2688" height="28" rx="4" fill="white"/>
</clipPath>
<clipPath id="clip1_6_13174">
<rect width="44.2688" height="28" fill="white" transform="translate(0.15387)"/>
</clipPath>
</defs>
</svg>
