<svg width="136" height="36" viewBox="0 0 136 36" fill="none" xmlns="http://www.w3.org/2000/svg">
<g clip-path="url(#clip0_8835_25545)">
<path d="M50.6163 8.87012H43.1297C42.8819 8.86996 42.6421 8.95833 42.4536 9.11929C42.2652 9.28026 42.1404 9.50324 42.1018 9.74806L39.0739 28.9456C39.06 29.0347 39.0655 29.1257 39.0902 29.2125C39.1148 29.2992 39.1579 29.3796 39.2166 29.448C39.2753 29.5165 39.3481 29.5714 39.4301 29.609C39.512 29.6466 39.6011 29.666 39.6913 29.6659H43.2654C43.5135 29.666 43.7533 29.5775 43.9418 29.4163C44.1303 29.2551 44.255 29.0319 44.2934 28.7869L45.11 23.609C45.1483 23.3642 45.2729 23.1411 45.4611 22.9799C45.6494 22.8188 45.889 22.7301 46.1368 22.73H48.5068C53.4384 22.73 56.2846 20.3435 57.0279 15.6145C57.3629 13.5455 57.0421 11.9199 56.0733 10.7814C55.0093 9.53131 53.122 8.87012 50.6163 8.87012ZM51.48 15.8816C51.0706 18.568 49.018 18.568 47.0334 18.568H45.9036L46.6962 13.551C46.7194 13.4042 46.7942 13.2705 46.9072 13.174C47.0202 13.0775 47.1639 13.0245 47.3125 13.0245H47.8303C49.1822 13.0245 50.4576 13.0245 51.1166 13.7951C51.5095 14.2549 51.63 14.938 51.48 15.8816ZM72.995 15.7951H69.4099C69.2613 15.7951 69.1176 15.8482 69.0046 15.9447C68.8916 16.0412 68.8168 16.1749 68.7936 16.3217L68.6349 17.3244L68.3842 16.961C67.608 15.8345 65.8773 15.458 64.1499 15.458C60.1882 15.458 56.8046 18.4585 56.1456 22.6676C55.8029 24.7672 56.2901 26.7748 57.4811 28.1749C58.5736 29.4623 60.1368 29.9987 61.9967 29.9987C65.1888 29.9987 66.9589 27.9462 66.9589 27.9462L66.7991 28.9423C66.7848 29.0314 66.7901 29.1225 66.8144 29.2093C66.8388 29.2962 66.8817 29.3767 66.9401 29.4454C66.9986 29.5141 67.0713 29.5692 67.1531 29.6071C67.235 29.645 67.3241 29.6647 67.4143 29.6648H70.6436C70.8916 29.6649 71.1315 29.5764 71.32 29.4152C71.5085 29.254 71.6331 29.0308 71.6715 28.7858L73.6091 16.5154C73.6234 16.4266 73.6182 16.3357 73.5939 16.249C73.5696 16.1623 73.5267 16.082 73.4683 16.0135C73.41 15.945 73.3374 15.89 73.2557 15.8523C73.1739 15.8146 73.085 15.7951 72.995 15.7951ZM67.9977 22.7727C67.6518 24.8208 66.0262 26.1958 63.9529 26.1958C62.9118 26.1958 62.0799 25.8619 61.5457 25.2291C61.0158 24.6008 60.8144 23.7064 60.983 22.7103C61.3059 20.6796 62.9589 19.2598 65.0005 19.2598C66.0186 19.2598 66.8461 19.5981 67.3913 20.2363C67.9375 20.881 68.1543 21.7809 67.9977 22.7727ZM92.0886 15.7951H88.4859C88.316 15.7954 88.1488 15.8371 87.9986 15.9167C87.8485 15.9962 87.7201 16.1112 87.6244 16.2516L82.6556 23.5707L80.5494 16.5373C80.4848 16.3228 80.3528 16.1348 80.173 16.0011C79.9932 15.8675 79.7751 15.7952 79.5511 15.7951H76.0109C75.9115 15.7949 75.8135 15.8183 75.725 15.8636C75.6366 15.9088 75.5602 15.9746 75.5022 16.0553C75.4443 16.1361 75.4065 16.2295 75.392 16.3278C75.3774 16.4261 75.3866 16.5265 75.4186 16.6205L79.3869 28.2658L75.6562 33.5324C75.5899 33.6257 75.5506 33.7355 75.5425 33.8498C75.5345 33.964 75.558 34.0783 75.6106 34.18C75.6632 34.2818 75.7427 34.3671 75.8405 34.4266C75.9384 34.4862 76.0507 34.5176 76.1652 34.5176H79.7635C79.9315 34.5178 80.097 34.4773 80.2459 34.3995C80.3948 34.3217 80.5226 34.209 80.6184 34.0709L92.6009 16.7749C92.6658 16.6813 92.7039 16.5717 92.711 16.458C92.7181 16.3444 92.694 16.2309 92.6412 16.13C92.5884 16.029 92.509 15.9445 92.4116 15.8854C92.3142 15.8264 92.2025 15.7952 92.0886 15.7951Z" fill="#253B80"/>
<path d="M104.015 8.87024H96.5272C96.2796 8.87034 96.0401 8.95882 95.8519 9.11976C95.6636 9.28071 95.539 9.50354 95.5004 9.74818L92.4725 28.9457C92.4584 29.0347 92.4638 29.1256 92.4882 29.2122C92.5127 29.2989 92.5556 29.3792 92.6141 29.4477C92.6726 29.5162 92.7452 29.5711 92.827 29.6088C92.9087 29.6465 92.9977 29.666 93.0877 29.666H96.9301C97.1034 29.6658 97.271 29.6037 97.4026 29.4909C97.5343 29.3781 97.6214 29.2221 97.6482 29.0508L98.5075 23.6091C98.5459 23.3643 98.6704 23.1412 98.8587 22.98C99.0469 22.8189 99.2865 22.7302 99.5343 22.7301H101.903C106.836 22.7301 109.681 20.3437 110.425 15.6146C110.761 13.5456 110.439 11.92 109.47 10.7816C108.407 9.53143 106.521 8.87024 104.015 8.87024ZM104.879 15.8817C104.47 18.5681 102.418 18.5681 100.432 18.5681H99.3034L100.097 13.5511C100.12 13.4043 100.194 13.2706 100.307 13.174C100.42 13.0774 100.564 13.0244 100.712 13.0246H101.23C102.581 13.0246 103.857 13.0246 104.516 13.7952C104.909 14.255 105.029 14.9381 104.879 15.8817ZM126.393 15.7952H122.81C122.661 15.7948 122.517 15.8477 122.404 15.9444C122.291 16.041 122.217 16.1749 122.194 16.3218L122.036 17.3245L121.784 16.9611C121.008 15.8346 119.278 15.4581 117.551 15.4581C113.589 15.4581 110.206 18.4586 109.547 22.6677C109.206 24.7673 109.691 26.775 110.882 28.1751C111.977 29.4624 113.538 29.9988 115.397 29.9988C118.59 29.9988 120.36 27.9463 120.36 27.9463L120.2 28.9424C120.186 29.0317 120.191 29.123 120.215 29.21C120.24 29.297 120.283 29.3776 120.342 29.4463C120.4 29.515 120.473 29.5702 120.555 29.6079C120.638 29.6457 120.727 29.6651 120.817 29.6649H124.046C124.293 29.6648 124.533 29.5762 124.721 29.415C124.909 29.2538 125.034 29.0307 125.072 28.7859L127.011 16.5155C127.025 16.4264 127.019 16.3353 126.994 16.2486C126.97 16.1619 126.926 16.0815 126.867 16.0131C126.809 15.9447 126.736 15.8898 126.654 15.8522C126.572 15.8145 126.483 15.7951 126.393 15.7952ZM121.395 22.7728C121.052 24.8209 119.424 26.1959 117.35 26.1959C116.312 26.1959 115.477 25.862 114.943 25.2293C114.413 24.6009 114.214 23.7065 114.381 22.7104C114.706 20.6797 116.356 19.2599 118.398 19.2599C119.416 19.2599 120.244 19.5982 120.789 20.2364C121.337 20.8812 121.554 21.781 121.395 22.7728ZM130.619 9.39678L127.546 28.9457C127.532 29.0347 127.538 29.1256 127.562 29.2122C127.586 29.2989 127.629 29.3792 127.688 29.4477C127.746 29.5162 127.819 29.5711 127.901 29.6088C127.983 29.6465 128.072 29.666 128.162 29.666H131.251C131.764 29.666 132.2 29.2938 132.279 28.787L135.309 9.59054C135.323 9.50156 135.317 9.41058 135.293 9.32387C135.269 9.23716 135.226 9.15677 135.167 9.08822C135.109 9.01968 135.036 8.9646 134.954 8.92678C134.873 8.88896 134.784 8.8693 134.694 8.86914H131.234C131.086 8.86967 130.942 8.92305 130.83 9.01974C130.717 9.11642 130.642 9.25008 130.619 9.39678Z" fill="#179BD7"/>
<path d="M7.98395 33.3961L8.55647 29.7596L7.28116 29.73H1.19141L5.42347 2.89592C5.43607 2.81393 5.47771 2.7392 5.54081 2.68534C5.60391 2.63149 5.68425 2.60211 5.7672 2.60254H16.0354C19.4442 2.60254 21.7967 3.3119 23.025 4.71201C23.6008 5.36882 23.9675 6.05519 24.1448 6.81053C24.3309 7.60308 24.3342 8.54999 24.1525 9.70488L24.1394 9.78917V10.5292L24.7152 10.8554C25.1547 11.0781 25.5499 11.3794 25.881 11.7443C26.3736 12.3059 26.6922 13.0196 26.8268 13.8658C26.9658 14.7361 26.9199 15.7716 26.6922 16.9441C26.4294 18.2927 26.0047 19.4673 25.4311 20.4285C24.925 21.2895 24.2445 22.0352 23.4333 22.6178C22.6714 23.1586 21.7661 23.5691 20.7425 23.8318C19.7508 24.0902 18.6199 24.2205 17.3797 24.2205H16.5805C16.0091 24.2205 15.4541 24.4263 15.0184 24.7952C14.5833 25.168 14.2947 25.6832 14.204 26.2489L14.1438 26.5762L13.1323 32.9856L13.0863 33.221C13.0742 33.2954 13.0535 33.3326 13.0228 33.3578C12.9931 33.3821 12.9561 33.3956 12.9177 33.3961H7.98395Z" fill="#253B80"/>
<path d="M25.2607 9.875C25.2301 10.0709 25.1951 10.2713 25.1557 10.4771C23.8015 17.4294 19.1688 19.8312 13.252 19.8312H10.2394C9.51584 19.8312 8.9061 20.3566 8.79335 21.0704L7.25093 30.8525L6.81415 33.6254C6.79675 33.7354 6.8034 33.8478 6.83362 33.955C6.86385 34.0622 6.91695 34.1615 6.98925 34.2462C7.06156 34.3309 7.15136 34.3989 7.25247 34.4455C7.35358 34.4922 7.46361 34.5164 7.57496 34.5164H12.9181C13.5509 34.5164 14.0884 34.0567 14.188 33.4327L14.2405 33.1612L15.2465 26.777L15.3111 26.4267C15.4096 25.8005 15.9482 25.3408 16.581 25.3408H17.3801C22.5569 25.3408 26.6094 23.239 27.7939 17.1569C28.2887 14.6161 28.0325 12.4946 26.7233 11.0025C26.3083 10.541 25.8127 10.1589 25.2607 9.875Z" fill="#179BD7"/>
<path d="M23.8438 9.30967C23.4115 9.1846 22.9716 9.08697 22.5269 9.01739C21.6482 8.88235 20.7602 8.81756 19.8712 8.82363H11.8231C11.5168 8.8234 11.2205 8.93274 10.9878 9.13191C10.7551 9.33107 10.6014 9.60691 10.5543 9.90956L8.84223 20.7535L8.79297 21.0699C8.84631 20.7247 9.02144 20.41 9.28668 20.1827C9.55192 19.9554 9.88975 19.8306 10.2391 19.8307H13.2516C19.1684 19.8307 23.8011 17.4279 25.1553 10.4766C25.1958 10.2708 25.2297 10.0705 25.2604 9.87453C24.903 9.68715 24.5306 9.53006 24.1471 9.40491C24.0465 9.37155 23.9454 9.3398 23.8438 9.30967Z" fill="#222D65"/>
<path d="M10.5555 9.91043C10.6021 9.60769 10.7558 9.33172 10.9886 9.13266C11.2214 8.93359 11.5179 8.82464 11.8242 8.82559H19.8724C20.8259 8.82559 21.7158 8.88799 22.5281 9.01935C23.0777 9.10574 23.6198 9.23494 24.1493 9.40578C24.5489 9.53823 24.92 9.69477 25.2626 9.8754C25.6655 7.30616 25.2593 5.55685 23.8702 3.97284C22.3387 2.229 19.5746 1.48242 16.0377 1.48242H5.76951C5.04701 1.48242 4.4307 2.00787 4.31905 2.7227L0.042098 29.8327C0.0221767 29.9585 0.0297561 30.0872 0.0643148 30.2099C0.0988735 30.3325 0.159591 30.4462 0.242292 30.5432C0.324992 30.6402 0.427712 30.718 0.543386 30.7715C0.65906 30.825 0.784943 30.8527 0.912375 30.8529H7.25172L8.84339 20.7544L10.5555 9.91043Z" fill="#253B80"/>
</g>
<defs>
<clipPath id="clip0_8835_25545">
<rect width="135.338" height="36" fill="white"/>
</clipPath>
</defs>
</svg>
