<svg width="40" height="40" viewBox="0 0 40 40" fill="none" xmlns="http://www.w3.org/2000/svg">
<path d="M34.2163 16.7854C34.2644 11.1459 29.4612 5.97593 23.5093 5.26102C23.3909 5.24699 23.2619 5.22562 23.1254 5.20301C22.8307 5.15419 22.526 5.104 22.2186 5.104C20.9987 5.104 20.6726 5.9609 20.5868 6.47195C20.5033 6.96885 20.5829 7.38612 20.823 7.7127C21.227 8.26202 21.9378 8.35953 22.5088 8.43767C22.6761 8.46077 22.834 8.48226 22.9662 8.51195C28.3137 9.70686 30.1144 11.5855 30.9944 16.8876C31.0158 17.0172 31.0255 17.1768 31.0358 17.3461C31.0742 17.9799 31.1542 19.2985 32.5719 19.2985H32.572C32.69 19.2985 32.8168 19.2884 32.9489 19.2682C34.269 19.0676 34.2276 17.8623 34.2078 17.2831C34.2022 17.12 34.1968 16.9657 34.2106 16.8631C34.2143 16.8373 34.2162 16.8113 34.2163 16.7854Z" fill="#0066B3"/>
<path d="M21.8723 3.19106C22.0306 3.20248 22.1806 3.21342 22.3054 3.23255C31.0867 4.58298 35.125 8.74348 36.2442 17.5934C36.2632 17.7439 36.2662 17.9273 36.2693 18.1216C36.2804 18.813 36.3034 20.2514 37.8482 20.2812L37.8961 20.2817C38.3806 20.2817 38.7659 20.1357 39.0416 19.8472C39.5224 19.3442 39.4889 18.597 39.4618 17.9965C39.4552 17.8492 39.4489 17.7104 39.4505 17.5889C39.5622 8.53776 31.7274 0.330186 22.6843 0.0249689C22.6468 0.0237267 22.611 0.0257143 22.5749 0.0308075C22.5571 0.0334161 22.5242 0.036646 22.4678 0.036646C22.3776 0.036646 22.2667 0.0288199 22.149 0.0208696C22.0068 0.0111801 21.8455 0 21.6821 0C20.2419 0 19.9682 1.0236 19.9331 1.63379C19.8524 3.04398 21.2166 3.14323 21.8723 3.19106Z" fill="#0066B3"/>
<path d="M35.8205 29.0314C35.6338 28.8888 35.4407 28.7412 35.26 28.5956C34.3012 27.8241 33.2812 27.1129 32.2948 26.4251C32.09 26.2825 31.8853 26.1397 31.6813 25.9966C30.4177 25.1091 29.2817 24.6778 28.2084 24.6778C26.7628 24.6778 25.5025 25.4765 24.4622 27.0515C24.0013 27.7498 23.4422 28.0893 22.7531 28.0893C22.3457 28.0893 21.8827 27.973 21.3772 27.7436C17.2986 25.894 14.3862 23.0583 12.7207 19.315C11.9156 17.5058 12.1766 16.3232 13.5935 15.3607C14.3981 14.8147 15.8958 13.798 15.7897 11.8512C15.6695 9.64037 10.7915 2.98832 8.73625 2.23279C7.86606 1.91279 6.95178 1.90981 6.01389 2.22533C3.65116 3.01962 1.95563 4.41453 1.11016 6.259C0.293144 8.04123 0.330038 10.1339 1.21687 12.3108C3.7806 18.6047 7.38507 24.0922 11.9305 28.6205C16.3797 33.0533 21.8482 36.6843 28.1838 39.4124C28.7549 39.6581 29.3539 39.7922 29.7913 39.8899C29.9403 39.9235 30.069 39.952 30.1628 39.9778C30.2144 39.9918 30.2676 39.9994 30.3208 39.9999L30.3709 40.0001C30.371 40.0001 30.3709 40.0001 30.3712 40.0001C33.351 40.0001 36.929 37.2771 38.0279 34.1728C38.9907 31.4545 37.2329 30.1109 35.8205 29.0314Z" fill="#348C41"/>
<path d="M23.1902 10.3805C22.68 10.3934 21.6182 10.4197 21.2457 11.5011C21.0714 12.0064 21.0923 12.4452 21.3078 12.8052C21.6241 13.3334 22.23 13.4953 22.7812 13.5841C24.7801 13.9048 25.8067 15.0102 26.012 17.0623C26.1074 18.0192 26.7518 18.6874 27.5791 18.6874H27.5792C27.6403 18.6874 27.7028 18.6838 27.7651 18.6763C28.7601 18.5579 29.2425 17.8268 29.1989 16.5036C29.2148 15.1226 28.492 13.5548 27.2628 12.3059C26.0294 11.0533 24.5426 10.3478 23.1902 10.3805Z" fill="#0066B3"/>
</svg>
