<svg width="19" height="19" viewBox="0 0 19 19" fill="none" xmlns="http://www.w3.org/2000/svg">
<g clip-path="url(#clip0_9778_2874)">
<mask id="path-1-inside-1_9778_2874" fill="white">
<path d="M11.2418 12.8733C8.9368 11.8973 7.10382 10.0601 6.1332 7.75279L8.82486 5.05637L3.86903 0.0965833L1.35865 2.60617C0.923238 3.04407 0.578979 3.56397 0.345796 4.13579C0.112612 4.70761 -0.00486733 5.31999 0.000154455 5.9375C0.000154455 11.6755 7.32465 19 13.0627 19C13.6801 19.0054 14.2925 18.8881 14.8642 18.6549C15.436 18.4217 15.9557 18.0772 16.3932 17.6415L18.9036 15.1311L13.9438 10.1713L11.2418 12.8733ZM15.273 16.5221C14.9823 16.8103 14.6371 17.0378 14.2577 17.1914C13.8782 17.3449 13.472 17.4215 13.0627 17.4167C8.1282 17.4167 1.58349 10.872 1.58349 5.9375C1.57883 5.52807 1.6555 5.1218 1.80907 4.74224C1.96263 4.36267 2.19003 4.01738 2.47807 3.72637L3.86903 2.33542L6.58999 5.05637L4.26645 7.37992L4.4604 7.866C5.03139 9.39337 5.92401 10.7802 7.07777 11.9324C8.23154 13.0847 9.6195 13.9755 11.1476 14.5445L11.6274 14.7274L13.9438 12.4102L16.6647 15.1311L15.273 16.5221ZM11.0835 1.58333V0C13.1824 0.00230501 15.1947 0.83712 16.6789 2.32128C18.163 3.80545 18.9978 5.81774 19.0002 7.91667H17.4168C17.4149 6.23754 16.7471 4.62773 15.5597 3.44041C14.3724 2.25308 12.7626 1.58522 11.0835 1.58333V1.58333ZM11.0835 4.75V3.16667C12.3429 3.16792 13.5503 3.66877 14.4409 4.5593C15.3314 5.44982 15.8322 6.65727 15.8335 7.91667H14.2502C14.2502 7.07681 13.9165 6.27136 13.3227 5.67749C12.7288 5.08363 11.9233 4.75 11.0835 4.75Z"/>
</mask>
<path d="M11.2418 12.8733C8.9368 11.8973 7.10382 10.0601 6.1332 7.75279L8.82486 5.05637L3.86903 0.0965833L1.35865 2.60617C0.923238 3.04407 0.578979 3.56397 0.345796 4.13579C0.112612 4.70761 -0.00486733 5.31999 0.000154455 5.9375C0.000154455 11.6755 7.32465 19 13.0627 19C13.6801 19.0054 14.2925 18.8881 14.8642 18.6549C15.436 18.4217 15.9557 18.0772 16.3932 17.6415L18.9036 15.1311L13.9438 10.1713L11.2418 12.8733ZM15.273 16.5221C14.9823 16.8103 14.6371 17.0378 14.2577 17.1914C13.8782 17.3449 13.472 17.4215 13.0627 17.4167C8.1282 17.4167 1.58349 10.872 1.58349 5.9375C1.57883 5.52807 1.6555 5.1218 1.80907 4.74224C1.96263 4.36267 2.19003 4.01738 2.47807 3.72637L3.86903 2.33542L6.58999 5.05637L4.26645 7.37992L4.4604 7.866C5.03139 9.39337 5.92401 10.7802 7.07777 11.9324C8.23154 13.0847 9.6195 13.9755 11.1476 14.5445L11.6274 14.7274L13.9438 12.4102L16.6647 15.1311L15.273 16.5221ZM11.0835 1.58333V0C13.1824 0.00230501 15.1947 0.83712 16.6789 2.32128C18.163 3.80545 18.9978 5.81774 19.0002 7.91667H17.4168C17.4149 6.23754 16.7471 4.62773 15.5597 3.44041C14.3724 2.25308 12.7626 1.58522 11.0835 1.58333V1.58333ZM11.0835 4.75V3.16667C12.3429 3.16792 13.5503 3.66877 14.4409 4.5593C15.3314 5.44982 15.8322 6.65727 15.8335 7.91667H14.2502C14.2502 7.07681 13.9165 6.27136 13.3227 5.67749C12.7288 5.08363 11.9233 4.75 11.0835 4.75Z" fill="#374957"/>
<path d="M11.2418 12.8733L2.92388 32.5182L16.1617 38.1233L26.3268 27.9582L11.2418 12.8733ZM6.1332 7.75279L-8.96504 -7.31885L-19.0861 2.82004L-13.531 16.0251L6.1332 7.75279ZM8.82486 5.05637L23.9231 20.128L38.9755 5.0491L23.9158 -10.0225L8.82486 5.05637ZM3.86903 0.0965833L18.96 -14.9823L3.87743 -30.0769L-11.2135 -14.9907L3.86903 0.0965833ZM1.35865 2.60617L-13.7239 -12.4812L-13.7466 -12.4585L-13.7692 -12.4357L1.35865 2.60617ZM0.000154455 5.9375L21.3335 5.9375V5.85076L21.3328 5.76402L0.000154455 5.9375ZM13.0627 19L13.2492 -2.33252L13.1559 -2.33333H13.0627V19ZM16.3932 17.6415L31.4468 32.7577L31.4625 32.7421L31.4781 32.7264L16.3932 17.6415ZM18.9036 15.1311L33.9885 30.2161L49.0735 15.1311L33.9885 0.0461815L18.9036 15.1311ZM13.9438 10.1713L29.0287 -4.91361L13.9438 -19.9986L-1.14116 -4.91361L13.9438 10.1713ZM15.273 16.5221L30.292 31.6727L30.3229 31.6421L30.3536 31.6113L15.273 16.5221ZM13.0627 17.4167L13.3162 -3.91516L13.1894 -3.91667H13.0627V17.4167ZM1.58349 5.9375H22.9168V5.81604L22.9154 5.69459L1.58349 5.9375ZM2.47807 3.72637L-12.6069 -11.3586L-12.6454 -11.32L-12.6838 -11.2813L2.47807 3.72637ZM3.86903 2.33542L18.954 -12.7495L3.86903 -27.8345L-11.2159 -12.7495L3.86903 2.33542ZM6.58999 5.05637L21.6749 20.1413L36.7599 5.05638L21.6749 -10.0286L6.58999 5.05637ZM4.26645 7.37992L-10.8185 -7.70503L-20.7563 2.2328L-15.5477 15.2862L4.26645 7.37992ZM4.4604 7.866L24.4431 0.395752L24.3612 0.176802L24.2746 -0.0403011L4.4604 7.866ZM11.1476 14.5445L18.7463 -5.38967L18.6692 -5.41907L18.5918 -5.44787L11.1476 14.5445ZM11.6274 14.7274L4.02867 34.6615L16.9435 39.5845L26.7149 29.8097L11.6274 14.7274ZM13.9438 12.4102L29.0287 -2.67477L13.9412 -17.7623L-1.14375 -2.6722L13.9438 12.4102ZM16.6647 15.1311L31.7454 30.2204L46.8389 15.1354L31.7497 0.0461855L16.6647 15.1311ZM11.0835 0L11.1069 -21.3333L-10.2498 -21.3568L-10.2498 0H11.0835ZM19.0002 7.91667V29.25H40.3569L40.3335 7.89324L19.0002 7.91667ZM17.4168 7.91667L-3.9165 7.94063L-3.89257 29.25H17.4168V7.91667ZM11.0835 1.58333H-10.2498V22.8927L11.0595 22.9167L11.0835 1.58333ZM11.0835 4.75H-10.2498V26.0833L11.0835 26.0833L11.0835 4.75ZM11.0835 3.16667L11.1048 -18.1667L-10.2498 -18.188V3.16667H11.0835ZM15.8335 7.91667V29.25H37.1881L37.1668 7.89536L15.8335 7.91667ZM14.2502 7.91667H-7.08318V29.25H14.2502V7.91667ZM19.5598 -6.77163C22.3742 -5.57997 24.6122 -3.3367 25.7974 -0.519513L-13.531 16.0251C-10.4046 23.4569 -4.50059 29.3746 2.92388 32.5182L19.5598 -6.77163ZM21.2314 22.8244L23.9231 20.128L-6.27337 -10.0153L-8.96504 -7.31885L21.2314 22.8244ZM23.9158 -10.0225L18.96 -14.9823L-11.2219 15.1755L-6.2661 20.1353L23.9158 -10.0225ZM-11.2135 -14.9907L-13.7239 -12.4812L16.4412 17.6935L18.9516 15.1839L-11.2135 -14.9907ZM-13.7692 -12.4357C-16.1933 -9.99775 -18.11 -7.10328 -19.4082 -3.91977L20.0998 12.1914C19.2679 14.2312 18.0398 16.0859 16.4865 17.6481L-13.7692 -12.4357ZM-19.4082 -3.91977C-20.7064 -0.736269 -21.3604 2.67307 -21.3325 6.11098L21.3328 5.76402C21.3507 7.96691 20.9316 10.1515 20.0998 12.1914L-19.4082 -3.91977ZM-21.3332 5.9375C-21.3332 16.8499 -15.1733 25.2374 -10.7053 29.7054C-6.23724 34.1735 2.15024 40.3333 13.0627 40.3333V-2.33333C16.0139 -2.33333 17.8797 -1.45425 18.4398 -1.16313C19.1125 -0.813471 19.3928 -0.536272 19.4646 -0.464446C19.5364 -0.39262 19.8136 -0.112346 20.1633 0.560359C20.4544 1.12045 21.3335 2.98629 21.3335 5.9375L-21.3332 5.9375ZM12.8761 40.3325C16.319 40.3626 19.7335 39.7085 22.9214 38.4082L6.80701 -1.09841C8.85149 -1.93234 11.0413 -2.35182 13.2492 -2.33252L12.8761 40.3325ZM22.9214 38.4082C26.1094 37.1078 29.0072 35.1872 31.4468 32.7577L1.33956 2.52532C2.9041 0.967244 4.76255 -0.264497 6.80701 -1.09841L22.9214 38.4082ZM31.4781 32.7264L33.9885 30.2161L3.81863 0.0461792L1.30825 2.55655L31.4781 32.7264ZM33.9885 0.0461815L29.0287 -4.91361L-1.14117 25.2563L3.81862 30.2161L33.9885 0.0461815ZM-1.14116 -4.91361L-3.84312 -2.21165L26.3268 27.9582L29.0287 25.2563L-1.14116 -4.91361ZM0.254016 1.37145C1.97209 -0.331688 4.01168 -1.67615 6.25414 -2.58374L22.2612 36.9665C25.2626 35.7517 27.9924 33.9523 30.292 31.6727L0.254016 1.37145ZM6.25414 -2.58374C8.49659 -3.49132 10.8972 -3.94391 13.3162 -3.91516L12.8091 38.7485C16.0468 38.787 19.2598 38.1812 22.2612 36.9665L6.25414 -2.58374ZM13.0627 -3.91667C16.3524 -3.91667 18.4753 -2.90362 19.1517 -2.54628C19.9705 -2.11376 20.3806 -1.73444 20.5576 -1.55744C20.7346 -1.38044 21.1139 -0.970352 21.5464 -0.151571C21.9038 0.524903 22.9168 2.64773 22.9168 5.9375H-19.7498C-19.7498 16.6075 -13.6095 24.6152 -9.6123 28.6124C-5.61506 32.6097 2.39266 38.75 13.0627 38.75V-3.91667ZM22.9154 5.69459C22.9429 8.10905 22.4908 10.5049 21.5852 12.7433L-17.967 -3.25884C-19.1798 -0.261345 -19.7853 2.9471 -19.7485 6.18041L22.9154 5.69459ZM21.5852 12.7433C20.6796 14.9817 19.3385 17.018 17.6399 18.734L-12.6838 -11.2813C-14.9585 -8.9832 -16.7543 -6.25633 -17.967 -3.25884L21.5852 12.7433ZM17.563 18.8113L18.954 17.4204L-11.2159 -12.7495L-12.6069 -11.3586L17.563 18.8113ZM-11.2159 17.4204L-8.49495 20.1413L21.6749 -10.0286L18.954 -12.7495L-11.2159 17.4204ZM-8.49495 -10.0286L-10.8185 -7.70503L19.3514 22.4649L21.6749 20.1413L-8.49495 -10.0286ZM-15.5477 15.2862L-15.3538 15.7723L24.2746 -0.0403011L24.0806 -0.526385L-15.5477 15.2862ZM-15.5223 15.3362C-13.8807 19.7274 -11.3144 23.7145 -7.99734 27.0272L22.1529 -3.16234C23.1624 -2.15412 23.9435 -0.940687 24.4431 0.395752L-15.5223 15.3362ZM-7.99734 27.0272C-4.68027 30.34 -0.689898 32.901 3.70341 34.5369L18.5918 -5.44787C19.9289 -4.95001 21.1434 -4.17056 22.1529 -3.16234L-7.99734 27.0272ZM3.54892 34.4787L4.02867 34.6615L19.2261 -5.20679L18.7463 -5.38967L3.54892 34.4787ZM26.7149 29.8097L29.0313 27.4925L-1.14375 -2.6722L-3.46016 -0.35499L26.7149 29.8097ZM-1.14117 27.4951L1.57979 30.2161L31.7497 0.0461855L29.0287 -2.67477L-1.14117 27.4951ZM1.58408 0.0418906L0.192333 1.43285L30.3536 31.6113L31.7454 30.2204L1.58408 0.0418906ZM32.4168 1.58333V0H-10.2498V1.58333H32.4168ZM11.0601 21.3333C7.50915 21.3294 4.1048 19.9171 1.59393 17.4062L31.7638 -12.7637C26.2846 -18.2429 18.8557 -21.3248 11.1069 -21.3333L11.0601 21.3333ZM1.59393 17.4062C-0.916946 14.8954 -2.32927 11.491 -2.33317 7.94009L40.3335 7.89324C40.325 0.144484 37.243 -7.28446 31.7638 -12.7637L1.59393 17.4062ZM19.0002 -13.4167H17.4168V29.25H19.0002V-13.4167ZM38.7501 7.89271C38.7419 0.563929 35.8269 -6.46232 30.6447 -11.6445L0.474803 18.5254C-2.33278 15.7178 -3.91204 11.9112 -3.9165 7.94063L38.7501 7.89271ZM30.6447 -11.6445C25.4625 -16.8268 18.4362 -19.7418 11.1074 -19.75L11.0595 22.9167C7.089 22.9122 3.28238 21.3329 0.474803 18.5254L30.6447 -11.6445ZM32.4168 4.75V3.16667H-10.2498V4.75H32.4168ZM11.0622 24.5C6.67101 24.4956 2.46094 22.7493 -0.644088 19.6442L29.5258 -10.5256C24.6397 -15.4117 18.0148 -18.1598 11.1048 -18.1667L11.0622 24.5ZM-0.644088 19.6442C-3.74912 16.5392 -5.49545 12.3291 -5.49984 7.93797L37.1668 7.89536C37.1599 0.985407 34.4119 -5.63956 29.5258 -10.5256L-0.644088 19.6442ZM15.8335 -13.4167H14.2502V29.25H15.8335V-13.4167ZM35.5835 7.91667C35.5835 1.41885 33.0022 -4.81282 28.4076 -9.40745L-1.76229 20.7624C-5.16919 17.3555 -7.08318 12.7348 -7.08318 7.91667H35.5835ZM28.4076 -9.40745C23.813 -14.0021 17.5813 -16.5833 11.0835 -16.5833L11.0835 26.0833C6.26538 26.0833 1.64462 24.1693 -1.76229 20.7624L28.4076 -9.40745Z" fill="#8499A9" mask="url(#path-1-inside-1_9778_2874)"/>
</g>
<defs>
<clipPath id="clip0_9778_2874">
<rect width="19" height="19" fill="white"/>
</clipPath>
</defs>
</svg>
