<svg width="13" height="19" viewBox="0 0 13 19" fill="none" xmlns="http://www.w3.org/2000/svg">
<mask id="path-1-inside-1_9658_8337" fill="white">
<path d="M0.166504 0V16.625C0.166504 17.2549 0.416726 17.859 0.862125 18.3044C1.30752 18.7498 1.91161 19 2.5415 19H10.4582C11.0881 19 11.6922 18.7498 12.1375 18.3044C12.5829 17.859 12.8332 17.2549 12.8332 16.625V0H0.166504ZM11.2498 1.58333V12.6667H1.74984V1.58333H11.2498ZM10.4582 17.4167H2.5415C2.33154 17.4167 2.13018 17.3333 1.98171 17.1848C1.83324 17.0363 1.74984 16.835 1.74984 16.625V14.25H11.2498V16.625C11.2498 16.835 11.1664 17.0363 11.018 17.1848C10.8695 17.3333 10.6681 17.4167 10.4582 17.4167Z"/>
</mask>
<path d="M0.166504 0V16.625C0.166504 17.2549 0.416726 17.859 0.862125 18.3044C1.30752 18.7498 1.91161 19 2.5415 19H10.4582C11.0881 19 11.6922 18.7498 12.1375 18.3044C12.5829 17.859 12.8332 17.2549 12.8332 16.625V0H0.166504ZM11.2498 1.58333V12.6667H1.74984V1.58333H11.2498ZM10.4582 17.4167H2.5415C2.33154 17.4167 2.13018 17.3333 1.98171 17.1848C1.83324 17.0363 1.74984 16.835 1.74984 16.625V14.25H11.2498V16.625C11.2498 16.835 11.1664 17.0363 11.018 17.1848C10.8695 17.3333 10.6681 17.4167 10.4582 17.4167Z" fill="#404C56"/>
<path d="M0.166504 0V-21.3333H-21.1668V0H0.166504ZM2.5415 19V40.3333V19ZM10.4582 19L10.4582 40.3333L10.4582 19ZM12.8332 16.625H34.1665H12.8332ZM12.8332 0H34.1665V-21.3333H12.8332V0ZM11.2498 1.58333H32.5832V-19.75H11.2498V1.58333ZM11.2498 12.6667V34H32.5832V12.6667H11.2498ZM1.74984 12.6667H-19.5835V34H1.74984V12.6667ZM1.74984 1.58333V-19.75H-19.5835V1.58333H1.74984ZM1.74984 14.25V-7.08333H-19.5835V14.25H1.74984ZM11.2498 14.25H32.5832V-7.08333H11.2498V14.25ZM-21.1668 0V16.625H21.4998V0H-21.1668ZM-21.1668 16.625C-21.1668 22.9128 -18.669 28.9431 -14.2228 33.3893L15.9471 3.21943C19.5024 6.77481 21.4998 11.5969 21.4998 16.625H-21.1668ZM-14.2228 33.3893C-9.77664 37.8355 -3.74633 40.3333 2.5415 40.3333L2.5415 -2.33333C7.56956 -2.33333 12.3917 -0.335947 15.9471 3.21943L-14.2228 33.3893ZM2.5415 40.3333H10.4582V-2.33333H2.5415V40.3333ZM10.4582 40.3333C16.746 40.3333 22.7763 37.8355 27.2225 33.3893L-2.9474 3.21943C0.607987 -0.33595 5.43012 -2.33333 10.4582 -2.33333L10.4582 40.3333ZM27.2225 33.3893C31.6687 28.9431 34.1665 22.9128 34.1665 16.625L-8.50016 16.625C-8.50016 11.5969 -6.50278 6.77482 -2.9474 3.21943L27.2225 33.3893ZM34.1665 16.625V0H-8.50016V16.625H34.1665ZM12.8332 -21.3333H0.166504V21.3333H12.8332V-21.3333ZM-10.0835 1.58333V12.6667H32.5832V1.58333H-10.0835ZM11.2498 -8.66667H1.74984V34H11.2498V-8.66667ZM23.0832 12.6667V1.58333H-19.5835V12.6667H23.0832ZM1.74984 22.9167H11.2498V-19.75H1.74984V22.9167ZM10.4582 -3.91667H2.5415V38.75H10.4582V-3.91667ZM2.5415 -3.91667C7.98946 -3.91667 13.2143 -1.75249 17.0667 2.09985L-13.1032 32.2697C-8.95397 36.419 -3.32637 38.75 2.5415 38.75V-3.91667ZM17.0667 2.09985C20.919 5.95216 23.0832 11.177 23.0832 16.625H-19.5835C-19.5835 22.4929 -17.2525 28.1205 -13.1032 32.2697L17.0667 2.09985ZM23.0832 16.625V14.25H-19.5835V16.625H23.0832ZM1.74984 35.5833H11.2498V-7.08333H1.74984V35.5833ZM-10.0835 14.25V16.625H32.5832V14.25H-10.0835ZM-10.0835 16.625C-10.0835 11.1771 -7.91933 5.9522 -4.06698 2.09985L26.1029 32.2697C30.2522 28.1205 32.5832 22.4929 32.5832 16.625H-10.0835ZM-4.06698 2.09985C-0.214631 -1.7525 5.01024 -3.91667 10.4582 -3.91667V38.75C16.326 38.75 21.9536 36.419 26.1029 32.2697L-4.06698 2.09985Z" fill="#404C56" mask="url(#path-1-inside-1_9658_8337)"/>
<path d="M7.29135 15.041H5.70801V16.6244H7.29135V15.041Z" fill="#404C56"/>
</svg>
