<svg width="28" height="28" viewBox="0 0 28 28" fill="none" xmlns="http://www.w3.org/2000/svg">
<g clip-path="url(#clip0_9813_15327)">
<path d="M0 9.33268V16.3327H8.16667C8.16481 17.8792 7.54964 19.3619 6.45608 20.4554C5.36252 21.549 3.87986 22.1642 2.33333 22.166V25.666C4.80783 25.6632 7.18019 24.679 8.92993 22.9293C10.6797 21.1795 11.6639 18.8072 11.6667 16.3327V4.66602H4.66667C3.42899 4.66602 2.242 5.15768 1.36683 6.03285C0.491665 6.90802 0 8.09501 0 9.33268H0Z" fill="#404C56"/>
<path d="M21.0006 4.66602C19.763 4.66602 18.576 5.15768 17.7008 6.03285C16.8256 6.90802 16.334 8.09501 16.334 9.33268V16.3327H24.5006C24.4988 17.8792 23.8836 19.3619 22.79 20.4554C21.6965 21.549 20.2138 22.1642 18.6673 22.166V25.666C21.1418 25.6632 23.5142 24.679 25.2639 22.9293C27.0136 21.1795 27.9978 18.8072 28.0006 16.3327V4.66602H21.0006Z" fill="#404C56"/>
</g>
<defs>
<clipPath id="clip0_9813_15327">
<rect width="28" height="28" fill="white"/>
</clipPath>
</defs>
</svg>
