<svg width="62" height="62" viewBox="0 0 62 62" fill="none" xmlns="http://www.w3.org/2000/svg">
<g clip-path="url(#clip0_8828_18703)">
<path d="M10.8984 45.5312H23.7344C25.7372 45.5312 27.3672 47.1613 27.3672 49.1641V62H34.6328V49.1641C34.6328 43.1543 29.7441 38.2656 23.7344 38.2656H10.8984V34.6328L0 41.8984L10.8984 49.1641V45.5312Z" fill="#348C41"/>
<path d="M34.6328 20.6176V10.8984H38.2656L31 0L23.7344 10.8984H27.3672V25.1236C29.2616 22.9548 31.7639 21.3636 34.6328 20.6176Z" fill="#348C41"/>
<path d="M51.1016 23.7344H38.2656C32.2559 23.7344 27.3672 28.6231 27.3672 34.6328V35.1489C30.2361 35.8948 32.7384 37.4861 34.6328 39.6549V34.6328C34.6328 32.63 36.2628 31 38.2656 31H51.1016V34.6328L62 27.3672L51.1016 20.1016V23.7344Z" fill="#0066B3"/>
</g>
<defs>
<clipPath id="clip0_8828_18703">
<rect width="62" height="62" fill="white"/>
</clipPath>
</defs>
</svg>
