<svg width="16" height="15" viewBox="0 0 16 15" fill="none" xmlns="http://www.w3.org/2000/svg">
<path d="M9.35976 14.857C9.35976 13.3296 9.35976 11.9 9.35976 10.4218C5.54384 10.3631 2.49048 11.8789 0.0754018 14.8027C0.045424 14.7848 0.0160708 14.7753 0.0160708 14.7657C0.0248143 13.4273 -0.0901004 12.0839 0.190316 10.7564C0.889173 7.4463 3.62527 4.85837 6.90096 4.46568C7.64166 4.37692 8.3961 4.40821 9.14367 4.38331C9.19488 4.38139 9.2461 4.37373 9.33728 4.36543C9.33728 2.92109 9.33728 1.47995 9.33728 0.0387996C9.36413 0.0260292 9.39161 0.0132587 9.41847 0.000488281C11.6043 2.45625 13.7902 4.912 16.0005 7.39458C13.7996 9.86758 11.6125 12.3253 9.35976 14.857Z" fill="#8D93A2"/>
</svg>
