<svg width="62" height="62" viewBox="0 0 62 62" fill="none" xmlns="http://www.w3.org/2000/svg">
<path d="M29.1832 4.25684C22.1813 4.65875 15.6151 7.3796 10.374 12.0506L18.4796 20.1561C21.5299 17.6166 25.2337 16.082 29.1832 15.7211V4.25684Z" fill="#348C41"/>
<path d="M15.91 22.7241L7.80462 14.6187C3.12968 19.8583 0.40543 26.4249 0.000976562 33.4285H11.4658C11.8291 29.4783 13.3669 25.7742 15.91 22.7241Z" fill="#348C41"/>
<path d="M50.5341 33.4285H61.9989C61.5944 26.4249 58.8703 19.8583 54.1953 14.6187L46.0898 22.7241C48.6329 25.7741 50.1708 29.4783 50.5341 33.4285V33.4285Z" fill="#0066B3"/>
<path d="M50.5315 37.061C50.2769 39.8587 49.4785 42.1921 48.5342 44.0639C49.4554 45.4844 50.2234 46.685 50.7307 47.4822C52.1124 49.6537 51.8065 52.441 49.9867 54.2609C49.5449 54.7028 49.0401 55.0588 48.4932 55.322L50.3809 57.2098C50.7362 57.5651 51.2019 57.7428 51.6675 57.7428C52.1332 57.7428 52.5988 57.5651 52.954 57.2098C58.394 51.7704 61.5661 44.6725 62.0002 37.061H50.5315Z" fill="#0066B3"/>
<path d="M11.4688 37.061H0C0.434121 44.6725 3.60617 51.7704 9.04607 57.2099C9.40136 57.5652 9.86696 57.7429 10.3326 57.7429C10.7982 57.7429 11.2639 57.5651 11.6192 57.2099L17.1304 51.6984C17.8409 50.9878 17.8409 49.8357 17.1304 49.1251C15.6922 47.6869 12.0694 43.6603 11.4688 37.061V37.061Z" fill="#348C41"/>
<path d="M51.6255 12.0506C46.3845 7.37948 39.8183 4.65875 32.8164 4.25684V15.7211C36.7658 16.082 40.4697 17.6166 43.52 20.1561L51.6255 12.0506Z" fill="#0066B3"/>
<path d="M35.0365 31.2393C32.8112 29.014 29.1902 29.014 26.9649 31.2393C24.7396 33.4647 24.7396 37.0856 26.9649 39.3109C29.7762 42.1223 43.5924 50.9439 45.1586 51.9405C45.8768 52.3977 46.8162 52.2945 47.4182 51.6925C48.0202 51.0906 48.1234 50.1513 47.6662 49.4329C46.6695 47.8668 37.8478 34.0505 35.0365 31.2393V31.2393Z" fill="#00192D"/>
</svg>
