<svg width="19" height="20" viewBox="0 0 19 20" fill="none" xmlns="http://www.w3.org/2000/svg">
<g clip-path="url(#clip0_1_32832)">
<mask id="path-1-inside-1_1_32832" fill="white">
<path d="M19 19.5H2.375C1.74511 19.5 1.14102 19.2498 0.695621 18.8044C0.250222 18.359 0 17.7549 0 17.125L0 0.5H1.58333V17.125C1.58333 17.335 1.66674 17.5363 1.81521 17.6848C1.96367 17.8333 2.16504 17.9167 2.375 17.9167H19V19.5Z"/>
</mask>
<path d="M19 19.5H2.375C1.74511 19.5 1.14102 19.2498 0.695621 18.8044C0.250222 18.359 0 17.7549 0 17.125L0 0.5H1.58333V17.125C1.58333 17.335 1.66674 17.5363 1.81521 17.6848C1.96367 17.8333 2.16504 17.9167 2.375 17.9167H19V19.5Z" fill="#00192D"/>
<path d="M19 19.5V40.8333H40.3333V19.5H19ZM2.375 19.5V40.8333V19.5ZM0 17.125H-21.3333H0ZM0 0.5V-20.8333H-21.3333V0.5L0 0.5ZM1.58333 0.5H22.9167V-20.8333H1.58333V0.5ZM1.58333 17.125H-19.75H1.58333ZM19 17.9167H40.3333V-3.41667H19V17.9167ZM19 -1.83333H2.375V40.8333H19V-1.83333ZM2.375 -1.83333C7.40306 -1.83333 12.2252 0.164052 15.7806 3.71943L-14.3893 33.8893C-9.94314 38.3355 -3.91283 40.8333 2.375 40.8333V-1.83333ZM15.7806 3.71943C19.3359 7.27481 21.3333 12.0969 21.3333 17.125H-21.3333C-21.3333 23.4128 -18.8355 29.4431 -14.3893 33.8893L15.7806 3.71943ZM21.3333 17.125V0.5L-21.3333 0.5V17.125H21.3333ZM0 21.8333H1.58333V-20.8333H0V21.8333ZM-19.75 0.5V17.125H22.9167V0.5H-19.75ZM-19.75 17.125C-19.75 22.9929 -17.419 28.6205 -13.2697 32.7697L16.9002 2.59985C20.7525 6.45217 22.9167 11.677 22.9167 17.125H-19.75ZM-13.2697 32.7697C-9.12047 36.919 -3.49287 39.25 2.375 39.25V-3.41667C7.82295 -3.41667 13.0478 -1.25249 16.9002 2.59985L-13.2697 32.7697ZM2.375 39.25H19V-3.41667H2.375V39.25ZM-2.33333 17.9167V19.5H40.3333V17.9167H-2.33333Z" fill="#00192D" mask="url(#path-1-inside-1_1_32832)"/>
<path d="M12.6668 9.20898H11.0834V16.334H12.6668V9.20898Z" fill="#00192D"/>
<path d="M6.33333 9.20898H4.75V16.334H6.33333V9.20898Z" fill="#374957"/>
<path d="M15.8333 5.25H14.25V16.3333H15.8333V5.25Z" fill="#374957"/>
<path d="M9.49991 5.25H7.91656V16.3333H9.49991V5.25Z" fill="#374957"/>
</g>
<defs>
<clipPath id="clip0_1_32832">
<rect width="19" height="19" fill="white" transform="translate(0 0.5)"/>
</clipPath>
</defs>
</svg>
