<svg width="43" height="42" viewBox="0 0 43 42" fill="none" xmlns="http://www.w3.org/2000/svg">
<g clip-path="url(#clip0_8932_25260)">
<path d="M31.6345 12.6216C30.8568 9.27785 28.8777 6.33638 26.0732 4.35633C23.2688 2.37627 19.8346 1.49566 16.4234 1.88188C13.0122 2.26811 9.8618 3.89424 7.57105 6.45118C5.2803 9.00812 4.00889 12.3176 3.9985 15.7506C3.99594 17.9879 4.53641 20.1924 5.5735 22.1749C3.68547 23.1866 2.1897 24.8003 1.32383 26.7595C0.457964 28.7187 0.27167 30.9111 0.794547 32.9883C1.31742 35.0656 2.51948 36.9085 4.20973 38.2243C5.89998 39.5401 7.98147 40.2533 10.1235 40.2506H21.4985V36.7506H10.1235C8.63324 36.7551 7.19274 36.2146 6.07315 35.2311C4.95356 34.2475 4.23209 32.8886 4.04455 31.4102C3.857 29.9318 4.21632 28.4358 5.05486 27.2038C5.8934 25.9719 7.15333 25.0889 8.5975 24.7211L11.1122 24.0719L9.567 21.9841C8.22219 20.1843 7.49648 17.9973 7.4985 15.7506C7.51846 13.1011 8.53937 10.5571 10.3565 8.62873C12.1736 6.70039 14.6526 5.53034 17.2963 5.35321C19.9399 5.17608 22.5528 6.00497 24.611 7.67365C26.6691 9.34234 28.0203 11.7274 28.3935 14.3506L28.5685 15.6771L29.8933 15.8521C32.2312 16.1585 34.3976 17.2443 36.0423 18.9339C37.6871 20.6235 38.7141 22.8183 38.9575 25.1637C39.2009 27.509 38.6465 29.868 37.3837 31.8593C36.121 33.8507 34.2237 35.3581 31.9985 36.1381V39.7904C35.0336 39.0098 37.7185 37.2322 39.6221 34.7427C41.5258 32.2533 42.5378 29.1965 42.4958 26.0629C42.4539 22.9293 41.3603 19.9007 39.3906 17.4632C37.4209 15.0256 34.6894 13.3206 31.6345 12.6216V12.6216Z" fill="#0066B3"/>
<path d="M32.5117 30.9886L34.9862 28.5141L29.2235 22.7513C28.5671 22.0952 27.677 21.7266 26.749 21.7266C25.8209 21.7266 24.9308 22.0952 24.2745 22.7513L18.5117 28.5141L20.9862 30.9886L24.999 26.9758V42.0013H28.499V26.9758L32.5117 30.9886Z" fill="#0066B3"/>
</g>
<defs>
<clipPath id="clip0_8932_25260">
<rect width="42" height="42" fill="white" transform="translate(0.5)"/>
</clipPath>
</defs>
</svg>
