<svg width="14" height="18" viewBox="0 0 14 18" fill="none" xmlns="http://www.w3.org/2000/svg">
<path d="M13.75 18.0005H12.25V14.2182C12.2494 13.6302 12.0156 13.0665 11.5998 12.6507C11.184 12.2349 10.6203 12.0011 10.0322 12.0005H3.96775C3.37975 12.0011 2.816 12.2349 2.40022 12.6507C1.98444 13.0665 1.7506 13.6302 1.75 14.2182V18.0005H0.25V14.2182C0.251191 13.2326 0.643264 12.2877 1.34022 11.5907C2.03717 10.8938 2.98211 10.5017 3.96775 10.5005H10.0322C11.0179 10.5017 11.9628 10.8938 12.6598 11.5907C13.3567 12.2877 13.7488 13.2326 13.75 14.2182V18.0005Z" fill="#00192D"/>
<path d="M7 9C6.10999 9 5.23996 8.73608 4.49994 8.24162C3.75991 7.74715 3.18314 7.04435 2.84254 6.22208C2.50195 5.39981 2.41283 4.49501 2.58647 3.6221C2.7601 2.74918 3.18869 1.94736 3.81802 1.31802C4.44736 0.688685 5.24918 0.260102 6.1221 0.0864683C6.99501 -0.0871652 7.89981 0.00194979 8.72208 0.342544C9.54435 0.683138 10.2471 1.25991 10.7416 1.99994C11.2361 2.73996 11.5 3.60999 11.5 4.5C11.4988 5.69311 11.0243 6.83701 10.1807 7.68067C9.33701 8.52432 8.19311 8.99881 7 9V9ZM7 1.5C6.40666 1.5 5.82664 1.67595 5.33329 2.00559C4.83994 2.33524 4.45543 2.80377 4.22836 3.35195C4.0013 3.90013 3.94189 4.50333 4.05765 5.08527C4.1734 5.66722 4.45912 6.20177 4.87868 6.62132C5.29824 7.04088 5.83279 7.3266 6.41473 7.44236C6.99667 7.55811 7.59987 7.4987 8.14805 7.27164C8.69623 7.04458 9.16477 6.66006 9.49441 6.16671C9.82406 5.67337 10 5.09335 10 4.5C10 3.70435 9.68393 2.94129 9.12132 2.37868C8.55871 1.81607 7.79565 1.5 7 1.5Z" fill="#00192D"/>
</svg>
