<svg width="15" height="19" viewBox="0 0 15 19" fill="none" xmlns="http://www.w3.org/2000/svg">
<mask id="path-1-inside-1_9658_8173" fill="white">
<path d="M14.625 19.0007H13.0417V15.0083C13.041 14.3876 12.7942 13.7925 12.3553 13.3537C11.9164 12.9148 11.3214 12.6679 10.7007 12.6673H4.29929C3.67862 12.6679 3.08356 12.9148 2.64468 13.3537C2.2058 13.7925 1.95896 14.3876 1.95833 15.0083V19.0007H0.375V15.0083C0.376257 13.9679 0.790112 12.9704 1.52579 12.2348C2.26146 11.4991 3.25889 11.0852 4.29929 11.084H10.7007C11.7411 11.0852 12.7385 11.4991 13.4742 12.2348C14.2099 12.9704 14.6237 13.9679 14.625 15.0083V19.0007Z"/>
</mask>
<path d="M14.625 19.0007H13.0417V15.0083C13.041 14.3876 12.7942 13.7925 12.3553 13.3537C11.9164 12.9148 11.3214 12.6679 10.7007 12.6673H4.29929C3.67862 12.6679 3.08356 12.9148 2.64468 13.3537C2.2058 13.7925 1.95896 14.3876 1.95833 15.0083V19.0007H0.375V15.0083C0.376257 13.9679 0.790112 12.9704 1.52579 12.2348C2.26146 11.4991 3.25889 11.0852 4.29929 11.084H10.7007C11.7411 11.0852 12.7385 11.4991 13.4742 12.2348C14.2099 12.9704 14.6237 13.9679 14.625 15.0083V19.0007Z" fill="#404C56"/>
<path d="M14.625 19.0007V40.334H35.9583V19.0007H14.625ZM13.0417 19.0007H-8.29167V40.334H13.0417V19.0007ZM13.0417 15.0083H34.375V14.9975L34.375 14.9867L13.0417 15.0083ZM10.7007 12.6673L10.7223 -8.66601L10.7115 -8.66602H10.7007V12.6673ZM4.29929 12.6673V-8.66602H4.28849L4.27768 -8.66601L4.29929 12.6673ZM1.95833 15.0083L-19.375 14.9867L-19.375 14.9975V15.0083H1.95833ZM1.95833 19.0007V40.334H23.2917V19.0007H1.95833ZM0.375 19.0007H-20.9583V40.334H0.375V19.0007ZM0.375 15.0083L-20.9583 14.9825L-20.9583 14.9954V15.0083H0.375ZM4.29929 11.084V-10.2493H4.2864L4.27352 -10.2493L4.29929 11.084ZM10.7007 11.084L10.7265 -10.2493L10.7136 -10.2493H10.7007V11.084ZM14.625 15.0083H35.9583V14.9954L35.9583 14.9825L14.625 15.0083ZM14.625 -2.33268H13.0417V40.334H14.625V-2.33268ZM34.375 19.0007V15.0083H-8.29167V19.0007H34.375ZM34.375 14.9867C34.3686 8.71554 31.8746 2.70308 27.4403 -1.73128L-2.72962 28.4386C-6.28623 24.882 -8.28656 20.0597 -8.29166 15.0299L34.375 14.9867ZM27.4403 -1.73128C23.0059 -6.16565 16.9934 -8.65965 10.7223 -8.66601L10.6791 34.0006C5.64931 33.9955 0.826983 31.9952 -2.72962 28.4386L27.4403 -1.73128ZM10.7007 -8.66602H4.29929V34.0007H10.7007V-8.66602ZM4.27768 -8.66601C-1.99345 -8.65965 -8.00591 -6.16564 -12.4403 -1.73128L17.7296 28.4386C14.173 31.9952 9.3507 33.9955 4.3209 34.0006L4.27768 -8.66601ZM-12.4403 -1.73128C-16.8746 2.70308 -19.3686 8.71554 -19.375 14.9867L23.2917 15.0299C23.2866 20.0597 21.2862 24.882 17.7296 28.4386L-12.4403 -1.73128ZM-19.375 15.0083V19.0007H23.2917V15.0083H-19.375ZM1.95833 -2.33268H0.375V40.334H1.95833V-2.33268ZM21.7083 19.0007V15.0083H-20.9583V19.0007H21.7083ZM21.7083 15.0341C21.7028 19.6427 19.8695 24.0609 16.6107 27.3197L-13.5592 -2.85017C-18.2893 1.87997 -20.9502 8.29309 -20.9583 14.9825L21.7083 15.0341ZM16.6107 27.3197C13.3519 30.5785 8.93369 32.4117 4.32507 32.4173L4.27352 -10.2493C-2.4159 -10.2413 -8.82902 -7.58031 -13.5592 -2.85017L16.6107 27.3197ZM4.29929 32.4173H10.7007V-10.2493H4.29929V32.4173ZM10.6749 32.4173C6.06632 32.4117 1.64806 30.5785 -1.61073 27.3197L28.5592 -2.85017C23.829 -7.58031 17.4159 -10.2413 10.7265 -10.2493L10.6749 32.4173ZM-1.61073 27.3197C-4.86952 24.0609 -6.70275 19.6427 -6.70832 15.0341L35.9583 14.9825C35.9502 8.29309 33.2893 1.87997 28.5592 -2.85017L-1.61073 27.3197ZM-6.70833 15.0083V19.0007H35.9583V15.0083H-6.70833Z" fill="#404C56" mask="url(#path-1-inside-1_9658_8173)"/>
<path d="M7.5 9.5C6.56054 9.5 5.64218 9.22142 4.86104 8.69948C4.07991 8.17755 3.47109 7.4357 3.11157 6.56775C2.75206 5.6998 2.65799 4.74473 2.84127 3.82332C3.02455 2.90191 3.47695 2.05554 4.14125 1.39124C4.80554 0.726945 5.65191 0.274552 6.57332 0.091272C7.49473 -0.0920077 8.4498 0.00205811 9.31775 0.361574C10.1857 0.721091 10.9275 1.32991 11.4495 2.11104C11.9714 2.89218 12.25 3.81054 12.25 4.75C12.2487 6.00939 11.7479 7.21685 10.8574 8.10737C9.96685 8.9979 8.75939 9.49874 7.5 9.5V9.5ZM7.5 1.58334C6.87369 1.58334 6.26145 1.76906 5.7407 2.11701C5.21994 2.46497 4.81406 2.95954 4.57438 3.53817C4.33471 4.1168 4.272 4.75351 4.39418 5.36779C4.51637 5.98206 4.81796 6.54631 5.26083 6.98917C5.7037 7.43204 6.26794 7.73364 6.88222 7.85582C7.49649 7.97801 8.1332 7.9153 8.71183 7.67562C9.29047 7.43594 9.78503 7.03006 10.133 6.50931C10.4809 5.98855 10.6667 5.37631 10.6667 4.75C10.6667 3.91015 10.333 3.1047 9.73917 2.51083C9.14531 1.91697 8.33985 1.58334 7.5 1.58334Z" fill="#404C56"/>
</svg>
