<svg width="42" height="28" viewBox="0 0 42 28" fill="none" xmlns="http://www.w3.org/2000/svg">
<g clip-path="url(#clip0_6_13216)">
<path d="M41.2226 25.5935C41.2226 26.9183 40.1481 27.9923 38.8227 27.9923H3.02254C1.69709 27.9924 0.62262 26.9183 0.62262 25.5935V2.40564C0.62262 1.08077 1.69709 0.00683594 3.02254 0.00683594H38.8227C40.1482 0.00683594 41.2226 1.08085 41.2226 2.40564V25.5935Z" fill="white"/>
<path d="M9.6339 14.1606L8.6806 9.58973C8.51764 8.9594 8.04345 8.77188 7.45094 8.74707H3.08026L3.04132 8.95591C6.44546 9.78074 8.69788 11.7706 9.6339 14.1606Z" fill="#F79F1A"/>
<path d="M19.7612 8.83984H16.9372L15.1735 19.1851H17.9928L19.7612 8.83984Z" fill="#059BBF"/>
<path d="M11.355 19.1745L15.7965 8.84668H12.8077L10.0447 15.9028L9.74984 14.8374C9.20824 13.5557 7.66037 11.711 5.8432 10.5498L8.36881 19.1779L11.355 19.1745Z" fill="#059BBF"/>
<path d="M27.816 15.8025C27.8265 14.628 27.072 13.7321 25.446 12.9922C24.4579 12.5143 23.8557 12.1956 23.8629 11.7106C23.8629 11.2821 24.3729 10.8219 25.478 10.8219C26.4027 10.8077 27.0685 11.0095 27.5892 11.2184L27.8444 11.3353L28.2271 9.09414C27.6673 8.88514 26.7923 8.66211 25.6979 8.66211C22.9101 8.66211 20.9477 10.0643 20.9299 12.0752C20.9122 13.5623 22.3329 14.3908 23.4025 14.8864C24.5005 15.3916 24.8689 15.7149 24.8619 16.1681C24.8548 16.861 23.9868 17.177 23.1757 17.177C22.0457 17.177 21.447 17.0213 20.5185 16.6347L20.1577 16.469L19.7614 18.7872C20.4198 19.0748 21.6382 19.3263 22.903 19.3367C25.8677 19.3367 27.7947 17.9524 27.816 15.8025Z" fill="#059BBF"/>
<path d="M31.1704 17.6335C31.4927 17.6335 34.3725 17.6371 34.7836 17.6371C34.8686 17.9973 35.1272 19.1878 35.1272 19.1878H37.7449L35.4601 8.84961H33.2817C32.605 8.84961 32.1022 9.03372 31.8045 9.7063L27.6141 19.1878H30.5791C30.5789 19.1878 31.0606 17.9134 31.1704 17.6335ZM33.1044 12.6237C33.0904 12.652 33.3383 12.0254 33.48 11.6359L33.6712 12.528C33.6712 12.528 34.2097 14.9994 34.323 15.5163H31.9815C32.2154 14.9216 33.1044 12.6237 33.1044 12.6237Z" fill="#059BBF"/>
<path d="M38.8227 0.00683594H3.02254C1.69709 0.00683594 0.62262 1.08077 0.62262 2.40564V4.89526H41.2226V2.40564C41.2226 1.08077 40.1482 0.00683594 38.8227 0.00683594Z" fill="#059BBF"/>
<path d="M38.8227 27.9929H3.02254C1.69709 27.9929 0.62262 26.9189 0.62262 25.5941V23.1045H41.2226V25.5941C41.2226 26.9189 40.1482 27.9929 38.8227 27.9929Z" fill="#F79F1A"/>
<path opacity="0.15" d="M2.32885 25.5935V2.40564C2.32885 1.08077 3.4034 0.00683594 4.72893 0.00683594H3.02246C1.69709 0.00683594 0.62262 1.08077 0.62262 2.40564V25.5935C0.62262 26.9184 1.69709 27.9924 3.02254 27.9924H4.72901C3.40348 27.9924 2.32885 26.9183 2.32885 25.5935Z" fill="#202121"/>
</g>
<defs>
<clipPath id="clip0_6_13216">
<rect x="0.62262" width="40.6" height="28" rx="4" fill="white"/>
</clipPath>
</defs>
</svg>
