<svg width="224" height="38" viewBox="0 0 224 38" fill="none" xmlns="http://www.w3.org/2000/svg">
<g clip-path="url(#clip0_8840_27451)">
<path d="M31.125 30.9375H1C0.41975 31.125 0 31.5447 0 32.0625V34.0625C0 34.5803 0.41975 35 0.9375 35H31.0625C31.5802 35 32 34.5803 32 34.0625V32.0625C32 31.5447 31.5802 31.125 31.125 30.9375Z" fill="#348C41"/>
<path d="M31.4218 9.32158L16.3593 3.07158C16.1292 2.97614 15.8708 2.97614 15.6407 3.07158L0.578188 9.32158C0.228125 9.46677 0 9.80852 0 10.1875V12.0625C0 12.5802 0.41975 13 0.9375 13H31.0625C31.5802 13 32 12.5802 32 12.0625V10.1875C32 9.80852 31.7719 9.46677 31.4218 9.32158ZM21.625 10.1875H10.375C9.85725 10.1875 9.4375 9.7677 9.4375 9.24995C9.4375 8.7322 9.85725 8.31245 10.375 8.31245H21.625C22.1427 8.31245 22.5625 8.7322 22.5625 9.24995C22.5625 9.7677 22.1427 10.1875 21.625 10.1875Z" fill="#0066B3"/>
<path d="M1.78125 27.375V29.25H8.96875V27.375C8.96875 26.8572 8.549 26.4375 8.03125 26.4375H2.71875C2.201 26.4375 1.78125 26.8572 1.78125 27.375Z" fill="#348C41"/>
<path d="M3.03125 14.875H7.71875V24.5625H3.03125V14.875Z" fill="#348C41"/>
<path d="M24.2812 14.875H28.9688V24.5625H24.2812V14.875Z" fill="#348C41"/>
<path d="M23.0312 27.375V29.25H30.2188V27.375C30.2188 26.8572 29.799 26.4375 29.2812 26.4375H23.9688C23.451 26.4375 23.0312 26.8572 23.0312 27.375Z" fill="#348C41"/>
<path d="M16 24.875C15.4831 24.875 15.0625 24.4544 15.0625 23.9375C15.0625 23.4198 14.6428 23 14.125 23C13.6072 23 13.1875 23.4198 13.1875 23.9375C13.1875 25.1597 13.9713 26.2018 15.0625 26.5888V27.0625C15.0625 27.5802 15.4822 28 16 28C16.5178 28 16.9375 27.5802 16.9375 27.0625V26.5888C18.0287 26.2018 18.8125 25.1597 18.8125 23.9375C18.8125 22.3867 17.5508 21.125 16 21.125C15.4831 21.125 15.0625 20.7044 15.0625 20.1875C15.0625 19.6706 15.4831 19.25 16 19.25C16.5169 19.25 16.9375 19.6706 16.9375 20.1875C16.9375 20.7052 17.3573 21.125 17.875 21.125C18.3927 21.125 18.8125 20.7052 18.8125 20.1875C18.8125 18.9653 18.0287 17.9233 16.9375 17.5363V17.0625C16.9375 16.5447 16.5178 16.125 16 16.125C15.4822 16.125 15.0625 16.5447 15.0625 17.0625V17.5363C13.9713 17.9233 13.1875 18.9653 13.1875 20.1875C13.1875 21.7383 14.4492 23 16 23C16.5169 23 16.9375 23.4206 16.9375 23.9375C16.9375 24.4544 16.5169 24.875 16 24.875Z" fill="#348C41"/>
</g>
<path d="M49.068 29L44.868 10.968H49.292L51.672 21.832L54.136 13.516V10.968H57.832L60.94 21.86L63.432 10.968H67.856L63.684 29H59.512L56.488 18.584L53.24 29H49.068ZM69.7849 13.628V10.24H74.6849V13.628H69.7849ZM70.1489 29V19.06H68.1889L68.5809 15.728H74.6569V29H70.1489ZM77.5296 29V15.728H81.8136L81.9536 16.96C82.5322 16.6053 83.2509 16.288 84.1096 16.008C84.9682 15.7093 85.8269 15.5227 86.6856 15.448V18.836C86.2002 18.892 85.6589 18.9853 85.0616 19.116C84.4829 19.228 83.9229 19.368 83.3816 19.536C82.8589 19.704 82.4109 19.8813 82.0376 20.068V29H77.5296ZM94.9502 29.28C92.6355 29.28 90.7782 28.7107 89.3782 27.572C87.9782 26.4147 87.2782 24.6787 87.2782 22.364C87.2782 20.2547 87.8568 18.5747 89.0142 17.324C90.1715 16.0733 91.9075 15.448 94.2222 15.448C96.3315 15.448 97.9648 15.9893 99.1222 17.072C100.279 18.1547 100.858 19.6107 100.858 21.44V23.82H91.4502C91.6555 24.6973 92.1315 25.3133 92.8782 25.668C93.6435 26.004 94.6795 26.172 95.9862 26.172C96.7142 26.172 97.4515 26.1067 98.1982 25.976C98.9635 25.8453 99.5982 25.6773 100.102 25.472V28.412C99.4675 28.7107 98.7115 28.9253 97.8342 29.056C96.9568 29.2053 95.9955 29.28 94.9502 29.28ZM91.4502 21.216H96.9382V20.628C96.9382 19.9747 96.7422 19.4613 96.3502 19.088C95.9582 18.696 95.2955 18.5 94.3622 18.5C93.2795 18.5 92.5235 18.724 92.0942 19.172C91.6648 19.6013 91.4502 20.2827 91.4502 21.216ZM108.611 29.28C106.968 29.28 105.755 28.86 104.971 28.02C104.205 27.18 103.823 26.0227 103.823 24.548V19.144H102.031V15.728H103.823V12.956L108.331 11.752V15.728H111.551L111.355 19.144H108.331V24.24C108.331 24.8747 108.489 25.3227 108.807 25.584C109.124 25.8267 109.6 25.948 110.235 25.948C110.776 25.948 111.327 25.8547 111.887 25.668V28.72C111.009 29.0933 109.917 29.28 108.611 29.28ZM113.623 29V15.728H117.907L118.047 16.96C118.626 16.6053 119.345 16.288 120.203 16.008C121.062 15.7093 121.921 15.5227 122.779 15.448V18.836C122.294 18.892 121.753 18.9853 121.155 19.116C120.577 19.228 120.017 19.368 119.475 19.536C118.953 19.704 118.505 19.8813 118.131 20.068V29H113.623ZM127.775 29.28C126.935 29.28 126.151 29.1307 125.423 28.832C124.714 28.5333 124.144 28.076 123.715 27.46C123.286 26.8253 123.071 26.0413 123.071 25.108C123.071 23.7453 123.528 22.6813 124.443 21.916C125.376 21.132 126.767 20.74 128.615 20.74H132.311V20.432C132.311 19.76 132.087 19.284 131.639 19.004C131.191 18.7053 130.351 18.556 129.119 18.556C127.607 18.556 126.123 18.7893 124.667 19.256V16.344C125.32 16.0827 126.114 15.868 127.047 15.7C127.999 15.532 128.998 15.448 130.043 15.448C132.096 15.448 133.702 15.868 134.859 16.708C136.035 17.548 136.623 18.8827 136.623 20.712V29H132.675L132.451 27.88C131.966 28.328 131.34 28.6733 130.575 28.916C129.828 29.1587 128.895 29.28 127.775 29.28ZM129.203 26.508C129.912 26.508 130.528 26.3867 131.051 26.144C131.574 25.9013 131.994 25.5933 132.311 25.22V23.344H129.119C127.794 23.344 127.131 23.876 127.131 24.94C127.131 25.4253 127.299 25.808 127.635 26.088C127.971 26.368 128.494 26.508 129.203 26.508ZM139.326 29V15.728H143.526L143.666 16.876C144.208 16.5027 144.889 16.176 145.71 15.896C146.532 15.5973 147.409 15.448 148.342 15.448C150.06 15.448 151.31 15.8587 152.094 16.68C152.878 17.5013 153.27 18.7707 153.27 20.488V29H148.762V20.852C148.762 20.1053 148.604 19.5733 148.286 19.256C147.969 18.9387 147.4 18.78 146.578 18.78C146.093 18.78 145.598 18.892 145.094 19.116C144.59 19.34 144.17 19.62 143.834 19.956V29H139.326ZM160.907 29.28C159.843 29.28 158.835 29.2053 157.883 29.056C156.931 28.9067 156.175 28.72 155.615 28.496V25.052C156.268 25.332 157.024 25.5467 157.883 25.696C158.741 25.8453 159.507 25.92 160.179 25.92C160.981 25.92 161.56 25.8827 161.915 25.808C162.288 25.7333 162.475 25.528 162.475 25.192C162.475 24.8187 162.176 24.5387 161.579 24.352C160.981 24.1653 160.16 23.8947 159.115 23.54C157.901 23.1107 156.977 22.616 156.343 22.056C155.727 21.4773 155.419 20.628 155.419 19.508C155.419 18.2013 155.904 17.2027 156.875 16.512C157.864 15.8027 159.432 15.448 161.579 15.448C162.419 15.448 163.249 15.5133 164.071 15.644C164.892 15.7747 165.564 15.924 166.087 16.092V19.48C165.564 19.2373 164.967 19.06 164.295 18.948C163.623 18.836 163.016 18.78 162.475 18.78C161.784 18.78 161.196 18.8267 160.711 18.92C160.244 18.9947 160.011 19.1907 160.011 19.508C160.011 19.8627 160.272 20.1147 160.795 20.264C161.317 20.3947 162.073 20.6187 163.063 20.936C164.108 21.2533 164.92 21.5987 165.499 21.972C166.077 22.3267 166.488 22.756 166.731 23.26C166.973 23.764 167.095 24.3987 167.095 25.164C167.095 26.4893 166.572 27.5067 165.527 28.216C164.481 28.9253 162.941 29.28 160.907 29.28ZM169.282 29V19.144H167.518V15.728H169.282V14.636C169.282 13.1987 169.693 12.0133 170.514 11.08C171.336 10.1467 172.558 9.68 174.182 9.68C174.854 9.68 175.452 9.736 175.974 9.848C176.497 9.94133 176.992 10.0813 177.458 10.268V13.292C177.178 13.1987 176.908 13.124 176.646 13.068C176.385 13.012 176.096 12.984 175.778 12.984C175.05 12.984 174.537 13.124 174.238 13.404C173.94 13.6653 173.79 14.104 173.79 14.72V15.728H177.066L176.87 19.144H173.79V29H169.282ZM185.294 29.28C182.979 29.28 181.122 28.7107 179.722 27.572C178.322 26.4147 177.622 24.6787 177.622 22.364C177.622 20.2547 178.201 18.5747 179.358 17.324C180.515 16.0733 182.251 15.448 184.566 15.448C186.675 15.448 188.309 15.9893 189.466 17.072C190.623 18.1547 191.202 19.6107 191.202 21.44V23.82H181.794C181.999 24.6973 182.475 25.3133 183.222 25.668C183.987 26.004 185.023 26.172 186.33 26.172C187.058 26.172 187.795 26.1067 188.542 25.976C189.307 25.8453 189.942 25.6773 190.446 25.472V28.412C189.811 28.7107 189.055 28.9253 188.178 29.056C187.301 29.2053 186.339 29.28 185.294 29.28ZM181.794 21.216H187.282V20.628C187.282 19.9747 187.086 19.4613 186.694 19.088C186.302 18.696 185.639 18.5 184.706 18.5C183.623 18.5 182.867 18.724 182.438 19.172C182.009 19.6013 181.794 20.2827 181.794 21.216ZM193.494 29V15.728H197.778L197.918 16.96C198.497 16.6053 199.216 16.288 200.074 16.008C200.933 15.7093 201.792 15.5227 202.65 15.448V18.836C202.165 18.892 201.624 18.9853 201.026 19.116C200.448 19.228 199.888 19.368 199.346 19.536C198.824 19.704 198.376 19.8813 198.002 20.068V29H193.494ZM215.434 29.28C214.911 29.28 214.295 29.2427 213.586 29.168C212.876 29.0933 212.176 28.9907 211.486 28.86C210.814 28.7107 210.254 28.5427 209.806 28.356V24.604C210.571 24.9587 211.392 25.2107 212.27 25.36C213.147 25.5093 213.968 25.584 214.734 25.584C215.91 25.584 216.787 25.4253 217.366 25.108C217.963 24.7907 218.262 24.212 218.262 23.372C218.262 22.7187 218.01 22.2427 217.506 21.944C217.02 21.6453 216.311 21.496 215.378 21.496H212.438L212.746 18.332H215.182C216.134 18.332 216.824 18.1827 217.254 17.884C217.683 17.5667 217.898 17.0627 217.898 16.372C217.898 15.7187 217.636 15.224 217.114 14.888C216.61 14.552 215.788 14.384 214.65 14.384C213.847 14.384 213.035 14.4773 212.214 14.664C211.392 14.832 210.683 15.056 210.086 15.336V11.64C210.739 11.3787 211.551 11.1547 212.522 10.968C213.511 10.7813 214.5 10.688 215.49 10.688C217.767 10.688 219.503 11.1733 220.698 12.144C221.911 13.096 222.518 14.3187 222.518 15.812C222.518 16.6707 222.331 17.4733 221.958 18.22C221.603 18.9667 221.052 19.5267 220.306 19.9C221.164 20.1987 221.799 20.684 222.21 21.356C222.639 22.028 222.854 22.84 222.854 23.792C222.854 25.0427 222.536 26.0787 221.902 26.9C221.267 27.7027 220.39 28.3 219.27 28.692C218.168 29.084 216.89 29.28 215.434 29.28Z" fill="#00192D"/>
<defs>
<clipPath id="clip0_8840_27451">
<rect width="32" height="32" fill="white" transform="translate(0 3)"/>
</clipPath>
</defs>
</svg>
